<svg width="25" height="21" viewBox="0 0 25 21" fill="none" xmlns="http://www.w3.org/2000/svg">
<g clip-path="url(#clip0_64_212)">
<path d="M2.57934 20.0395C1.8973 20.0395 1.31343 19.7967 0.827729 19.311C0.342031 18.8253 0.0991821 18.2414 0.0991821 17.5594V2.6784C0.0991821 1.99636 0.342031 1.41249 0.827729 0.926789C1.31343 0.441091 1.8973 0.198242 2.57934 0.198242H22.4206C23.1027 0.198242 23.6865 0.441091 24.1722 0.926789C24.6579 1.41249 24.9008 1.99636 24.9008 2.6784V17.5594C24.9008 18.2414 24.6579 18.8253 24.1722 19.311C23.6865 19.7967 23.1027 20.0395 22.4206 20.0395H2.57934ZM12.5 11.359L2.57934 5.15856V17.5594H22.4206V5.15856L12.5 11.359ZM12.5 8.8788L22.4206 2.6784H2.57934L12.5 8.8788ZM2.57934 5.15856V2.6784V17.5594V5.15856Z" fill="#7F2323"/>
</g>
<defs>
<clipPath id="clip0_64_212">
<rect width="25" height="20.2381" fill="white"/>
</clipPath>
</defs>
</svg>
