<svg width="25" height="25" viewBox="0 0 25 25" fill="none" xmlns="http://www.w3.org/2000/svg">
<g clip-path="url(#clip0_64_214)">
<path d="M11.3678 24.9549V22.6904C9.00893 22.4262 6.98504 21.4496 5.29611 19.7607C3.60717 18.0718 2.63061 16.0479 2.36642 13.689H0.101929V11.4245H2.36642C2.63061 9.0657 3.60717 7.04181 5.29611 5.35287C6.98504 3.66394 9.00893 2.68738 11.3678 2.42318V0.158691H13.6323V2.42318C15.9911 2.68738 18.015 3.66394 19.7039 5.35287C21.3929 7.04181 22.3694 9.0657 22.6336 11.4245H24.8981V13.689H22.6336C22.3694 16.0479 21.3929 18.0718 19.7039 19.7607C18.015 21.4496 15.9911 22.4262 13.6323 22.6904V24.9549H11.3678ZM12.5 20.4825C14.689 20.4825 16.5572 19.7088 18.1046 18.1614C19.652 16.614 20.4258 14.7458 20.4258 12.5568C20.4258 10.3678 19.652 8.49957 18.1046 6.95217C16.5572 5.40477 14.689 4.63106 12.5 4.63106C10.311 4.63106 8.44281 5.40477 6.89541 6.95217C5.348 8.49957 4.5743 10.3678 4.5743 12.5568C4.5743 14.7458 5.348 16.614 6.89541 18.1614C8.44281 19.7088 10.311 20.4825 12.5 20.4825Z" fill="#7F2323"/>
<ellipse cx="12.5" cy="12.2586" rx="2.71739" ry="3.01932" fill="#7F2323"/>
</g>
<defs>
<clipPath id="clip0_64_214">
<rect width="25" height="25" fill="white"/>
</clipPath>
</defs>
</svg>
