<svg width="25" height="25" viewBox="0 0 25 25" fill="none" xmlns="http://www.w3.org/2000/svg">
<g clip-path="url(#clip0_64_159)">
<path d="M23.3964 24.8356C20.541 24.8356 17.7198 24.2131 14.9329 22.9681C12.1459 21.7232 9.6103 19.9585 7.32595 17.6741C5.04159 15.3898 3.27693 12.8542 2.03195 10.0672C0.786977 7.28032 0.16449 4.45914 0.16449 1.6037C0.16449 1.19251 0.301551 0.849858 0.575674 0.575735C0.849797 0.301612 1.19245 0.164551 1.60363 0.164551H7.15462C7.47443 0.164551 7.75998 0.273058 8.01125 0.490072C8.26253 0.707085 8.41102 0.964076 8.4567 1.26104L9.3476 6.05819C9.39329 6.42369 9.38187 6.73208 9.31334 6.98336C9.24481 7.23463 9.11917 7.45165 8.93642 7.6344L5.61268 10.9924C6.06955 11.8376 6.61209 12.6543 7.24028 13.4424C7.86848 14.2305 8.5595 14.99 9.31334 15.721C10.0215 16.4292 10.7639 17.0859 11.5406 17.6913C12.3173 18.2966 13.1396 18.8506 14.0077 19.3531L17.2286 16.1322C17.4342 15.9266 17.7026 15.7724 18.0339 15.6696C18.3651 15.5668 18.6906 15.5383 19.0104 15.584L23.7391 16.5434C24.0589 16.6348 24.3216 16.8004 24.5272 17.0402C24.7327 17.2801 24.8355 17.5485 24.8355 17.8455V23.3965C24.8355 23.8076 24.6985 24.1503 24.4244 24.4244C24.1502 24.6985 23.8076 24.8356 23.3964 24.8356ZM4.3106 8.38824L6.57211 6.12672L5.9896 2.90578H2.93998C3.0542 3.84237 3.21411 4.76753 3.4197 5.68127C3.62529 6.59502 3.92226 7.49734 4.3106 8.38824ZM16.5776 20.6552C17.4685 21.0436 18.3765 21.352 19.3017 21.5804C20.2269 21.8088 21.1577 21.9573 22.0943 22.0258V19.0105L18.8734 18.3595L16.5776 20.6552Z" fill="#7F2323"/>
</g>
<defs>
<clipPath id="clip0_64_159">
<rect width="25" height="25" fill="white"/>
</clipPath>
</defs>
</svg>
