<svg width="179" height="133" viewBox="0 0 179 133" fill="none" xmlns="http://www.w3.org/2000/svg">
<mask id="mask0_43_829" style="mask-type:luminance" maskUnits="userSpaceOnUse" x="63" y="0" width="53" height="109">
<path d="M63.1688 0H115.832V108.337H63.1688V0Z" fill="white"/>
</mask>
<g mask="url(#mask0_43_829)">
<path fill-rule="evenodd" clip-rule="evenodd" d="M91.789 20.7675C91.789 21.9196 92.9332 23.0716 92.9332 24.2236C94.0773 31.1278 95.2215 46.1041 95.2215 54.1682H94.0773C94.0773 46.1041 92.9332 31.1278 91.789 24.2236C91.789 23.0716 90.6448 21.9196 90.6448 20.7675C89.5006 17.3115 88.3486 13.8554 86.0602 11.5514C88.3486 13.8554 90.6448 16.1595 91.789 20.7675ZM71.1781 26.5276H78.051V0.03125L74.6106 18.4635H63.1688V89.8728H75.7626L80.3393 108.297V82.9607H71.1781V58.7762H78.051V50.7121H71.1781V26.5276ZM100.942 59.9283C104.383 61.0803 107.815 65.6805 107.815 70.2886C107.815 77.2007 102.094 81.8087 96.3657 82.9607V97.9291C96.3657 97.9291 98.6541 89.8728 99.7982 89.8728C108.96 88.7208 115.832 80.6567 115.832 70.2886C115.832 64.5285 112.392 58.7762 107.815 54.1682C112.392 50.7121 115.832 44.952 115.832 39.192C115.832 28.8238 108.96 20.7675 99.7982 19.6155C97.5099 13.8554 95.2215 9.24738 91.789 8.09536C96.3657 13.8554 96.3657 19.6155 96.3657 20.7675C97.5099 23.0716 97.5099 25.3756 98.6541 26.5276C103.239 27.6718 107.815 33.4319 107.815 39.192C107.815 43.8 104.383 47.2561 100.942 49.5601V59.9283ZM97.5099 62.2244C97.5099 53.0162 97.5099 31.1278 95.2215 24.2236C95.2215 23.0716 95.2215 21.9196 95.2215 20.7675C94.0773 17.3115 92.9332 13.8554 90.6448 10.3994C90.6448 9.24738 89.5006 8.09536 88.3486 6.94335C86.0602 4.63931 83.7719 2.33528 81.4835 0.03125V62.2244H80.3393V63.3765C80.3393 64.5285 81.4835 64.5285 81.4835 65.6805H82.6277V108.297L88.3486 105.993C90.6448 105.993 91.789 103.689 92.9332 101.385C92.9332 100.233 94.0773 99.0811 94.0773 97.9291V63.3765H90.6448L97.5099 62.2244ZM86.0602 77.2007C86.0602 77.2007 87.2044 77.2007 87.2044 78.3527C87.2044 78.3527 87.2044 79.5047 86.0602 79.5047C86.0602 79.5047 84.9161 79.5047 84.9161 78.3527C84.9161 78.3527 84.9161 77.2007 86.0602 77.2007ZM87.2044 84.1128C87.2044 84.1128 87.2044 85.2648 86.0602 85.2648L84.9161 84.1128C84.9161 82.9607 84.9161 82.9607 86.0602 81.8087L87.2044 82.9607V84.1128ZM87.2044 87.5688V88.7208C87.2044 88.7208 87.2044 89.8728 86.0602 89.8728C86.0602 89.8728 84.9161 89.8728 84.9161 88.7208C84.9161 88.7208 84.9161 88.7208 84.9161 87.5688C86.0602 87.5688 86.0602 87.5688 86.0602 87.5688C86.0602 87.5688 86.0602 87.5688 87.2044 87.5688Z" fill="white"/>
</g>
<path d="M9.95597 127.422H3.0909C3.0909 128.574 3.34951 129.46 3.87458 130.087C4.41532 130.698 5.08146 130.996 5.88081 130.996C6.94663 130.996 7.7068 130.557 8.16917 129.679H9.6425C9.4936 130.393 9.06257 130.988 8.35726 131.466C7.6441 131.952 6.67234 132.187 5.44195 132.187C4.22724 132.187 3.18494 131.811 2.30721 131.059C1.2414 130.165 0.708496 128.896 0.708496 127.266C0.708496 125.62 1.12385 124.288 1.96239 123.285C2.81661 122.266 4.03132 121.749 5.59869 121.749C7.66761 121.749 8.99988 122.587 9.61115 124.256C9.86193 124.93 9.98732 125.565 9.98732 126.169C9.98732 126.756 9.97165 127.172 9.95597 127.422ZM7.66761 125.949C7.66761 123.927 6.97797 122.908 5.59869 122.908C4.84635 122.908 4.25075 123.214 3.81189 123.817C3.37302 124.429 3.13008 125.259 3.0909 126.325H7.66761C7.66761 126.2 7.66761 126.074 7.66761 125.949Z" fill="white"/>
<path d="M16.2056 130.902C16.621 130.902 16.9658 130.808 17.2401 130.62C17.5301 130.432 17.8043 130.181 18.0551 129.867L20.5002 126.983L18.0551 123.974C17.82 123.708 17.5379 123.488 17.2087 123.316C16.8953 123.128 16.5583 123.034 16.2056 123.034V121.968H21.4093V123.034C21.0096 123.034 20.7353 123.112 20.5943 123.253C20.3435 123.488 20.3121 123.723 20.5002 123.974L22.0676 125.98L23.6663 123.974C23.8701 123.708 23.8387 123.488 23.5723 123.316C23.298 123.128 22.8591 123.034 22.2557 123.034V121.968H26.9891V123.034C26.5659 123.034 26.2133 123.128 25.9233 123.316C25.649 123.488 25.3982 123.708 25.171 123.974L22.7259 126.795L25.171 129.867C25.6882 130.557 26.2995 130.902 26.9891 130.902V131.999H21.7855V130.902C22.3027 130.902 22.6789 130.808 22.914 130.62C23.1412 130.416 23.1412 130.165 22.914 129.867L21.1899 127.798L19.5598 129.867C19.3247 130.181 19.3482 130.432 19.6225 130.62C19.8889 130.808 20.3278 130.902 20.9391 130.902V131.999H16.2056V130.902Z" fill="white"/>
<path d="M33.2368 126.921C33.2368 126.129 33.3622 125.401 33.613 124.727C33.8637 124.06 34.2086 123.504 34.6474 123.065C35.5251 122.187 36.685 121.749 38.127 121.749C39.5846 121.749 40.768 122.187 41.6692 123.065C42.5626 123.943 43.0172 125.189 43.0172 126.795C43.0172 128.41 42.594 129.711 41.7633 130.714C40.9482 131.701 39.7335 132.187 38.127 132.187C36.5361 132.187 35.3214 131.709 34.4907 130.745C33.6521 129.789 33.2368 128.512 33.2368 126.921ZM38.127 130.996C38.895 130.996 39.5219 130.651 40.0078 129.962C40.4859 129.256 40.7288 128.269 40.7288 127.015C40.7288 124.969 40.2037 123.692 39.1614 123.191C38.848 123.026 38.5031 122.94 38.127 122.94C36.9123 122.94 36.1207 123.684 35.7446 125.165C35.6192 125.667 35.5565 126.263 35.5565 126.952C35.5565 128.253 35.7916 129.256 36.2775 129.962C36.7555 130.651 37.3746 130.996 38.127 130.996Z" fill="white"/>
<path d="M53.764 132.188C51.6716 132.188 50.6293 131.044 50.6293 128.74V123.787C50.6293 123.52 50.5979 123.348 50.5352 123.285C50.4725 123.207 50.3315 123.16 50.1277 123.16H49.3127V121.969H49.6889C50.1904 121.969 50.5509 121.812 50.786 121.498C51.0368 121.169 51.17 120.644 51.1935 119.931V119.022H52.7609V121.969H55.8016V123.16H52.7609V128.708C52.7609 129.947 53.0509 130.675 53.6386 130.903C53.7797 130.965 53.9364 130.997 54.1088 130.997C54.7985 130.997 55.2452 130.425 55.4568 129.273H56.6166C56.5304 130.636 55.9662 131.53 54.9239 131.968C54.5634 132.11 54.1794 132.188 53.764 132.188Z" fill="white"/>
<path d="M65.3408 119.93C64.9176 119.93 64.5571 119.789 64.2436 119.491C63.9458 119.201 63.8048 118.857 63.8048 118.457C63.8048 118.018 63.9458 117.658 64.2436 117.36C64.5571 117.07 64.9176 116.921 65.3408 116.921C65.7797 116.921 66.1401 117.07 66.4379 117.36C66.7514 117.658 66.9082 118.018 66.9082 118.457C66.9082 118.857 66.7514 119.201 66.4379 119.491C66.1401 119.789 65.7797 119.93 65.3408 119.93ZM62.833 130.902C63.4364 130.902 63.8126 130.855 63.9615 130.745C64.1261 130.62 64.2201 130.494 64.2436 130.369C64.2828 130.244 64.3063 130.079 64.3063 129.867V124.413C64.3063 123.935 64.2593 123.621 64.1809 123.473C64.0947 123.331 63.8753 123.253 63.5226 123.253H62.8017V122.187C63.4443 122.187 63.9615 122.14 64.3377 122.031C64.7138 121.929 64.9725 121.858 65.1214 121.811C65.2624 121.772 65.4348 121.748 65.6229 121.748C65.9521 121.748 66.1715 121.858 66.2812 122.062C66.4066 122.273 66.4693 122.595 66.4693 123.034V129.867C66.4693 130.291 66.532 130.549 66.6574 130.651C66.8846 130.823 67.3157 130.902 67.9426 130.902V131.999H62.833V130.902Z" fill="white"/>
<path d="M81.1587 123.598C80.7825 123.143 80.2496 122.908 79.56 122.908C78.2591 122.908 77.4284 123.645 77.0522 125.103C76.9033 125.604 76.8328 126.223 76.8328 126.952C76.8328 128.292 77.0914 129.303 77.6165 129.993C78.1337 130.667 78.7763 130.996 79.5287 130.996C80.1086 130.996 80.6023 130.839 81.002 130.526C81.3938 130.197 81.6681 129.711 81.817 129.084H83.1649C83.1649 129.899 82.7966 130.62 82.0678 131.247C81.3546 131.874 80.375 132.187 79.1211 132.187C77.8829 132.187 76.8406 131.803 75.9864 131.027C74.9598 130.134 74.4504 128.802 74.4504 127.046C74.4504 125.604 74.8736 124.366 75.7356 123.316C76.5898 122.274 77.8359 121.749 79.466 121.749C80.5474 121.749 81.4487 122.015 82.1618 122.532C82.8907 123.057 83.259 123.739 83.259 124.57C83.259 124.969 83.1179 125.306 82.8515 125.573C82.6007 125.847 82.2637 125.98 81.8484 125.98C81.2841 125.98 80.8923 125.722 80.6885 125.197C80.6023 125.032 80.5631 124.852 80.5631 124.664C80.5631 124.209 80.759 123.849 81.1587 123.598Z" fill="white"/>
<path d="M114.518 121.78C116.462 121.78 117.434 123.191 117.434 126.012V129.837C117.434 130.275 117.496 130.573 117.622 130.714C117.747 130.84 118.092 130.902 118.656 130.902V132H113.954V130.902C114.557 130.902 114.926 130.855 115.051 130.746C115.177 130.62 115.247 130.495 115.271 130.369C115.286 130.228 115.302 130.048 115.302 129.837V126.138C115.302 125.221 115.224 124.594 115.083 124.257C114.934 123.928 114.746 123.677 114.518 123.504C114.283 123.34 114.025 123.254 113.735 123.254C113.21 123.254 112.708 123.363 112.23 123.567C111.744 123.779 111.36 124.053 111.07 124.382C111.148 124.868 111.195 125.409 111.195 126.012V129.837C111.195 130.275 111.258 130.573 111.384 130.714C111.509 130.84 111.854 130.902 112.418 130.902V132H107.747V130.902C108.351 130.902 108.703 130.855 108.813 130.746C108.938 130.62 109.009 130.495 109.032 130.369C109.048 130.228 109.064 130.048 109.064 129.837V126.138C109.064 125.221 108.985 124.594 108.844 124.257C108.696 123.928 108.507 123.677 108.28 123.504C108.045 123.34 107.786 123.254 107.496 123.254C106.995 123.254 106.509 123.348 106.054 123.536C105.592 123.724 105.216 123.975 104.926 124.288V129.868C104.926 130.291 104.989 130.55 105.114 130.652C105.341 130.824 105.772 130.902 106.399 130.902V132H101.384V130.902C101.948 130.902 102.301 130.855 102.45 130.746C102.591 130.62 102.685 130.495 102.732 130.369C102.771 130.244 102.794 130.079 102.794 129.868V124.476C102.794 123.998 102.747 123.685 102.669 123.536C102.583 123.395 102.355 123.316 101.979 123.316H101.384V122.25C101.987 122.25 102.465 122.203 102.826 122.094C103.202 121.992 103.46 121.921 103.609 121.874C103.75 121.835 103.923 121.812 104.111 121.812C104.44 121.812 104.66 121.921 104.769 122.125C104.871 122.313 104.926 122.642 104.926 123.097C105.592 122.517 106.407 122.109 107.371 121.874C107.685 121.812 107.982 121.78 108.28 121.78C109.471 121.78 110.294 122.305 110.757 123.348C111.509 122.658 112.394 122.18 113.421 121.906C113.797 121.827 114.158 121.78 114.518 121.78Z" fill="white"/>
<path d="M134.261 127.422H127.396C127.396 128.574 127.655 129.46 128.18 130.087C128.72 130.698 129.387 130.996 130.186 130.996C131.252 130.996 132.012 130.557 132.474 129.679H133.948C133.799 130.393 133.368 130.988 132.662 131.466C131.949 131.952 130.977 132.187 129.747 132.187C128.532 132.187 127.49 131.811 126.612 131.059C125.547 130.165 125.014 128.896 125.014 127.266C125.014 125.62 125.429 124.288 126.268 123.285C127.122 122.266 128.336 121.749 129.904 121.749C131.973 121.749 133.305 122.587 133.916 124.256C134.167 124.93 134.292 125.565 134.292 126.169C134.292 126.756 134.277 127.172 134.261 127.422ZM131.973 125.949C131.973 123.927 131.283 122.908 129.904 122.908C129.152 122.908 128.556 123.214 128.117 123.817C127.678 124.429 127.435 125.259 127.396 126.325H131.973C131.973 126.2 131.973 126.074 131.973 125.949Z" fill="white"/>
<path d="M149.57 129.617C149.57 130.416 149.727 130.808 150.04 130.808C150.33 130.808 150.542 130.714 150.667 130.526C150.808 130.322 150.887 129.954 150.887 129.429H151.921C151.937 129.515 151.953 129.64 151.953 129.805C151.953 130.416 151.796 130.933 151.482 131.372C151.122 131.921 150.55 132.187 149.758 132.187C149.233 132.187 148.794 132.046 148.442 131.78C148.081 131.49 147.83 131.106 147.689 130.62C146.725 131.67 145.511 132.187 144.053 132.187C143.254 132.187 142.556 131.96 141.953 131.498C141.341 131.02 141.044 130.361 141.044 129.523C141.044 128.065 142.125 126.976 144.304 126.263C145.683 125.824 146.506 125.526 146.78 125.353C147.047 125.189 147.219 125.024 147.282 124.852C147.36 124.664 147.407 124.468 147.407 124.256C147.407 123.864 147.219 123.535 146.843 123.285C146.467 123.018 145.965 122.877 145.338 122.877C144.727 122.877 144.194 123.049 143.739 123.379C144.053 123.629 144.21 123.943 144.21 124.319C144.21 124.695 144.084 125.009 143.834 125.259C143.583 125.495 143.277 125.604 142.924 125.604C142.564 125.604 142.266 125.502 142.015 125.291C141.78 125.064 141.671 124.75 141.671 124.35C141.671 123.582 142.055 122.955 142.83 122.47C143.622 121.991 144.57 121.749 145.683 121.749C147.689 121.749 148.912 122.399 149.351 123.692C149.492 124.131 149.57 124.632 149.57 125.197V129.617ZM145.181 127.172C144.617 127.422 144.186 127.752 143.896 128.143C143.598 128.52 143.457 128.951 143.457 129.429C143.457 129.891 143.583 130.236 143.834 130.463C144.084 130.698 144.398 130.808 144.774 130.808C145.526 130.808 146.153 130.549 146.655 130.024C147.156 129.484 147.407 128.731 147.407 127.767V126.231C146.984 126.466 146.537 126.67 146.059 126.858C145.597 127.031 145.307 127.132 145.181 127.172Z" fill="white"/>
<path d="M161.577 132.188C159.485 132.188 158.443 131.044 158.443 128.74V123.787C158.443 123.52 158.411 123.348 158.349 123.285C158.286 123.207 158.145 123.16 157.941 123.16H157.126V121.969H157.502C158.004 121.969 158.364 121.812 158.599 121.498C158.85 121.169 158.983 120.644 159.007 119.931V119.022H160.574V121.969H163.615V123.16H160.574V128.708C160.574 129.947 160.864 130.675 161.452 130.903C161.593 130.965 161.75 130.997 161.922 130.997C162.612 130.997 163.059 130.425 163.27 129.273H164.43C164.344 130.636 163.78 131.53 162.737 131.968C162.377 132.11 161.993 132.188 161.577 132.188Z" fill="white"/>
<path d="M176.164 123.285C175.803 122.956 175.239 122.783 174.471 122.783C173.719 122.783 173.201 123.058 172.935 123.598C172.872 123.771 172.841 123.959 172.841 124.163C172.841 124.351 172.911 124.539 173.06 124.727C173.225 124.915 173.436 125.095 173.687 125.26C173.938 125.432 174.22 125.597 174.534 125.761C174.847 125.91 175.168 126.075 175.505 126.263C175.835 126.451 176.195 126.655 176.571 126.859C177.95 127.611 178.64 128.449 178.64 129.366C178.64 130.268 178.28 130.965 177.574 131.467C176.861 131.952 175.913 132.188 174.722 132.188C173.546 132.188 172.574 131.984 171.806 131.561C171.054 131.145 170.678 130.605 170.678 129.931C170.678 129.578 170.788 129.272 171.023 129.022C171.274 128.771 171.587 128.645 171.963 128.645C172.339 128.645 172.637 128.763 172.872 128.99C173.123 129.225 173.248 129.507 173.248 129.837C173.248 130.15 173.131 130.424 172.904 130.652C173.444 130.949 174.103 131.09 174.878 131.09C175.646 131.09 176.203 130.918 176.54 130.558C176.665 130.416 176.728 130.228 176.728 129.993C176.728 129.453 176.117 128.88 174.91 128.269C174.048 127.854 173.413 127.533 172.998 127.297C171.634 126.529 170.96 125.597 170.96 124.507C170.96 123.692 171.305 123.034 171.994 122.533C172.684 122.031 173.562 121.78 174.628 121.78C175.709 121.78 176.618 121.984 177.355 122.376C178.084 122.776 178.452 123.285 178.452 123.912C178.452 124.288 178.358 124.562 178.17 124.727C177.856 125.04 177.559 125.197 177.292 125.197C176.806 125.197 176.454 125.087 176.226 124.852C175.991 124.625 175.882 124.366 175.882 124.069C175.882 123.755 175.976 123.497 176.164 123.285Z" fill="white"/>
</svg>
