<svg width="126" height="133" viewBox="0 0 126 133" fill="none" xmlns="http://www.w3.org/2000/svg">
<mask id="mask0_43_785" style="mask-type:luminance" maskUnits="userSpaceOnUse" x="15" y="11" width="108" height="92">
<path d="M15.5318 11.5552H122.661V102.777H15.5318V11.5552Z" fill="white"/>
</mask>
<g mask="url(#mask0_43_785)">
<path d="M69.3785 102.71C39.9924 102.71 16.08 82.5423 16.08 57.7513C16.08 32.9603 39.9924 12.793 69.3785 12.793C98.7646 12.793 122.677 32.9603 122.677 57.7513C122.677 82.5423 98.7646 102.71 69.3785 102.71ZM69.3785 102.71C39.9924 102.71 16.08 82.5423 16.08 57.7513C16.08 32.9603 39.9924 12.793 69.3785 12.793C98.7646 12.793 122.677 32.9603 122.677 57.7513C122.677 82.5423 98.7646 102.71 69.3785 102.71ZM69.3785 102.71C39.9924 102.71 16.08 82.5423 16.08 57.7513C16.08 32.9603 39.9924 12.793 69.3785 12.793C98.7646 12.793 122.677 32.9603 122.677 57.7513C122.677 82.5423 98.7646 102.71 69.3785 102.71Z" fill="#C64752"/>
</g>
<mask id="mask1_43_785" style="mask-type:luminance" maskUnits="userSpaceOnUse" x="3" y="0" width="105" height="87">
<path d="M3.68677 0H107.05V86.9257H3.68677V0Z" fill="white"/>
</mask>
<g mask="url(#mask1_43_785)">
<path d="M102.181 28.1165C102.53 28.9194 102.856 29.7358 103.142 30.5521L59.8532 85.6075C58.8443 85.6944 57.8353 85.7614 56.8264 85.8015L102.181 28.1165ZM67.2652 84.4566C68.4728 84.1956 69.6724 83.8945 70.8561 83.5532L105.184 39.893C105.088 38.8425 104.953 37.7987 104.778 36.7549L67.2652 84.4566ZM80.1827 79.9601C81.9702 79.0835 83.7021 78.1066 85.3624 77.036L103.706 53.7104C104.23 51.9975 104.619 50.2778 104.89 48.5448L80.1827 79.9601ZM32.056 81.499C32.7868 81.8001 33.5177 82.0879 34.2566 82.3555L89.6444 11.9237C89.0565 11.4554 88.4607 10.9937 87.849 10.5453L32.056 81.499ZM39.4919 83.9748C40.2942 84.1889 41.1046 84.3763 41.9149 84.5502L95.0148 17.0224C94.5143 16.4604 93.99 15.905 93.4498 15.3563L39.4919 83.9748ZM47.6904 85.487C48.5881 85.5874 49.4779 85.661 50.3756 85.7212L99.5907 23.1449C99.1776 22.4691 98.7407 21.8 98.2799 21.1442L47.6904 85.487ZM25.3112 78.1467C25.637 78.3341 25.9627 78.5281 26.2963 78.7155C26.63 78.9029 26.9716 79.0835 27.3053 79.2642L83.5591 7.72165C83.2333 7.5343 82.8997 7.34025 82.566 7.1529C82.2324 6.96554 81.8987 6.78488 81.5571 6.60422L25.3112 78.1467ZM19.2259 73.9447C19.8058 74.413 20.4096 74.8747 21.0213 75.3231L76.8143 4.36935C76.0835 4.06824 75.3446 3.78052 74.6058 3.51287L19.2259 73.9447ZM13.8476 68.8459C14.356 69.4147 14.8803 69.9634 15.4205 70.5121L69.3784 1.8936C68.5681 1.67948 67.7657 1.49212 66.9475 1.31815L13.8476 68.8459ZM9.27958 62.7302C9.69268 63.3993 10.1296 64.0684 10.5824 64.7242L61.1799 0.381382C60.2822 0.281015 59.3845 0.20741 58.4868 0.147189L9.27958 62.7302ZM5.72052 55.3163C6.01446 56.1326 6.33223 56.949 6.68178 57.7519L52.0439 0.0668945C51.027 0.107041 50.0181 0.173954 49.0092 0.26094L5.72052 55.3163ZM3.68677 45.9754C3.77416 47.0259 3.90921 48.0697 4.09193 49.1135L41.6051 1.41183C40.3975 1.67279 39.1979 1.97389 38.0142 2.31514L3.68677 45.9754ZM5.16441 32.158C4.64009 33.8709 4.24287 35.5906 3.98071 37.3236L28.6796 5.90833C26.8922 6.78488 25.1682 7.7618 23.4999 8.83239L5.16441 32.158Z" fill="#C64752"/>
</g>
<mask id="mask2_43_785" style="mask-type:luminance" maskUnits="userSpaceOnUse" x="0" y="21" width="123" height="75">
<path d="M0.78717 21.8999H122.812V95.1286H0.78717V21.8999Z" fill="white"/>
</mask>
<g mask="url(#mask2_43_785)">
<path d="M85.7121 78.8692C81.589 79.2239 77.9266 79.5383 73.732 79.9131C74.0021 81.345 74.0498 83.1784 74.7568 84.7776C75.9008 87.3403 77.4659 89.7759 78.9276 92.2316C79.8809 93.8308 79.5632 94.2858 77.4659 94.4999C74.5821 94.7876 72.4848 94.1654 71.174 91.7498C70.3636 90.2309 69.2435 88.799 68.0439 87.4875C65.5335 84.6973 64.7311 81.4721 64.9456 78.1666C65.0965 75.8314 64.0479 74.5868 61.752 73.7504C61.1164 73.5229 60.5365 73.2553 59.5117 72.8137C60.5365 76.7481 57.8036 79.0766 55.3409 81.4119C53.0688 83.533 52.608 85.5939 54.3876 88.0696C55.3886 89.4413 56.2148 90.9 57.0966 92.352C57.9466 93.7706 57.5574 94.3527 55.7778 94.4731C55.6269 94.4731 55.4839 94.4531 55.3647 94.4731C51.6547 95.082 48.9695 94.0382 47.4601 90.9803C47.047 90.1707 46.3638 89.4413 45.7759 88.6919C44.1871 86.6712 43.6786 84.4497 44.6796 82.1814C46.2367 78.6216 43.5753 76.5407 41.1364 74.3794C40.8981 74.1452 39.921 74.3995 39.3569 74.5868C36.4334 75.5437 33.6052 77.0827 30.5784 77.4373C25.0412 78.0797 22.2607 80.9502 20.6957 84.985C19.7185 87.5277 19.1862 90.2108 18.7175 92.8739C18.5269 93.9579 18.1138 94.3126 16.9142 94.3728C12.3541 94.6605 11.7662 94.2256 12.521 90.4383C13.228 86.9656 13.9907 83.4929 14.9599 80.0603C15.6749 77.5577 17.3034 75.4768 19.7662 73.8776C22.6023 72.0241 23.9449 69.4078 24.2547 66.4102C24.8664 60.6892 27.7502 55.9853 32.7711 52.198C33.1842 51.8835 33.6529 51.181 33.5019 50.8062C32.0878 47.0792 27.6946 45.1053 23.2299 45.9752C20.1872 46.5573 19.1147 48.4978 18.5745 50.7862C18.1376 52.7199 17.8913 54.6938 17.4305 56.6276C16.8665 59.0431 15.7464 61.1843 12.5448 61.7263C8.93806 62.3285 5.74444 61.646 3.64713 58.8959C2.54287 57.464 1.76433 55.818 0.96195 54.2388C0.787174 53.9043 0.96195 53.282 1.25589 52.9876C1.44655 52.7802 2.25688 52.7802 2.59848 52.9675C4.81495 54.0716 7.00759 54.821 9.74044 54.6135C11.4961 54.4663 12.521 55.838 12.9658 57.2967C13.1327 57.8387 13.228 58.4008 13.3789 58.9628C13.6014 59.003 13.8159 59.0231 14.0383 59.0632C14.4753 58.1264 15.087 57.2097 15.3332 56.2529C15.8655 54.2188 16.1833 52.1378 16.5964 50.0568C17.2319 46.9989 19.1147 44.8511 22.8168 44.2087C26.5983 43.5396 30.4751 43.7269 32.7472 46.6443C34.8684 49.3676 36.6717 50.5721 40.7948 49.555C43.9726 48.7654 47.627 49.2873 51.0668 49.4546C56.3657 49.7022 60.0916 47.3937 63.1184 44.1284C65.168 41.9203 67.7341 40.6088 70.7767 39.9665C76.1471 38.8223 81.2474 37.2365 85.9266 34.7005C89.5412 32.7466 93.6167 32.5994 97.7875 32.9139C98.7408 32.9741 99.7894 32.6396 100.711 32.3519C101.958 31.9571 103.102 31.3482 104.349 30.9133C107.4 29.8761 108.369 28.2903 107.909 25.5469C107.742 24.5231 107.662 22.6563 108.107 22.5091C109.934 21.947 110.03 23.7804 110.911 24.59C111.42 25.0651 111.785 25.6673 112.151 26.2562C113.883 29.1066 113.303 31.9303 110.522 34.0983C109.911 34.5733 109.227 35.015 108.592 35.47C110.054 36.9688 110.371 36.9889 111.865 35.6975C114.224 33.6165 115.178 31.0404 115.519 28.21C115.591 27.5409 116.179 26.8985 116.52 26.2562C117.156 26.7312 118.006 27.0859 118.371 27.6881C121.08 32.2849 120.23 36.5539 116.377 40.3813C115.352 41.3984 115.178 42.208 115.861 43.4191C118.181 47.5142 120.397 51.656 122.574 55.7979C122.812 56.2328 122.574 56.8819 122.47 57.3971C122.423 57.6045 122.105 57.7517 121.938 57.9391C117.037 62.7233 117.037 62.7233 110.276 60.1271C109.005 59.6253 107.686 59.1703 106.375 58.7487C103.833 57.9792 102.348 58.2536 100.957 60.2275C99.3684 62.4757 98.1052 64.9113 96.715 67.26C96.421 67.7417 96.2701 68.3239 95.8808 68.7186C92.854 71.7966 93.0765 75.2894 93.855 78.9361C94.3476 81.1777 94.4906 83.4929 95.1738 85.6742C95.5392 86.8786 96.4925 88.0228 97.4459 89.0265C98.6375 90.2711 100.131 91.3149 101.418 92.5193C101.783 92.8739 102.205 93.5163 102.054 93.8509C101.887 94.2055 101.1 94.5601 100.568 94.5802C98.5898 94.6605 96.6117 94.6605 94.6653 94.5802C94.0298 94.5601 93.2751 94.2657 92.8064 93.891C90.2006 91.79 88.3655 89.2741 87.6346 86.2162C86.9991 83.5731 86.292 81.0773 85.7121 78.8692ZM97.0566 34.8276C93.3466 34.3659 89.8829 34.8276 86.6892 36.467C82.439 38.655 77.9981 40.4014 73.1203 41.3382C69.5612 42.0207 66.5345 43.3522 64.1432 45.9551C60.751 49.6621 56.1671 51.5557 50.5107 51.2813C47.9686 51.1609 45.4343 51.2211 42.9001 51.1609C38.8485 51.0538 35.5039 52.3452 32.7234 54.821C28.9896 58.1465 26.7731 62.0609 26.3044 66.6778C25.9151 70.465 23.9926 73.5229 20.4256 75.8515C19.4484 76.4805 18.6222 77.3972 18.0582 78.3272C15.5716 82.4089 15.1823 86.9455 14.4276 91.3751C14.4038 91.4621 14.4514 91.5424 14.4991 91.6227C14.8884 92.2316 15.8893 92.332 16.4296 91.8368C16.5011 91.7699 16.5487 91.6896 16.5964 91.6026C16.8903 90.8733 16.8665 90.0636 17.0333 89.2941C18.6699 82.0743 21.792 76.166 31.8733 75.169C36.7035 74.6872 40.3817 72.1713 42.6538 68.364C43.8693 66.3232 45.0212 64.2623 46.332 62.2884C46.332 62.2884 46.332 62.2884 46.332 62.2683C46.9676 61.3717 48.6041 61.9739 48.3102 62.9977C48.2863 63.0579 48.2863 63.098 48.2625 63.1649C47.5078 64.7441 46.5068 66.2429 45.3628 68.2168C52.7034 67.7618 58.8523 69.7558 64.8741 73.0479C65.0012 71.2747 65.025 69.903 65.2395 68.5514C65.2395 68.4911 65.2634 68.4242 65.319 68.364C65.6606 67.6547 66.8046 67.6146 67.2653 68.2636C67.3368 68.364 67.3924 68.4443 67.4401 68.5514C67.6308 69.0331 67.5354 69.6153 67.5116 70.1506C67.4401 72.4858 67.1462 74.8344 67.2892 77.163C67.4401 79.4112 67.5354 81.8267 68.5126 83.8408C69.8552 86.5708 72.024 89.0265 73.9306 91.5625C74.2722 92.0175 75.0746 92.2517 75.6863 92.5795C75.8055 92.4591 75.9485 92.3119 76.0756 92.1647C75.0984 90.3982 74.0736 88.6317 73.168 86.8385C70.88 82.3018 70.9992 77.9793 74.7807 73.9846C75.6625 73.0479 76.6079 72.1111 77.1719 71.0271C77.736 69.8829 78.0776 68.5714 78.1252 67.3269C78.1967 65.6608 77.8313 63.9746 77.8313 62.3085C77.8313 62.2282 77.8551 62.1412 77.9028 62.0609C78.2444 61.4587 79.2216 61.4118 79.7062 61.9337C79.8333 62.0609 79.9048 62.2081 79.9286 62.3285C80.1749 63.6802 80.0478 65.0987 80.3655 66.4503C81.0249 69.3008 79.8809 71.6092 77.879 73.7973C76.9018 74.8545 76.0994 76.0188 75.0031 77.4172C79.2454 78.0596 82.8045 77.5377 86.0299 75.711C90.5661 73.1482 93.005 69.2205 95.2691 65.179C96.4925 63.0177 97.5889 60.7895 99.1539 58.8156C101.227 56.1726 103.738 55.6306 107.225 56.7146C109.005 57.2566 110.761 57.8789 112.492 58.5413C116.298 60.0201 116.52 59.9598 119.301 57.377C120.103 56.6276 120.135 56.0856 119.595 55.1957C118.157 52.74 116.909 50.1773 115.543 47.6814C114.224 45.3128 112.985 42.8972 111.444 40.6088C110.347 38.9427 108.544 37.8186 106.201 37.3034C106.518 38.3807 107.154 39.2572 107.615 40.214C107.789 40.5687 107.638 41.1107 107.4 41.4854C107.297 41.6727 106.614 41.753 106.328 41.6527C104.199 40.9032 103.055 37.009 104.667 35.5971C105.907 34.473 107.472 33.5964 108.838 32.5794C110.641 31.2478 111.031 30.3311 110.395 28.4375C109.323 30.9333 107.225 32.1444 104.691 32.847C100.496 34.0314 98.5422 36.6142 98.2006 40.2743C98.002 42.3352 98.5898 43.1247 100.886 43.7738C101.617 43.9812 102.419 44.0615 103.055 44.3961C103.42 44.5834 103.642 45.1856 103.595 45.5804C103.571 45.8079 102.888 46.1224 102.467 46.1625C98.5422 46.4168 95.4677 43.8139 95.8808 40.4415C96.0318 38.6349 96.5879 36.8216 97.0566 34.8276ZM54.2922 92.1847C53.609 91.0205 53.0688 89.8562 52.3379 88.799C50.1453 85.6943 50.6061 82.9308 53.4581 80.2878C54.7768 79.0566 56.0003 77.7049 56.9933 76.273C58.3836 74.3326 57.0728 71.462 54.4829 71.0271C51.4085 70.5052 48.2625 70.2175 45.1404 70.1305C44.3618 70.1104 43.3608 71.0873 42.7491 71.7765C42.5029 72.0709 42.9954 72.9007 43.3132 73.4226C43.6071 73.8776 44.0679 74.2924 44.5048 74.6671C46.9914 76.8083 47.9924 79.3108 46.8722 82.2215C45.9666 84.5501 46.6021 86.5708 48.2625 88.4644C48.9695 89.2741 49.7004 90.1038 50.2168 91.0205C51.0907 92.5193 52.3618 92.7936 54.2922 92.1847ZM90.9553 75.2292C87.4678 76.9154 87.4439 76.9756 88.3655 79.9131C88.5403 80.435 88.6356 80.9703 88.8104 81.4922C89.8352 84.8244 90.296 88.3172 93.0526 91.1476C94.3237 92.4591 95.6425 92.7067 97.5889 92.2517C97.1996 91.7699 96.9771 91.3751 96.6355 91.1275C94.0298 89.2339 92.7587 86.8585 92.4409 83.9479C92.1232 81.0372 91.4638 78.1666 90.9553 75.2292ZM4.54484 56.3198C5.42666 58.6082 7.18236 59.6253 9.54977 59.9398C9.98671 60 10.7414 59.8126 10.94 59.545C11.6947 58.5212 10.4475 56.4403 9.00956 56.3399C7.6193 56.2328 6.18138 56.3198 4.54484 56.3198ZM117.545 32.1645C115.718 34.386 114.129 36.2997 112.445 38.3807C112.739 38.6751 113.152 39.11 113.692 39.6721C116.131 37.5911 117.474 35.3027 117.545 32.1645Z" fill="white"/>
</g>
<path d="M2.38495 132.08C1.38397 132.08 0.891418 131.853 0.891418 131.384V116.182C0.891418 115.72 1.38397 115.486 2.38495 115.486H3.11583C4.08504 115.486 4.57759 115.72 4.57759 116.182V122.284H13.0304V116.182C13.0304 115.72 13.5229 115.486 14.5239 115.486H15.223C16.216 115.486 16.7165 115.72 16.7165 116.182V131.384C16.7165 131.853 16.216 132.08 15.223 132.08H14.5239C13.5229 132.08 13.0304 131.853 13.0304 131.384V124.934H4.57759V131.384C4.57759 131.853 4.08504 132.08 3.11583 132.08H2.38495Z" fill="white"/>
<path d="M20.7132 132.08C19.6963 132.08 19.1879 131.919 19.1879 131.598C19.1879 131.565 19.2196 131.431 19.2832 131.197L25.6069 115.941C25.7102 115.64 26.1868 115.486 27.0369 115.486H28.2762C29.0786 115.486 29.5473 115.64 29.6744 115.941L35.9981 131.197C36.0616 131.357 36.0934 131.491 36.0934 131.598C36.0934 131.919 35.6485 132.08 34.7588 132.08H33.869C33.0587 132.08 32.5979 131.933 32.4708 131.625L31.1679 128.387H24.018L22.7151 131.625C22.588 131.933 22.1829 132.08 21.5076 132.08H20.7132ZM30.1193 125.764L28.0537 120.571C27.9028 120.217 27.7757 119.735 27.6724 119.126H27.5771C27.5532 119.22 27.4976 119.42 27.4182 119.741C27.3546 120.049 27.2593 120.324 27.1322 120.571L25.0349 125.764H30.1193Z" fill="white"/>
<path d="M39.8184 132.08C38.8174 132.08 38.3249 131.853 38.3249 131.384V116.182C38.3249 115.72 38.8174 115.486 39.8184 115.486H40.8035C41.2246 115.486 41.5503 115.533 41.7886 115.62C42.0428 115.693 42.2414 115.834 42.3924 116.048L49.5741 125.255C49.9316 125.723 50.2493 126.192 50.5274 126.674L50.6545 126.647C50.6068 126.292 50.5909 125.764 50.5909 125.068V116.182C50.5909 115.72 51.0835 115.486 52.0845 115.486H52.6882C53.6813 115.486 54.1818 115.72 54.1818 116.182V131.384C54.1818 131.853 53.6813 132.08 52.6882 132.08H51.7985C51.4171 132.08 51.1073 132.04 50.8769 131.973C50.6386 131.886 50.44 131.746 50.2732 131.545L42.9326 122.15C42.5274 121.669 42.2017 121.207 41.9475 120.759L41.8522 120.785C41.8919 121.147 41.9157 121.682 41.9157 122.391V131.384C41.9157 131.853 41.4152 132.08 40.4222 132.08H39.8184Z" fill="white"/>
<path d="M66.5258 132.188C63.6659 132.188 61.4732 131.465 59.9479 130.02C58.4226 128.574 57.6599 126.487 57.6599 123.757C57.6599 121.047 58.4226 118.979 59.9479 117.547C61.4732 116.102 63.6659 115.379 66.5258 115.379C69.3858 115.379 71.5625 116.095 73.0719 117.521C74.5973 118.953 75.3599 121.027 75.3599 123.757C75.3599 126.487 74.5973 128.574 73.0719 130.02C71.5625 131.465 69.3858 132.188 66.5258 132.188ZM66.5258 129.565C68.1782 129.565 69.4255 129.076 70.2755 128.093C71.1415 127.096 71.5784 125.65 71.5784 123.757C71.5784 121.883 71.1415 120.458 70.2755 119.474C69.4255 118.498 68.1782 118.002 66.5258 118.002C64.8734 118.002 63.6102 118.498 62.7443 119.474C61.8704 120.458 61.4414 121.883 61.4414 123.757C61.4414 125.65 61.8704 127.096 62.7443 128.093C63.6102 129.076 64.8734 129.565 66.5258 129.565Z" fill="white"/>
<path d="M84.7029 132.08C83.8528 132.08 83.3841 131.933 83.3047 131.625L77.1081 116.369C77.0604 116.195 77.0446 116.061 77.0446 115.968C77.0446 115.646 77.5371 115.486 78.5381 115.486H79.2372C80.0634 115.486 80.548 115.673 80.6989 116.048L84.9889 127.075L85.2431 128.039H85.3702L85.688 127.075L90.0097 116.048C90.1527 115.673 90.6452 115.486 91.4715 115.486H92.107C93.1239 115.486 93.6323 115.646 93.6323 115.968C93.6323 116.061 93.6005 116.195 93.537 116.369L87.3404 131.625C87.253 131.933 86.7843 132.08 85.9422 132.08H84.7029Z" fill="white"/>
<path d="M97.3419 132.027C96.9764 132.027 96.7143 131.96 96.5474 131.813C96.3727 131.673 96.2932 131.452 96.2932 131.144V116.423C96.2932 116.102 96.3727 115.881 96.5474 115.754C96.7143 115.614 96.9764 115.54 97.3419 115.54H107.129C107.384 115.54 107.558 115.62 107.669 115.781C107.797 115.942 107.86 116.202 107.86 116.557V117.173C107.86 117.534 107.797 117.788 107.669 117.949C107.558 118.109 107.384 118.19 107.129 118.19H99.9476V122.285H106.335C106.589 122.285 106.78 122.365 106.907 122.526C107.034 122.673 107.098 122.927 107.098 123.302V123.891C107.098 124.265 107.034 124.533 106.907 124.694C106.78 124.841 106.589 124.908 106.335 124.908H99.9476V129.377H107.129C107.399 129.377 107.59 129.458 107.701 129.618C107.828 129.779 107.892 130.04 107.892 130.395V131.01C107.892 131.371 107.828 131.626 107.701 131.786C107.59 131.947 107.399 132.027 107.129 132.027H97.3419Z" fill="white"/>
<path d="M112.922 132.081C111.945 132.081 111.46 131.853 111.46 131.385V116.423C111.46 116.122 111.531 115.901 111.682 115.754C111.825 115.614 112.08 115.54 112.445 115.54H117.656C119.984 115.54 121.708 115.908 122.836 116.637C123.956 117.353 124.52 118.431 124.52 119.876C124.52 120.786 124.234 121.576 123.662 122.231C123.09 122.894 122.296 123.382 121.279 123.703V123.81C121.7 123.938 122.089 124.212 122.455 124.64C122.836 125.068 123.17 125.604 123.472 126.246L125.855 131.224C125.919 131.438 125.95 131.572 125.95 131.626C125.95 131.934 125.45 132.081 124.457 132.081H123.599C122.789 132.081 122.312 131.934 122.169 131.626L119.976 127.022C119.635 126.366 119.229 125.911 118.769 125.657C118.324 125.41 117.633 125.282 116.703 125.282H115.114V131.385C115.114 131.853 114.614 132.081 113.621 132.081H112.922ZM118.133 122.633C118.832 122.633 119.444 122.405 119.976 121.937C120.501 121.475 120.771 120.933 120.771 120.304C120.771 119.628 120.516 119.113 120.008 118.752C119.5 118.377 118.808 118.19 117.942 118.19H115.114V122.633H118.133Z" fill="white"/>
</svg>
