<svg width="241" height="133" viewBox="0 0 241 133" fill="none" xmlns="http://www.w3.org/2000/svg">
<path d="M206.463 115.13C206.463 125.712 212.992 132.147 223.573 132.147C234.341 132.147 241 125.665 241 114.99C241 104.512 234.528 98.0303 223.946 98.0303C213.178 98.0303 206.463 104.512 206.463 115.13ZM213.458 115.13C213.458 108.238 216.671 103.531 223.48 103.531C230.335 103.531 234.014 108.005 234.014 114.99C234.014 121.939 230.699 126.599 223.9 126.599C216.998 126.599 213.458 122.126 213.458 115.13Z" fill="white"/>
<path d="M0.00708008 131.913H14.1281V126.692H10.5885V117.185H22.8976V111.918H10.5885V103.484H21.0765V106.464H26.4839V98.2637H0.00708008V103.484H3.6027V126.692H0.00708008V131.913Z" fill="white"/>
<path d="M34.7345 131.913H48.8555V126.692H45.2132V103.484H48.8555V98.2637H34.7345V103.484H38.2274V126.692H34.7345V131.913Z" fill="white"/>
<path d="M57.8505 131.913H85.3453V123.713H79.9846V126.692H68.4225V103.484H71.9248V98.2637H57.8505V103.484H61.4368V126.692H57.8505V131.913Z" fill="white"/>
<path d="M94.5212 131.913H122.352V123.713H116.945V126.692H105.009V117.185H117.645V111.918H105.009V103.484H115.31V106.464H120.718V98.2637H94.5212V103.484H98.0234V126.692H94.5212V131.913Z" fill="white"/>
<path d="M138.378 131.913H152.452V126.692H148.959V103.811H155.114V106.51H160.521V98.2637H130.412V106.51H135.772V103.811H141.964V126.692H138.378V131.913Z" fill="white"/>
<path d="M175.708 131.913H189.782V126.692H186.289V103.811H192.444V106.51H197.852V98.2637H167.742V106.51H173.102V103.811H179.294V126.692H175.708V131.913Z" fill="white"/>
<mask id="mask0_43_977" style="mask-type:luminance" maskUnits="userSpaceOnUse" x="51" y="0" width="142" height="77">
<path d="M51.1816 0H192.242V76.5073H51.1816V0Z" fill="white"/>
</mask>
<g mask="url(#mask0_43_977)">
<mask id="mask1_43_977" style="mask-type:luminance" maskUnits="userSpaceOnUse" x="45" y="-7" width="150" height="96">
<path d="M45.4286 12.1789L183.977 -6.99463L194.539 69.3819L56.0006 88.5555L45.4286 12.1789Z" fill="white"/>
</mask>
<g mask="url(#mask1_43_977)">
<mask id="mask2_43_977" style="mask-type:luminance" maskUnits="userSpaceOnUse" x="45" y="-7" width="150" height="96">
<path d="M45.4286 12.1789L183.977 -6.99463L194.539 69.3819L56.0006 88.5555L45.4286 12.1789Z" fill="white"/>
</mask>
<g mask="url(#mask2_43_977)">
<path fill-rule="evenodd" clip-rule="evenodd" d="M54.8426 62.9936C54.6278 62.2278 54.469 61.602 54.3756 60.9296C54.1795 60.3039 54.2075 59.6875 54.1982 59.1458L52.1622 45.2023L52.0688 45.0342C48.688 35.284 56.8972 31.8004 67.9082 27.2522C71.3451 25.7953 74.9127 24.2916 78.5737 22.4518C85.382 18.9122 88.2118 16.2132 90.6961 13.8036C93.4978 11.1793 96.0194 8.84448 102.361 6.27618C109.571 3.28761 128.053 1.01817 146.041 2.10152C159.321 2.86734 172.321 5.43564 180.596 10.9365C183.351 12.823 185.2 14.915 186.34 17.2125L186.48 17.1938L186.545 17.6514C187.61 19.9582 187.899 22.3397 187.6 24.8053L189.496 37.7122C189.608 37.9923 189.627 38.1698 189.655 38.3472C191.14 45.2116 186.545 52.9258 179.438 59.4727C172.62 65.7954 163.272 71.016 154.707 73.4722C153.745 73.7431 152.821 73.9859 151.952 74.1727C137.71 77.2266 125.513 75.779 112.952 74.3034C106.535 73.4909 100.091 72.7625 93.2644 72.5477C91.7701 72.5757 89.5847 72.6971 87.0351 72.7998C75.7906 73.3415 58.8585 74.2754 54.8426 62.9936ZM72.8394 45.0902C72.8394 45.0902 63.7803 44.754 64.2566 40.9996C64.7049 37.2545 75.1462 32.9585 82.2253 31.623C89.3419 30.2781 90.9295 38.3939 91.6206 42.1577C92.2184 45.912 72.8394 45.0902 72.8394 45.0902ZM94.9734 39.1037C92.2931 35.6762 90.061 29.559 90.7334 27.4857C92.1343 23.4604 98.952 16.6708 106.788 13.813C114.577 10.9365 130.136 9.14333 137.803 10.7497C145.452 12.4775 146.76 19.9115 144.425 20.2384C141.978 20.5746 128.819 19.1831 118.21 20.4719C107.6 21.7513 98.1768 26.9907 101.352 31.3895C104.406 35.7042 118.751 39.8135 115.324 42.3444C111.392 45.3143 99.0921 44.4084 94.9734 39.1037ZM152.961 20.2104C155.539 22.0876 161.562 22.8814 161.198 27.2242C160.918 31.6697 152.709 38.6928 142.211 40.7941C131.808 42.8488 120.274 43.1103 120.227 44.5579C120.068 45.9868 120.563 47.0047 126.988 48.0974C133.461 49.0781 151.924 48.471 166.568 37.9643C181.268 27.4109 177.355 19.7247 174.357 17.6047C172.471 16.2785 161.852 12.9164 154.829 11.8237C145.069 10.2921 146.564 15.3913 152.961 20.2104ZM107.731 28.3822C108.441 26.5517 118.219 23.0682 127.222 23.0869C136.29 22.9841 151.672 24.7866 153.363 26.972C154.138 27.9526 153.68 30.5022 151.495 32.5009C148.74 34.9477 143.678 36.7315 140.428 37.4693C134.516 38.7208 127.203 39.6174 126.269 37.7962C125.391 36.0498 129.043 33.1172 131.387 32.0712C133.638 31.0439 138.569 30.9692 139.232 30.0913C142.305 26.0194 121.338 27.9059 121.413 28.9052C121.488 30.7731 123.916 31.8471 124.308 33.4161C124.71 34.9851 121.478 35.863 120.759 36.3206C119.704 36.909 113.353 35.2933 109.842 32.8184C107.694 31.4175 106.9 30.082 107.731 28.3822ZM66.6288 66.6265C69.2344 66.9254 71.1583 67.4484 73.2316 67.5231C76.2482 67.6445 77.1635 68.6065 73.9601 68.401C71.3918 68.317 69.0196 67.9247 66.6288 66.6265ZM85.5595 67.2616C88.8656 66.9814 92.0036 66.804 96.1128 66.8881C109.253 67.3737 121.105 70.2128 133.806 70.6238C130.313 72.1554 126.886 71.5764 123.187 71.0814C113.39 70.0167 105.583 68.429 95.4684 68.1302C91.7421 67.9901 88.8375 68.0741 85.849 68.1208C82.6643 68.2703 82.1226 67.4484 85.5595 67.2616ZM64.9664 54.6256C67.572 54.8777 69.8975 54.9898 72.0082 55.0552C75.417 55.2326 75.5197 56.7363 72.1389 56.4841C69.6173 56.288 67.2732 55.821 64.9664 54.6256ZM84.4481 54.8871C87.1752 54.7657 89.8929 54.6443 93.1896 54.7283C106.825 55.0085 118.835 58.1745 132.134 58.5761C128.651 60.1451 125.223 59.538 121.516 59.0337C111.467 57.9317 103.668 56.344 93.1896 56.0638C89.9116 56.0078 87.2872 56.0825 84.6255 56.1946C80.9459 56.344 80.591 55.0645 84.4481 54.8871ZM65.5267 58.6602C68.123 58.8469 70.4579 59.0617 72.5685 59.0991C75.7812 59.1925 75.8653 60.556 72.6806 60.4533C70.2804 60.3132 67.8335 59.8556 65.5267 58.6602ZM84.5695 58.875C87.2872 58.6788 89.8929 58.5014 93.1896 58.5854C106.806 58.6882 119.106 62.153 132.695 62.62C129.211 64.1797 125.774 63.5726 122.085 63.1056C112.027 61.9756 103.715 60.0891 93.2737 60.0237C90.089 59.921 87.4647 59.9957 84.8123 60.1077C81.5529 60.2011 81.1513 59.0991 84.5695 58.875ZM66.0871 62.7041C68.7955 62.9375 71.1957 63.0776 73.3063 63.143C76.1642 63.1804 76.2482 64.6186 73.4838 64.4505C70.9061 64.3384 68.4779 63.9929 66.0871 62.7041ZM85.2793 62.7134C87.8943 62.5359 90.4439 62.4706 93.5352 62.4052C106.545 62.4799 119.666 66.225 133.255 66.6546C129.772 68.2236 126.335 67.6072 122.646 67.1496C112.952 66.0755 103.173 63.8528 93.5539 63.8061C90.4532 63.8061 87.9129 63.9742 85.2886 64.0489C81.9732 64.2544 81.6276 63.0403 85.2793 62.7134ZM69.6267 31.4175C60.7637 35.0225 54.2822 37.8336 56.3182 43.5492C59.204 51.8145 74.3056 51.0953 84.308 50.507C86.8576 50.4042 89.043 50.2828 90.9015 50.3108C97.906 50.4976 104.462 51.2915 110.897 52.0199C123.131 53.4675 134.983 54.9338 148.637 52.0013C157.042 50.1894 166.708 44.9127 173.816 38.6554C177.477 35.2653 180.446 31.7444 181.997 28.2888C183.407 25.1322 183.799 22.0409 182.436 19.3792C181.67 17.6794 180.25 16.1758 178.205 14.7656C170.594 9.72237 158.331 7.3035 145.882 6.60305C128.427 5.5197 110.785 7.70508 104.107 10.3948C98.4103 12.739 96.1969 14.7376 93.7874 17.1284C91.0696 19.6407 88.025 22.5919 80.5069 26.4116C76.8179 28.3262 73.0542 29.9326 69.6267 31.4175Z" fill="white"/>
</g>
</g>
</g>
</svg>
