<svg width="178" height="133" viewBox="0 0 178 133" fill="none" xmlns="http://www.w3.org/2000/svg">
<mask id="mask0_43_1020" style="mask-type:luminance" maskUnits="userSpaceOnUse" x="49" y="15" width="90" height="56">
<path d="M49.0635 15.3335H138.101V70.4519H49.0635V15.3335Z" fill="white"/>
</mask>
<g mask="url(#mask0_43_1020)">
<path d="M57.8303 15.3335C57.58 15.3335 57.212 15.5102 56.7335 15.8708L55.8208 16.5996C53.7008 18.4472 52.501 19.463 52.236 19.647C51.4558 20.2506 50.9037 20.5892 50.5798 20.6628C50.4915 20.6996 50.4179 20.7143 50.3443 20.7143C50.1455 20.7143 49.991 20.5892 49.8879 20.3315C49.7849 20.096 49.7039 19.7132 49.6597 19.1832L49.5861 18.0276C49.5787 17.9393 49.6082 17.8509 49.6524 17.7773C49.5861 17.7405 49.5199 17.7184 49.4389 17.7184C49.3947 17.7184 49.3432 17.7258 49.2917 17.7405C49.3653 17.8436 49.3947 17.9245 49.3947 17.9761C49.2328 18.8005 49.1665 19.4703 49.1886 19.9709C49.2033 20.361 49.2917 20.6922 49.461 20.9646C49.7039 21.3253 50.0498 21.5019 50.4915 21.5019C50.7933 21.5019 51.1466 21.421 51.5367 21.2517C52.2581 21.0014 53.9143 19.9341 56.5053 18.0644C54.7976 21.5755 54.8565 24.461 56.6967 26.7134C56.763 26.787 56.8292 26.868 56.9028 26.9416C57.6095 27.9869 58.4118 28.907 59.3246 29.6946C59.9723 30.416 60.7599 31.2478 61.6874 32.1973C61.7242 32.2415 61.7684 32.2856 61.8126 32.3298C60.9808 33.5664 60.252 35.0312 59.6411 36.7243C59.3467 37.821 59.251 39.065 59.3614 40.4489C59.3835 41.5604 59.7515 43.3417 60.4581 45.7929C60.5391 46.3449 60.5391 46.9706 60.4361 47.6625C60.252 48.8108 59.9282 49.7383 59.4718 50.4523C59.1626 51.0265 58.3161 51.8583 56.9249 52.9403C56.7335 53.1464 56.5937 53.4261 56.5053 53.7868C56.3581 54.0076 56.3876 55.3473 56.5863 57.8059L56.3434 59.5504C55.6147 62.7818 54.7682 65.1373 53.7892 66.6316C53.7671 66.7493 54.0174 66.8303 54.5253 66.8818C54.5474 68.0669 54.459 68.8472 54.2529 69.23L54.8712 69.9587C55.0773 70.2016 55.7251 70.3488 56.8292 70.4077L58.6106 70.4445C59.1185 70.312 59.3687 70.1942 59.3761 70.0986C59.6264 70.0691 59.251 69.4582 58.2352 68.2731C58.11 68.0154 58.0585 67.7578 58.0732 67.4928C58.3235 64.4969 58.8756 61.9059 59.7294 59.705C60.8262 57.8132 61.6064 56.6796 62.0775 56.2969H62.0702C61.9377 56.2969 63.4467 55.0676 66.5971 52.6091C66.0672 53.4777 65.8316 54.2505 65.8905 54.913C66.818 57.0182 67.3995 60.9858 67.6497 66.8082C67.6792 66.8818 67.7454 66.926 67.8632 66.9407C68.0399 66.8818 68.1871 66.845 68.2975 66.845C68.4226 66.845 68.5036 66.8892 68.5478 66.9702C69.2176 67.7946 69.4458 68.3246 69.2176 68.5601C69.2176 68.6117 69.3207 68.6411 69.512 68.6411C69.5562 68.6411 69.6077 68.6411 69.6593 68.6337C69.5709 68.8546 69.6887 69.0239 70.0126 69.1416C70.5941 69.2815 71.1535 69.3551 71.7056 69.3551C72.53 69.3551 73.3103 69.1932 74.0537 68.8619C72.3902 67.7799 71.3449 66.5432 70.9327 65.1668C70.7119 64.7913 70.6383 63.6136 70.7119 61.6335L70.2923 60.4337C70.2629 60.1687 70.4027 59.6093 70.7119 58.7554C71.2639 57.1581 71.8896 56.0834 72.5815 55.5313C74.0022 54.4714 75.3272 53.3083 76.5491 52.0349C77.344 51.4166 78.5291 50.9676 80.1044 50.6879C80.3915 50.5554 80.6859 50.1505 80.9877 49.466C84.7859 49.5764 87.7818 49.7972 89.9827 50.1358C90.5716 50.2315 91.0206 50.3419 91.3371 50.4597C91.6978 50.5627 92.0217 50.7762 92.3235 51.1001C92.9859 51.1884 93.354 51.3135 93.4202 51.4681C93.6484 51.6742 93.884 52.0644 94.1195 52.6532C95.0028 55.5093 96.0039 58.196 97.1228 60.7134C97.3804 61.4569 97.5865 63.3118 97.7411 66.2856C97.7852 66.2709 97.822 66.2635 97.8662 66.2635C98.3079 66.2635 98.7937 67.191 99.331 69.0386C100.744 69.4582 101.701 69.7158 102.202 69.8041C102.349 69.8409 102.489 69.863 102.629 69.863C102.805 69.863 102.967 69.8262 103.122 69.7673C103.895 69.4066 104.204 69.1269 104.049 68.9134L101.782 66.8671C100.693 64.3718 100.104 62.8039 100.016 62.1709C99.7948 61.3538 99.8757 60.1834 100.273 58.6597C99.9273 58.3506 99.7506 56.4883 99.7506 53.0875C100.332 52.9918 100.641 52.8446 100.678 52.6532C104.145 55.7963 105.706 57.4452 105.382 57.5924C105.573 57.8353 105.389 59.0057 104.822 61.1035C104.336 61.7881 104.16 62.1856 104.292 62.3107C104.278 62.3107 104.263 62.3034 104.255 62.3034C103.998 62.3034 103.527 62.8113 102.857 63.8123L103.166 66.5506C103.166 66.6389 103.218 66.6905 103.328 66.7052C103.276 66.5653 104.565 65.3434 107.178 63.0542C107.656 62.561 107.929 62.0973 107.995 61.6777C107.568 59.6682 107.708 57.6292 108.414 55.5461C108.363 55.2222 108.267 54.8909 108.127 54.5671C107.222 53.0286 106.626 51.7037 106.361 50.5922C106.986 50.6732 107.553 50.7173 108.061 50.7173C108.716 50.7173 109.268 50.6437 109.703 50.5039C110.63 50.2757 111.845 49.4071 113.361 47.8907L114.421 48.0232L114.885 47.9643L115.135 48.4207C115.017 49.3629 115.039 49.9812 115.216 50.2904C115.797 51.4534 116.254 52.0349 116.57 52.0423C116.695 52.8741 116.894 53.3452 117.159 53.4629C117.424 53.6249 117.645 53.7058 117.829 53.7058C117.844 53.7058 117.851 53.7058 117.858 53.7058C117.873 53.7058 117.88 53.7058 117.895 53.7058C118.19 53.7058 118.484 53.5881 118.779 53.3452C119.713 53.5586 120.464 53.669 121.038 53.669C121.502 53.669 121.841 53.6028 122.076 53.4629C122.268 53.3746 122.466 53.1538 122.687 52.8004C123.467 50.9676 124.145 49.6058 124.704 48.7152C125.028 48.1631 125.668 47.3092 126.611 46.1315C127.56 44.9611 128.215 44.2324 128.583 43.96C128.826 43.6656 129.319 43.5036 130.063 43.4595C130.217 43.4006 130.357 43.2607 130.475 43.0399C130.725 41.4058 130.357 40.0367 129.378 38.9252C129.481 38.8295 131.528 38.3952 135.517 37.6223C136.113 37.4677 136.673 37.0408 137.203 36.3415C137.203 36.1869 137.166 36.1133 137.085 36.1133C137.063 36.1133 137.034 36.1207 137.004 36.128C136.172 36.4151 135.355 36.5623 134.553 36.5623C134.369 36.5623 134.192 36.555 134.023 36.5402C132.698 36.4593 131.395 36.2605 130.107 35.9366C130.791 35.4287 131.388 35.046 131.91 34.7957C134.222 34.067 135.679 33.4855 136.297 33.0585C137.225 32.5359 137.799 31.925 138.02 31.2257L137.954 31.1741L135.856 31.7115C131.631 32.3592 129.275 32.8009 128.782 33.0291C127.685 33.3309 126.669 33.9566 125.735 34.9061C121.318 29.4811 118.168 26.3528 116.283 25.521L113 23.747L107.215 21.4946C105.095 20.7658 103.247 20.3831 101.672 20.3389C101.473 20.3315 101.274 20.3315 101.076 20.3315C99.3531 20.3315 97.7852 20.545 96.3793 20.9793L92.213 22.7238L87.2812 24.2843L84.2559 25.7639C83.6008 26.0068 82.9089 26.2129 82.1801 26.3675C76.9613 27.3612 72.4785 27.8617 68.7318 27.8617C68.4153 27.8617 68.1061 27.8544 67.8043 27.847C67.3038 27.8985 66.7738 28.0605 66.1996 28.3402C65.4783 28.6935 64.8011 29.1352 64.168 29.6652C62.7474 29.0248 61.6506 28.4432 60.8851 27.9353C59.5233 27.0594 58.5664 26.1982 58.0143 25.3296C57.5212 24.6009 57.3445 23.666 57.477 22.5325C57.6463 21.443 57.7861 20.6996 57.9113 20.3021C58.007 19.8752 58.3456 18.8373 58.9344 17.1958C59.0449 16.813 59.089 16.6069 59.0743 16.5554C58.905 15.834 58.5002 15.4218 57.8745 15.3335H57.845C57.8377 15.3335 57.8377 15.3335 57.8303 15.3335Z" fill="#AB7729"/>
</g>
<mask id="mask1_43_1020" style="mask-type:luminance" maskUnits="userSpaceOnUse" x="94" y="0" width="16" height="12">
<path d="M94.657 0H109.732V11.9983H94.657V0Z" fill="white"/>
</mask>
<g mask="url(#mask1_43_1020)">
<path d="M102.011 0L103.873 3.7467L108.054 4.35029L105.029 7.27256L105.743 11.402L102.011 9.45139L98.2712 11.402L98.9852 7.27256L95.9673 4.35029L100.141 3.7467L102.011 0Z" fill="#AB7729"/>
</g>
<mask id="mask2_43_1020" style="mask-type:luminance" maskUnits="userSpaceOnUse" x="107" y="4" width="12" height="11">
<path d="M107.848 4.46094H118.97V14.1332H107.848V4.46094Z" fill="white"/>
</mask>
<g mask="url(#mask2_43_1020)">
<path d="M114.782 4.9834L115.79 8.06025L118.918 8.98773L116.276 10.8942L116.357 14.133L113.714 12.2192L110.63 13.3012L111.646 10.217L109.658 7.64068L112.927 7.64804L114.782 4.9834Z" fill="#AB7729"/>
</g>
<mask id="mask3_43_1020" style="mask-type:luminance" maskUnits="userSpaceOnUse" x="85" y="4" width="10" height="11">
<path d="M85.051 4.46094H94.6569V14.1332H85.051V4.46094Z" fill="white"/>
</mask>
<g mask="url(#mask3_43_1020)">
<path d="M89.232 4.9834L88.2309 8.06025L85.0951 8.98773L87.7451 10.8942L87.6641 14.133L90.3066 12.2192L93.3909 13.3012L92.3751 10.217L94.3551 7.64068L91.0869 7.64804L89.232 4.9834Z" fill="#AB7729"/>
</g>
<path d="M0.319946 83.4634V109.263H7.14349V100.931H12.4507C17.2058 100.931 21.0703 97.0295 21.0703 92.2008C21.0703 87.372 17.2058 83.4634 12.4507 83.4634H0.319946ZM7.14349 97.6184V86.7831H10.4927C12.1563 86.7831 13.5548 89.2122 13.5548 92.2008C13.5548 95.1819 12.1563 97.6184 10.4927 97.6184H7.14349Z" fill="white"/>
<path d="M23.2832 109.263H27.155L29.4001 102.558H37.1806L39.3888 109.263H46.6172L37.5854 83.4634H32.315L23.2832 109.263ZM33.2719 90.7948L36.0764 99.2378H30.5116L33.2719 90.7948Z" fill="white"/>
<path d="M64.0459 106.238C59.806 106.275 56.8984 102.263 56.8984 96.2936C56.8984 90.3534 59.7324 86.4889 64.1195 86.4889C66.2615 86.4889 68.1385 87.3722 69.7211 89.102L72.268 86.3049C70.3836 84.2365 66.6663 82.8379 63.0153 82.8379C55.4263 82.8379 49.3756 88.8076 49.3756 96.3304C49.3756 103.846 55.3821 109.889 62.8681 109.889C67.1448 109.889 70.7516 107.939 72.5992 104.656L69.8315 102.742C68.3593 105.024 66.3719 106.238 64.0459 106.238Z" fill="white"/>
<path d="M83.25 94.7403V83.4634H76.4633V109.263H83.25V98.1336H91.1703V109.263H97.9571V83.4634H91.1703V94.7403H83.25Z" fill="white"/>
<path d="M109.933 98.0232H115.572V94.7035H109.933V86.7831H120.364V83.4634H103.11V109.263H121.1V105.944H109.933V98.0232Z" fill="white"/>
<path d="M138.899 106.238C134.659 106.275 131.752 102.263 131.752 96.2936C131.752 90.3534 134.586 86.4889 138.973 86.4889C141.115 86.4889 142.992 87.3722 144.575 89.102L147.121 86.3049C145.237 84.2365 141.52 82.8379 137.869 82.8379C130.28 82.8379 124.229 88.8076 124.229 96.3304C124.229 103.846 130.236 109.889 137.722 109.889C141.998 109.889 145.605 107.939 147.453 104.656L144.685 102.742C143.213 105.024 141.225 106.238 138.899 106.238Z" fill="white"/>
<path d="M163.889 82.8379C156.55 82.8379 150.581 88.8812 150.581 96.3672C150.581 103.809 156.55 109.889 163.889 109.889C171.221 109.889 177.19 103.809 177.19 96.3672C177.19 88.8812 171.221 82.8379 163.889 82.8379ZM163.889 106.238C160.717 106.238 158.103 101.822 158.103 96.3672C158.103 90.9128 160.717 86.4889 163.889 86.4889C167.091 86.4889 169.675 90.9128 169.675 96.3672C169.675 101.822 167.091 106.238 163.889 106.238Z" fill="white"/>
<path d="M17.8766 132.211C17.111 132.211 16.4412 132.027 15.8744 131.652C15.3003 131.262 14.8586 130.732 14.5494 130.062C14.255 129.377 14.1078 128.605 14.1078 127.736C14.1078 126.875 14.255 126.109 14.5494 125.439C14.8586 124.755 15.2929 124.225 15.845 123.849C16.3897 123.481 17.0301 123.29 17.7588 123.29C18.1857 123.29 18.5979 123.364 18.9954 123.496C19.3856 123.636 19.7315 123.842 20.026 124.114L19.7021 124.703C19.1868 124.173 18.5391 123.908 17.7588 123.908C17.1699 123.908 16.6473 124.085 16.1983 124.438C15.7419 124.777 15.4033 125.233 15.1678 125.822C14.9322 126.396 14.8144 127.029 14.8144 127.736C14.8144 128.465 14.9322 129.12 15.1678 129.709C15.418 130.298 15.7861 130.769 16.2572 131.122C16.7283 131.461 17.273 131.623 17.906 131.623C18.2593 131.623 18.5979 131.564 18.9365 131.446C19.2678 131.313 19.5549 131.115 19.7904 130.857L20.2615 131.299C19.9229 131.593 19.5549 131.821 19.1426 131.976C18.7304 132.13 18.3035 132.211 17.8766 132.211Z" fill="white"/>
<path d="M28.716 123.672C28.7749 123.496 28.8412 123.378 28.9221 123.319C28.9957 123.245 29.0988 123.201 29.2166 123.201C29.3711 123.201 29.4889 123.231 29.5699 123.29C29.6435 123.348 29.6877 123.429 29.6877 123.525C29.6877 123.584 29.6582 123.658 29.5993 123.731L32.4848 132.093H31.7781L30.9832 129.679H27.3322L26.5077 132.093H25.8011L28.716 123.672ZM30.7771 129.119L29.1577 124.114L27.5383 129.119H30.7771Z" fill="white"/>
<path d="M41.0727 132.211C40.4249 132.211 39.8434 132.101 39.3355 131.888C38.8202 131.674 38.3933 131.402 38.04 131.063L38.4816 130.592C39.203 131.284 40.0716 131.623 41.0727 131.623C41.6984 131.623 42.1768 131.497 42.5154 131.24C42.8467 130.967 43.016 130.592 43.016 130.121C43.016 129.768 42.9423 129.488 42.8099 129.267C42.6921 129.054 42.4713 128.855 42.1621 128.678C41.8456 128.502 41.3671 128.31 40.7194 128.089C39.8729 127.78 39.2545 127.434 38.8644 127.059C38.4669 126.669 38.2755 126.168 38.2755 125.557C38.2755 124.851 38.489 124.306 38.9233 123.908C39.3723 123.496 40.0201 123.29 40.8666 123.29C41.8088 123.29 42.6332 123.555 43.3398 124.085L42.9865 124.586C42.3756 124.137 41.6689 123.908 40.8666 123.908C40.2188 123.908 39.733 124.048 39.4238 124.321C39.1073 124.578 38.9527 124.983 38.9527 125.528C38.9527 125.903 39.0411 126.205 39.2177 126.441C39.3944 126.676 39.6373 126.875 39.9538 127.029C40.263 127.191 40.6973 127.368 41.2493 127.559C41.8382 127.758 42.3093 127.972 42.6626 128.207C43.016 128.428 43.281 128.693 43.4576 129.002C43.6343 129.297 43.7226 129.672 43.7226 130.121C43.7226 130.754 43.4871 131.262 43.016 131.652C42.5596 132.027 41.9118 132.211 41.0727 132.211Z" fill="white"/>
<path d="M52.1895 123.672C52.2484 123.496 52.3147 123.378 52.3956 123.319C52.4692 123.245 52.5723 123.201 52.6901 123.201C52.8446 123.201 52.9624 123.231 53.0434 123.29C53.117 123.348 53.1612 123.429 53.1612 123.525C53.1612 123.584 53.1317 123.658 53.0728 123.731L55.9583 132.093H55.2517L54.4567 129.679H50.8057L49.9813 132.093H49.2746L52.1895 123.672ZM54.2506 129.119L52.6312 124.114L51.0118 129.119H54.2506Z" fill="white"/>
<path d="M69.3484 124.261C69.3484 124.165 69.3263 124.084 69.2895 124.026C69.2453 123.967 69.2012 123.9 69.1423 123.819C69.0834 123.761 69.0392 123.724 69.0245 123.702C69.0245 123.665 69.0245 123.628 69.0245 123.584C69.0392 123.51 69.0907 123.429 69.1717 123.348C69.2674 123.253 69.3631 123.201 69.4661 123.201C69.5398 123.201 69.6502 123.275 69.79 123.407H71.4978C72.6902 123.407 73.625 123.783 74.2949 124.526C74.9795 125.277 75.3254 126.344 75.3254 127.735C75.3254 129.171 75.0015 130.26 74.3538 131.004C73.706 131.732 72.7712 132.093 71.5566 132.093H69.3484V124.261ZM71.5566 131.534C73.5956 131.534 74.6188 130.268 74.6188 127.735C74.6188 126.499 74.3391 125.571 73.7944 124.938C73.2423 124.313 72.4547 123.996 71.4389 123.996H69.9961V131.534H71.5566Z" fill="white"/>
<path d="M81.3206 124.261C81.3206 124.165 81.2985 124.084 81.2617 124.026C81.2396 123.967 81.1881 123.9 81.1145 123.819C81.0703 123.761 81.0409 123.724 81.0262 123.702C81.0041 123.665 81.0041 123.628 81.0262 123.584C81.0409 123.51 81.0924 123.429 81.1734 123.348C81.247 123.253 81.3353 123.201 81.4384 123.201C81.4752 123.201 81.5267 123.223 81.5856 123.26C81.6592 123.304 81.7181 123.348 81.7623 123.407H85.8255V123.996H81.9978V127.264H84.7949V127.824H81.9978V131.534H85.9432V132.093H81.3206V124.261Z" fill="white"/>
<path d="M102.898 132.211C102.133 132.211 101.463 132.027 100.896 131.652C100.322 131.262 99.8801 130.732 99.5709 130.062C99.2765 129.377 99.1293 128.605 99.1293 127.736C99.1293 126.875 99.2765 126.109 99.5709 125.439C99.8801 124.755 100.314 124.225 100.866 123.849C101.411 123.481 102.052 123.29 102.78 123.29C103.207 123.29 103.619 123.364 104.017 123.496C104.407 123.636 104.753 123.842 105.047 124.114L104.724 124.703C104.208 124.173 103.561 123.908 102.78 123.908C102.191 123.908 101.669 124.085 101.22 124.438C100.763 124.777 100.425 125.233 100.189 125.822C99.9537 126.396 99.8359 127.029 99.8359 127.736C99.8359 128.465 99.9537 129.12 100.189 129.709C100.44 130.298 100.808 130.769 101.279 131.122C101.75 131.461 102.294 131.623 102.927 131.623C103.281 131.623 103.619 131.564 103.958 131.446C104.289 131.313 104.576 131.115 104.812 130.857L105.283 131.299C104.944 131.593 104.576 131.821 104.164 131.976C103.752 132.13 103.325 132.211 102.898 132.211Z" fill="white"/>
<path d="M113.738 123.672C113.796 123.496 113.863 123.378 113.944 123.319C114.017 123.245 114.12 123.201 114.238 123.201C114.393 123.201 114.511 123.231 114.591 123.29C114.665 123.348 114.709 123.429 114.709 123.525C114.709 123.584 114.68 123.658 114.621 123.731L117.506 132.093H116.8L116.005 129.679H112.354L111.529 132.093H110.823L113.738 123.672ZM115.799 129.119L114.179 124.114L112.56 129.119H115.799Z" fill="white"/>
<path d="M123.385 124.291C123.385 124.195 123.363 124.114 123.326 124.055C123.282 123.981 123.238 123.9 123.179 123.819C123.135 123.783 123.106 123.746 123.091 123.702C123.069 123.665 123.061 123.628 123.061 123.584C123.076 123.51 123.128 123.429 123.209 123.348C123.282 123.253 123.385 123.201 123.503 123.201C123.54 123.201 123.591 123.223 123.65 123.26C123.709 123.304 123.768 123.348 123.827 123.407H125.594C127.691 123.407 128.744 124.261 128.744 125.969C128.744 126.756 128.494 127.353 128.008 127.765C127.515 128.162 126.904 128.376 126.182 128.413L128.567 132.093H127.772L125.417 128.413H124.033V132.093H123.385V124.291ZM125.652 127.853C126.477 127.853 127.073 127.706 127.448 127.412C127.839 127.102 128.037 126.617 128.037 125.969C128.037 125.321 127.839 124.835 127.448 124.497C127.051 124.165 126.447 123.996 125.623 123.996H124.033V127.853H125.652Z" fill="white"/>
<path d="M134.666 124.232C134.666 124.136 134.644 124.055 134.608 123.996C134.586 123.923 134.549 123.849 134.49 123.79C134.431 123.731 134.401 123.672 134.401 123.613C134.401 123.54 134.438 123.451 134.519 123.348C134.615 123.253 134.725 123.201 134.843 123.201C134.961 123.201 135.057 123.275 135.138 123.407L139.701 130.798V123.407H140.379V132.093H139.79L135.344 124.909V132.093H134.666V124.232Z" fill="white"/>
<path d="M146.685 124.261C146.685 124.165 146.663 124.084 146.626 124.026C146.604 123.967 146.553 123.9 146.479 123.819C146.435 123.761 146.405 123.724 146.391 123.702C146.369 123.665 146.369 123.628 146.391 123.584C146.405 123.51 146.457 123.429 146.538 123.348C146.612 123.253 146.7 123.201 146.803 123.201C146.84 123.201 146.891 123.223 146.95 123.26C147.024 123.304 147.083 123.348 147.127 123.407H151.19V123.996H147.362V127.264H150.16V127.824H147.362V131.534H151.308V132.093H146.685V124.261Z" fill="white"/>
<path d="M160.015 132.211C159.368 132.211 158.786 132.101 158.278 131.888C157.763 131.674 157.336 131.402 156.983 131.063L157.424 130.592C158.146 131.284 159.014 131.623 160.015 131.623C160.641 131.623 161.12 131.497 161.458 131.24C161.789 130.967 161.959 130.592 161.959 130.121C161.959 129.768 161.885 129.488 161.753 129.267C161.635 129.054 161.414 128.855 161.105 128.678C160.788 128.502 160.31 128.31 159.662 128.089C158.816 127.78 158.197 127.434 157.807 127.059C157.41 126.669 157.218 126.168 157.218 125.557C157.218 124.851 157.432 124.306 157.866 123.908C158.315 123.496 158.963 123.29 159.809 123.29C160.752 123.29 161.576 123.555 162.283 124.085L161.929 124.586C161.318 124.137 160.612 123.908 159.809 123.908C159.162 123.908 158.676 124.048 158.367 124.321C158.05 124.578 157.896 124.983 157.896 125.528C157.896 125.903 157.984 126.205 158.161 126.441C158.337 126.676 158.58 126.875 158.897 127.029C159.206 127.191 159.64 127.368 160.192 127.559C160.781 127.758 161.252 127.972 161.605 128.207C161.959 128.428 162.224 128.693 162.4 129.002C162.577 129.297 162.665 129.672 162.665 130.121C162.665 130.754 162.43 131.262 161.959 131.652C161.502 132.027 160.855 132.211 160.015 132.211Z" fill="white"/>
</svg>
