<svg width="874" height="162" viewBox="0 0 874 162" fill="none" xmlns="http://www.w3.org/2000/svg">
<mask id="mask0_141_2" style="mask-type:luminance" maskUnits="userSpaceOnUse" x="0" y="43" width="300" height="62">
<path d="M0 43H300V104.422H0V43Z" fill="white"/>
</mask>
<g mask="url(#mask0_141_2)">
<path fill-rule="evenodd" clip-rule="evenodd" d="M180.129 95.2383C180.168 95.1563 180.207 95.0742 180.242 94.9922C187.449 94.4727 194.996 91.9532 201.937 89.5C201.902 90.125 201.844 90.7344 201.805 91.1836C201.703 92.2813 201.582 93.3867 201.543 94.4883C201.527 94.8555 201.551 95.2266 201.602 95.5899C201.934 97.8399 203.449 99.7071 205.164 101.098C206.734 102.375 209.785 104.172 211.867 104.172H219.945C220.973 104.172 221.605 103.91 222.258 103.375C222.324 103.438 222.387 103.496 222.426 103.535C223.156 104.234 224.203 104.379 225.094 103.902C225.984 103.426 226.453 102.477 226.285 101.477C225.766 98.4063 222.445 96.3125 219.539 96.0117C219.484 96.0078 219.437 96.0039 219.379 96.0039C218.375 95.9688 217.211 95.6563 216.273 95.3008C215.645 95.0625 213.703 94.1641 213.406 93.4766C213.383 90.6836 214.574 87.7344 215.383 85.0508C215.785 84.918 216.187 84.8047 216.594 84.7149C218.23 88.5196 221.07 91.793 225.051 94.0782C227.164 95.2969 228.711 96.7266 230.258 98.5899C231.562 100.156 232.77 101.891 234.523 102.992C235.836 103.816 237.258 104.172 238.801 104.172H250.527C251.594 104.172 252.582 103.891 253.473 103.301C253.668 103.172 253.832 103.039 253.988 102.902C254.344 103.023 254.492 103.273 255.055 103.723C255.93 104.414 257.141 104.387 257.984 103.66C258.828 102.93 259.031 101.727 258.477 100.758C257.098 98.3438 255.734 95.8633 252.66 95.543C251.258 95.3985 246.672 95.0235 245.625 93.8907C245.477 93.7266 245.352 93.5391 245.238 93.3516C244.781 92.586 244.391 91.793 243.914 91.0274C242.879 89.3555 241.66 87.7657 240.418 86.2461C238.457 83.8399 236.621 82.336 233.93 81.2617C233.949 80.7696 234.02 80.1328 234.094 79.5899C234.234 79.5821 234.375 79.586 234.523 79.5977C235.523 79.6836 236.723 80.2071 237.664 80.5625C239.242 81.1524 240.738 81.6016 242.422 81.6446C246.969 82.6016 251.23 82.4063 255.629 80.8242C260.574 79.0469 265.059 75.7696 269.566 73.0977C269.926 72.8828 270.207 72.5938 270.398 72.2539C272.953 71.9766 275.488 71.6563 277.934 71.5352C285.051 71.1797 295.848 71.5782 299.07 63.6719C299.441 62.7618 299.402 61.7578 298.969 60.9024C299.648 60.0235 300 58.9727 299.973 57.7071C299.938 56.2969 299.504 55.0039 298.438 54.0469C297.441 53.1524 296.277 52.8711 295.035 52.5157C293.84 52.1719 292.664 52.1485 291.453 52.4024C289.609 52.7852 287.824 53.8907 285.938 53.8125C284.168 53.7344 282.367 53.6641 280.617 53.3985C278.227 53.0352 275.992 52.2578 273.754 51.3633C273.191 51.125 271.652 49.6407 271.125 49.1836C270.242 48.418 269.281 47.6485 268.227 47.1368C266.293 46.1993 264.199 45.4297 262.191 46.7422C258.305 49.2891 255.383 47.9453 251.289 46.7696C251 46.6875 250.336 46.5157 250.074 46.3477C249.461 45.9493 248.949 45.5703 248.293 45.1993C246.918 44.4258 245.289 44.4375 243.773 44.6407C243.117 44.7305 242.473 44.8555 241.824 44.9766C241.664 45.0078 241.437 45.0547 241.227 45.0899C241.059 44.9414 240.891 44.793 240.695 44.6524C239.961 44.1368 239.148 43.8321 238.246 43.7852C237.098 43.7305 236.094 44.0586 235.305 44.9219C235.262 44.9649 235.223 45.0118 235.184 45.0547C235.121 45.0547 235.059 45.0508 235.008 45.0508C234.996 45.0508 234.98 45.0469 234.965 45.0469C234.066 43.668 232.906 43.2305 231.191 43.125C230.457 43.0782 229.75 43.3008 229.195 43.7891C228.777 44.1563 228.586 44.4883 228.441 44.8711C227.488 44.4532 226.945 44.2891 225.746 44.2891C224.969 44.2891 224.395 44.5743 223.973 45.0352C223.547 44.8946 223.137 44.6719 222.781 44.4688C221.598 43.793 220.398 42.9297 218.957 43.1368C212.668 44.0274 206.371 44.5899 200.027 44.9141C194.34 45.2071 188.648 45.3125 182.957 45.4766C173.586 45.7422 164.449 46.2618 155.168 47.711C143.012 49.6094 131.207 52.9063 119.617 57.0235C118.555 57.3985 117.25 57.8789 116.207 58.4805C115.699 58.4063 115.305 58.3555 114.676 58.543C113.988 58.7461 113.375 59.0625 112.75 59.4102C112.449 59.5782 111.75 60 111.402 60.0274C111.199 60.0391 110.996 60.0508 110.793 60.0703C110.391 60.1094 110.016 60.2305 109.687 60.4258C109.363 60.3633 109.047 60.336 108.578 60.4102C107.812 60.5352 107.137 60.8321 106.516 61.293C106.301 61.4532 106.094 61.6485 105.883 61.8164C104.832 61.7813 103.871 61.9453 102.91 62.3985C102.008 62.8164 101.227 63.4414 100.352 63.9102C100.078 63.9961 99.5469 64.0313 99.2656 64.0625C98.5703 64.1446 97.8789 64.2539 97.2226 64.5274C96.2695 64.9219 95.414 65.4297 94.539 65.9727C94.2734 66.1328 93.6289 66.5586 93.3437 66.6368C92.2422 66.8907 91.3672 67.1602 90.375 67.7032C89.8711 67.9805 89.3867 68.0899 88.8281 68.211C87.418 68.5157 86.539 68.8164 85.3828 69.6602C85.3711 69.668 85.3555 69.6758 85.3437 69.6875C85.0703 69.8008 84.3008 69.8633 84.0156 69.8868C83.7734 69.9102 83.5703 69.9571 83.3437 70.0469L79.75 71.5039C79.6953 71.5274 79.6445 71.5469 79.5898 71.5743C77.9062 72.4141 74.6914 73.5782 72.8047 73.4219C72.2578 73.375 71.7734 73.5039 71.3164 73.8164C70.6015 74.3125 69.4765 74.6953 68.6406 74.918C68.0156 75.086 66.2734 75.4492 65.6719 75.2578C63.8125 74.4649 61.2422 73.8946 59.4453 75.086C58.6562 74.8672 57.9961 74.8477 57.0234 75.1172C56.1758 75.3516 55.7266 75.6446 55.1992 76.1172C54.0703 75.8633 53.1289 75.6602 51.9648 76.2774C51.6094 76.4649 51.3281 76.7032 51.1016 76.9844C50.8516 76.8789 50.5703 76.7969 50.2187 76.75C49.2695 76.6172 48.3711 76.8867 47.6016 77.4532C47.2383 77.7188 46.9375 78.0508 46.7148 78.4297C46.2812 78.2266 45.8008 78.1094 45.2539 78.1328C44.7695 78.1485 44.3008 78.2891 43.8789 78.5274C43.6445 78.6641 43.4297 78.8282 43.2422 79.0235C42.8633 78.9453 42.457 78.9571 42.0234 79.0821C40.9062 79.3946 40.2656 80.1875 39.8281 81.1211C39.6758 81.0821 39.5234 81.043 39.3633 81.0196C38.5625 80.8789 37.7773 80.9844 37.0351 81.3282C36.5078 81.5703 36.1328 81.8594 35.8398 82.1992C35.4492 82.0821 35.0273 82.0117 34.4648 82.0117C33.8594 82.0157 33.2773 82.1953 32.7812 82.543C32.293 82.8867 31.9687 83.293 31.7539 83.7383C31.4648 83.7539 31.1523 83.8203 30.793 83.9727C30.0508 84.2852 29.6016 84.7071 29.3086 85.2383C28.8516 85.2969 28.3828 85.4688 27.9258 85.7227C27.4687 85.9766 27.1914 86.2461 26.957 86.5547C26.6094 86.4766 26.2617 86.4453 25.7656 86.5274C25.6211 86.5547 25.4766 86.5899 25.3359 86.6367C24.6992 86.8594 24.3203 87.1992 23.9961 87.6367C23.7891 87.6172 23.5703 87.625 23.3008 87.6758C22.3555 87.8399 21.7266 88.4141 21.2187 89.1446C20.7344 89.0586 20.2891 89.043 19.6406 89.25C19.4844 89.3008 19.332 89.3633 19.1875 89.4414C18.625 89.7461 18.2812 90.1524 18.0391 90.6289C17.8516 90.6328 17.6484 90.6602 17.418 90.7188C17.2344 90.7617 17.0547 90.8282 16.8867 90.9141C16.4922 91.1172 16.2148 91.3477 16.0078 91.6133C15.6016 91.6094 15.1797 91.7071 14.707 91.9805C14.293 92.2149 14.0078 92.4883 13.8047 92.8008C13.4922 92.7852 13.1523 92.8282 12.7344 92.9883C12.1055 93.2227 11.5781 93.6485 11.2226 94.2227C11.125 94.3828 11.0508 94.5235 10.9961 94.6563C10.1914 94.668 9.45702 94.8907 8.84764 95.5821C8.64061 95.8164 8.51171 96.0547 8.39452 96.2852C7.56249 96.2071 6.76561 96.4375 6.20702 97.0977C6.05077 97.1094 5.89842 97.1211 5.76952 97.1367C5.23046 97.1992 4.69921 97.3047 4.1953 97.5117C2.89061 98.0469 1.66014 97.9961 0.710925 99.3321C0.00389421 100.332 0.0195184 101.504 0.402331 102.621C0.730456 103.566 1.57811 104.176 2.57811 104.176C28.9101 104.176 55.2422 104.176 81.5742 104.176C85.25 104.176 88.9961 103.996 92.6172 103.328C95.1914 102.852 97.5664 102.129 100.004 101.188C101.543 100.594 103.066 99.9492 104.605 99.3516C105.957 98.8282 107.312 98.3477 108.691 97.918C109.496 100.449 110.68 102.629 112.078 103.699C112.496 104.023 112.949 104.176 113.473 104.176H136.488C136.605 104.176 136.703 104.168 136.816 104.152C137.742 104.02 138.344 103.473 138.949 102.836C139.051 102.941 139.168 103.105 139.223 103.188C139.785 103.992 140.734 104.348 141.684 104.102C142.633 103.859 143.297 103.086 143.398 102.109C143.676 99.4805 141.379 96.9297 139.059 96.0547L136.75 95.1914C136.547 95.1133 136.367 95.0742 136.152 95.0547C134.437 94.8946 132.582 94.6289 130.883 94.336C130.504 94.2696 129.555 94.0664 128.937 93.7969C129.777 93.1797 131.484 92.2696 132.129 91.8672C132.652 92.1836 133.289 92.2774 133.922 92.1016C139.941 90.4336 147.434 90.0586 154.414 90.8555C153.633 93.2188 152.742 95.9688 154.473 97.9688L159.152 103.379C159.605 103.902 160.199 104.176 160.891 104.176H188.605C189.676 104.176 190.414 104 191.172 103.523C191.293 103.602 191.402 103.68 191.484 103.734C192.324 104.348 193.426 104.332 194.246 103.688C195.066 103.047 195.355 101.98 194.973 101.012C194.785 100.543 194.543 100.105 194.242 99.6992C192.344 97.1367 188.652 96.5039 185.695 96.1211C184.703 95.9883 181.562 95.711 180.133 95.2422L180.129 95.2383ZM120.383 59.1993C118.758 59.7774 117.578 60.2969 116.957 60.7344C116.512 61.0508 115.844 60.6055 115.324 60.7578C114.023 61.1407 112.918 62.2305 111.566 62.3282C110.23 62.4258 111.355 62.3282 110.746 62.7539C110.254 63.1016 109.535 62.5938 108.941 62.6914C107.516 62.918 107.336 64.1993 105.926 64.1289C103.848 64.0274 103.293 64.9688 101.371 65.9805C100.59 66.3907 99.0586 66.2618 98.1015 66.6602C96.2734 67.4219 94.9492 68.6289 93.8633 68.8828C90.9336 69.5664 92.0508 69.8711 89.3125 70.4688C85.8398 71.2227 87.6992 71.8946 84.2031 72.1875L80.6094 73.6446C78.4648 74.711 74.9414 75.9141 72.6172 75.7227C70.7383 77.0117 66.4375 78.0899 64.7734 77.3828C63.707 76.9258 61.4687 76.2383 60.5117 77.1758C59.4609 78.2032 59.3672 76.8633 57.6328 77.3438C56.1601 77.75 56.6172 78.7969 54.9961 78.4375C54.3555 78.2969 53.6133 78.0117 53.0351 78.3203C52.4531 78.6289 52.6523 80.1719 52.0078 80.0196C50.8789 79.75 50.1172 78.461 48.9648 79.3125C47.7031 80.2422 50.0117 82.1016 48.7461 82.5078C47.4844 82.9102 46.1836 79.8672 45.0156 80.5352C44.4726 80.8477 44.8594 81.7852 44.7656 82.4102C44.75 82.5313 44.7969 82.8125 44.6836 82.7735C44.2812 82.6289 44.0039 82.2578 43.6601 82.0117C43.3242 81.7696 43.0351 81.1914 42.6406 81.3047C41.7656 81.5508 41.3633 83.836 41.3047 83.8438C39.9883 83.9922 39.1992 82.8672 37.9961 83.4258C37.0976 83.8399 37.2187 84.875 36.8398 84.9961C36.4805 85.1094 35.6289 84.3164 34.4726 84.3203C33.457 84.3242 33.6055 86.2657 33.5156 86.3282C33.0273 86.6641 32.2226 85.875 31.6797 86.1016C30.7773 86.4844 31.4531 87.4922 30.6328 87.7774C29.6719 88.1133 30.2305 87.0782 29.0391 87.7422C28.543 88.0157 28.4141 88.7774 28.0273 88.9961C27.4531 89.3203 26.7812 88.6992 26.1445 88.8047C25.6797 88.8828 25.5156 89.8242 24.9766 90.1289C24.6797 90.2969 24.0586 89.8867 23.6992 89.9492C23.1641 90.043 22.8125 91.1055 22.4101 91.4688C21.9141 91.9219 21.082 91.211 20.3359 91.4492C19.8437 91.6055 19.9101 92.7891 19.457 93.2032C19.1523 93.4805 18.375 92.8555 17.9726 92.9571C17.6172 93.0469 17.6211 93.8555 17.4531 94.1407C17.1797 94.6094 16.3086 93.7188 15.8398 93.9883C15.4062 94.2344 15.7305 95.1602 15.2812 95.3828C14.8633 95.586 13.9726 94.9844 13.5391 95.1485C12.7461 95.4453 13.2226 96.4961 12.5078 96.9571C12.0664 97.2422 10.9141 96.7149 10.5664 97.1094C10.3867 97.3164 10.0547 98.2188 9.60936 98.5899C9.16405 98.9532 7.92186 98.375 7.93358 98.6485C7.96483 99.5899 6.16014 99.1992 5.06249 99.6485C3.45702 100.305 1.96874 100.105 2.57421 101.863C32.7812 101.863 51.3633 101.863 81.5703 101.863C97.0469 101.863 98.7773 98.3203 109.465 95.2735C108.441 88.3477 110.652 86.7617 110.652 86.7617C108.629 89.836 110.684 99.7227 113.473 101.863H136.488C136.984 101.789 137.758 100.473 138.262 100.473C139.242 100.477 140.035 100.32 141.109 101.863C141.262 100.398 139.648 98.7383 138.25 98.2188L135.941 97.3516C134.742 97.2422 131.676 96.8164 130.488 96.6094C127.895 96.1602 126.566 95.2852 126.305 94.2774C125.793 92.293 129.223 91.0508 130.957 89.8711C132.457 88.8516 140.312 82.3047 143.379 78.4414C140.07 84.0078 136.75 85.6758 133.305 89.8711C142.82 87.2344 155.816 87.668 165.258 90.8086C165.258 90.8086 161.293 90.5664 157.07 90.0821C156.477 92.1367 155.078 95.1485 156.207 96.4532L160.887 101.863H188.605C189.988 101.863 190.16 101.352 190.652 101.039C191.145 100.73 192.336 101.5 192.832 101.863C191.07 97.4141 181.117 98.9688 178.215 96.8516C176.82 95.836 177.668 95.3594 178.344 93.5547C176.117 93.336 174.25 92.5782 174.25 92.5782C184.695 93.8555 197.191 88.625 207.34 85.1524C207.34 85.1524 205.836 86.2071 204.098 86.9219C204.535 88.8008 203.926 92.2032 203.84 94.5742C203.695 98.586 210.156 101.863 211.867 101.863H219.945C221.102 101.863 220.977 101.031 221.824 100.891C222.668 100.754 223.289 101.168 224.016 101.863C223.676 99.8633 221.141 98.5 219.305 98.3125C216.293 98.2149 211.141 96.1055 211.105 93.5703C211.059 90.1407 212.66 86.2344 213.328 83.875C212.352 84.0196 211.328 83.9492 211.328 83.9492C213.266 83.5235 214.754 82.6289 216.781 82.336C215.316 76.7969 218.723 67.8282 217.805 71.8008C216.141 78.9922 218.113 87.4258 226.191 92.0742C233.43 96.2383 233.395 101.863 238.801 101.863H250.527C252.086 101.863 252.703 100.891 253.273 100.5C255.152 100.523 255.43 101.074 256.484 101.91C255.336 99.9024 254.387 98.0469 252.422 97.8399C245.918 97.1641 244.437 96.4961 243.266 94.5391C242.582 93.3946 242.012 91.8477 238.637 87.7071C236.645 85.2657 234.93 83.9649 231.961 83.0078C230.965 81.6094 232.574 77.0782 232.289 72.5157C232.289 72.5157 232.809 75.6953 232.805 77.4922C236.082 76.4766 238.801 79.3399 242.676 79.336C253.574 81.7149 259.617 76.3086 268.395 71.1055C257.719 71.4414 256.078 69.1524 256.078 69.1524C262.57 71.6993 270.898 69.5664 277.82 69.2227C285.227 68.8555 294.363 69.1172 296.941 62.793C297.176 62.2188 296.992 61.3125 295.195 61.0313C296.242 60.2539 297.715 59.7071 297.672 57.7578C297.617 55.4922 296.145 55.2344 294.402 54.7344C291.332 53.8516 289.367 56.2696 285.836 56.1172C280.77 55.8985 278.461 55.7266 272.902 53.5078C271.453 52.9297 269.262 50.2032 267.227 49.2149C265.969 48.6055 264.555 47.9493 263.445 48.6758C258.781 51.7305 255.359 50.3399 250.656 48.9883C248.402 48.3438 249.168 48.3399 247.164 47.211C245.262 46.1407 241.512 47.711 240.469 47.3868C239.969 47.2344 239.391 46.1524 238.137 46.0899C236.402 46.0078 237.324 47.4922 234.879 47.3555C232.187 47.2032 234.105 45.6172 231.047 45.4258C230.266 45.3789 230.66 46.6094 229.949 46.875C227.309 47.8516 228.207 46.5977 225.742 46.5977C225.391 46.5977 225.492 47.4414 225.141 47.4727C222.453 47.7071 220.445 45.2578 219.277 45.4219C183.711 50.4649 165.758 43.0821 120.383 59.1993Z" fill="#751111" fill-opacity="0.2"/>
</g>
<mask id="mask1_141_2" style="mask-type:luminance" maskUnits="userSpaceOnUse" x="503" y="43" width="136" height="54">
<path d="M503 43H638.854V96.5577H503V43Z" fill="white"/>
</mask>
<g mask="url(#mask1_141_2)">
<path d="M635.137 90.0149C633.762 89.5182 633.118 90.3573 632.844 90.7157C632.837 90.7247 632.828 90.7338 632.821 90.7451C632.721 90.6363 632.637 90.439 632.508 90.1011C632.25 89.4298 631.898 88.5113 630.757 87.8128C630.331 87.552 629.762 87.2458 629.106 86.8898C627.197 85.8579 624.582 84.445 623.398 83.0299C621.557 80.8278 620.368 80.8868 620.049 80.9571C619.883 80.9934 619.733 81.0863 619.627 81.2202C618.792 82.2634 617.121 84.0346 616.186 84.3385C615.883 84.4382 615.567 84.5902 615.204 84.7671C614.234 85.2388 612.767 85.9486 610.052 86.282C608.895 86.4249 607.598 86.4861 606.192 86.4634C605.187 86.4476 604.092 86.3886 602.935 86.2888C602.112 86.2162 601.144 85.8851 601.135 85.8806C601.076 85.8602 601.01 85.8466 600.946 85.842C600.942 85.842 600.643 85.8171 600.148 85.7105C600.232 85.5699 600.298 85.4542 600.343 85.3703C600.343 85.3703 600.343 85.3703 600.345 85.3681C600.865 84.3883 600.763 83.0889 600.089 82.1386C599.429 81.2065 598.368 80.7779 597.177 80.9639C596.134 81.1272 595.238 81.8347 594.839 82.8054C594.826 82.8394 594.812 82.8734 594.798 82.9074C594.535 82.6648 594.279 82.4108 594.036 82.1432C593.834 81.9232 593.521 81.8461 593.24 81.9459C591.993 82.3881 591.671 82.1636 591.136 81.7894L591.061 81.7395C590.882 81.6148 590.657 81.5762 590.446 81.6329C589.786 81.8098 587.884 81.7486 587.571 81.3086C587.362 81.0183 586.972 80.9185 586.648 81.0705C586.332 81.2179 584.74 81.3109 583.985 80.7915C583.817 80.6759 583.609 80.635 583.409 80.6759C581.674 81.0501 581.352 80.7326 581.305 80.6668C581.119 80.4015 580.783 80.2858 580.472 80.3833C579.608 80.6577 579.211 80.6691 578.572 80.2064C578.388 80.0749 578.154 80.0341 577.939 80.0953L577.907 80.1021C577.354 80.2586 576.726 80.4355 576.415 80.1792C576.172 79.9796 575.83 79.9547 575.56 80.118C575.12 80.3833 574.34 80.4445 574.161 80.2858C573.952 80.0976 573.646 80.0477 573.383 80.152C573.31 80.1792 573.224 80.2155 573.122 80.2495C573.109 80.254 573.093 80.2608 573.079 80.2654C572.127 80.6056 571.823 80.44 571.752 80.381C571.546 80.211 571.267 80.1611 571.018 80.254C570.596 80.4105 569.589 80.474 569.319 80.3629C569.151 80.2155 568.924 80.152 568.702 80.1905C568.593 80.211 568.475 80.2336 568.353 80.2608C567.806 80.3742 567.187 80.5035 566.6 80.2427C566.359 80.1361 566.092 80.1588 565.876 80.3107C565.577 80.4922 564.298 80.7598 563.919 80.6577C563.706 80.5058 563.427 80.4831 563.189 80.5852C563.189 80.5307 563.189 80.4786 563.184 80.4241C562.989 78.5758 559.885 75.7841 556.671 74.5685C553.698 73.4437 551.051 73.7612 549.217 75.4598C548.663 75.9701 548.187 76.444 547.777 76.9022C546.622 76.0835 546.11 75.4915 545.885 75.1242C545.767 74.9337 545.574 74.8067 545.354 74.7749C545.137 74.7432 544.915 74.8135 544.751 74.9609L542.889 76.6595C542.672 76.6209 542.447 76.6799 542.275 76.8273L541.075 77.8637C540.857 77.8206 540.628 77.8773 540.451 78.027L539.163 79.1156C538.955 79.0702 538.732 79.1178 538.555 79.2517L536.709 80.6668C536.51 80.6282 536.299 80.6713 536.129 80.7938L534.786 81.769C534.575 81.7168 534.349 81.7599 534.169 81.8937L532.62 83.0367C532.4 82.9528 532.149 82.9777 531.947 83.1115L530.362 84.1638C530.16 84.1026 529.935 84.1275 529.749 84.2455L528.554 84.9984C528.364 84.9372 528.151 84.9553 527.967 85.0551L526.536 85.8534C526.339 85.7491 526.1 85.7377 525.892 85.8284L524.341 86.502C524.155 86.4272 523.941 86.4317 523.755 86.5201L522.299 87.2005C522.107 87.1257 521.889 87.1347 521.701 87.23L520.131 88.0124C519.93 87.9149 519.694 87.9126 519.485 88.0124L518.059 88.7063C517.886 88.6565 517.7 88.6678 517.535 88.7449L515.918 89.4978C515.734 89.4253 515.525 89.4298 515.342 89.5137L514.033 90.1101C513.843 90.0262 513.62 90.0262 513.425 90.117L511.779 90.879C511.611 90.8268 511.425 90.8336 511.257 90.9062L510.291 91.328L511.284 90.5864C511.486 90.6272 511.7 90.5819 511.87 90.4571L513.051 89.5885C513.251 89.6226 513.459 89.5772 513.625 89.4502L515.099 88.348C515.287 88.3684 515.475 88.3163 515.63 88.1983L516.755 87.3252C516.979 87.3865 517.219 87.3388 517.405 87.1914L518.866 86.0348C519.054 86.0598 519.249 86.0121 519.408 85.8919L520.714 84.9122C520.896 84.9349 521.086 84.8918 521.24 84.7807L522.442 83.9325C522.705 84.0527 523.014 84.0074 523.234 83.8168L524.547 82.6761C524.781 82.7192 525.021 82.6489 525.196 82.4811L526.191 81.5172C526.418 81.549 526.651 81.4719 526.817 81.3018L528.048 80.0522C528.312 80.1157 528.593 80.0295 528.776 79.8254L530.162 78.2742C530.368 78.2787 530.577 78.1926 530.725 78.0293L531.84 76.8024C532.063 76.8114 532.278 76.7185 532.43 76.5438L533.879 74.8588C534.124 74.8792 534.371 74.7772 534.528 74.5753L535.564 73.2441C535.789 73.2441 536.015 73.142 536.161 72.9515L537.109 71.711C537.111 71.711 537.113 71.711 537.115 71.711C537.331 71.711 537.539 71.618 537.685 71.448L539.091 69.7834C539.315 69.518 539.599 69.2663 539.962 69.0077C540.726 68.4589 541.39 67.0755 541.937 64.8961C543.044 60.4897 546.84 56.0515 552.63 52.398C558.136 48.9191 564.94 46.5038 571.294 45.7668C571.505 45.7441 571.693 45.6307 571.816 45.4561L572.061 45.1068L573.326 45.3994C573.607 45.4629 573.9 45.3608 574.077 45.134L574.431 44.6827L576.365 45.2656C576.701 45.3676 577.059 45.2202 577.231 44.9118L577.343 44.7122L579.025 45.2247C579.286 45.3041 579.572 45.2338 579.767 45.0388L579.923 44.8823L582.307 45.5536C582.565 45.6261 582.844 45.5536 583.033 45.3631L583.23 45.1635L585.294 45.8665C585.561 45.9573 585.858 45.887 586.058 45.6851L586.165 45.5785L588.296 46.2362C588.562 46.3178 588.847 46.2453 589.042 46.0502L589.09 46.0003L591.006 46.819C591.215 46.9075 591.451 46.8961 591.651 46.7873L591.809 46.7011L593.628 47.7489C593.821 47.86 594.052 47.8804 594.261 47.801L594.524 47.7012L595.971 48.7943C596.245 48.9985 596.622 48.9916 596.887 48.7762L596.991 48.69L598.007 49.7967C598.166 49.9668 598.393 50.053 598.622 50.0326C598.853 50.0122 599.06 49.8829 599.184 49.6879L599.277 49.5382C601.718 51.0418 610.771 56.7613 615.846 61.9615C616.048 62.1702 616.352 62.2405 616.626 62.1407C616.899 62.0432 617.091 61.796 617.119 61.5057C617.255 60.0044 618.078 58.4826 618.785 58.3443C619.652 58.9589 621.248 60.7029 621.824 61.3651C621.981 61.542 622.21 61.6349 622.443 61.6168C622.679 61.5987 622.89 61.4694 623.015 61.2676C623.026 61.2494 624.176 59.4147 625.587 57.6843C628.113 54.5842 629.05 54.7543 629.147 54.7838C629.494 54.8881 629.785 55.3825 629.941 56.1422C630.392 58.3193 629.642 61.6644 628.478 62.6487C627.646 63.354 626.793 63.7055 626.108 63.9867C625.174 64.3722 624.115 64.8099 624.224 66.0799C624.36 67.6584 625.464 68.4567 626.632 69.3048C628.027 70.3118 629.605 71.4548 630.376 74.31C631.159 77.2015 633.606 84.3543 635.785 86.7673C636.989 88.0986 637.209 89.4774 637.232 90.1918C636.74 90.2644 635.944 90.3052 635.137 90.0149ZM611.122 95.0133C610.902 94.9588 610.698 94.8568 610.632 94.7139C610.53 94.4985 610.417 94.224 610.295 93.9338C609.787 92.7136 609.433 91.9131 608.907 91.5865C608.659 91.2395 607.945 89.7745 607.249 87.958C608.018 87.9466 608.748 87.9103 609.442 87.8491C609.632 91.1261 609.882 92.8883 610.263 93.6775C610.562 94.2989 610.868 94.7139 611.122 95.0133ZM599.03 84.6673C598.928 84.8601 598.633 85.3363 598.357 85.7785L598.189 86.0484C596.406 88.9082 594.649 91.811 594.447 93.1083C594.342 93.7909 594.356 94.308 594.397 94.7003C594.247 94.5302 594.136 94.3306 594.161 94.1741C594.202 93.9383 594.263 93.6457 594.329 93.335C594.603 92.0424 594.764 91.1806 594.517 90.6159C594.503 89.9355 595.082 86.7651 595.848 84.3952C595.973 84.0051 596.096 83.6649 596.213 83.3792C596.42 82.8757 596.867 82.5264 597.406 82.4403C598.202 82.3155 598.645 82.6784 598.876 83.005C599.225 83.4971 599.289 84.182 599.03 84.6673ZM568.736 84.2364C567.911 84.9462 567.568 85.2411 567.418 85.4452C566.663 86.477 567.387 91.0989 568.561 92.7182C568.666 92.8633 568.813 92.9608 568.976 93.0017C569.029 93.1672 569.14 93.3124 569.289 93.4053C569.314 93.4235 569.344 93.4416 569.369 93.453C569.396 93.4666 569.423 93.4802 569.45 93.4915C569.391 93.741 569.455 94.0018 569.625 94.1946C569.818 94.4145 570.038 94.562 570.274 94.6549C568.784 95.0314 567.235 95.24 566.464 94.918C565.439 94.4916 565.377 93.8566 565.33 92.4619C565.312 91.8972 565.289 91.26 565.148 90.6091C564.897 89.4457 564.298 88.8039 563.72 88.1847C563.132 87.5565 562.524 86.9057 561.996 85.5291C561.613 84.5335 561.404 83.7692 561.325 83.0617C561.626 82.8666 561.899 82.667 562.137 82.4629C562.626 82.4584 563.159 82.3087 563.565 82.0978C564.409 82.2951 565.652 82.0026 566.328 81.735C567.23 82.0207 568.076 81.8438 568.657 81.7236C568.668 81.7214 568.682 81.7191 568.695 81.7145C569.414 82.0343 570.525 81.9028 571.156 81.7622C571.238 81.803 571.321 81.8347 571.405 81.862C570.448 82.7646 569.469 83.6059 568.736 84.2364ZM559 82.624C557.229 83.4517 555.061 84.1638 553.625 84.6355C552.593 84.9735 552.167 85.1163 551.952 85.2479C550.861 85.9123 549.775 90.4617 550.244 92.4075C550.285 92.5821 550.387 92.7295 550.521 92.8293C550.507 93.0062 550.555 93.1831 550.661 93.3282C550.675 93.3532 550.693 93.3759 550.711 93.3963C550.732 93.4212 550.752 93.4439 550.772 93.4643C550.623 93.673 550.584 93.9383 550.668 94.181C550.763 94.4599 550.911 94.6799 551.094 94.8568C549.573 94.6323 548.06 94.2331 547.47 93.6389C546.686 92.852 546.867 92.2397 547.355 90.9334C547.552 90.405 547.774 89.8063 547.89 89.1531C548.099 87.9784 547.79 87.1574 547.491 86.3637C547.187 85.5563 546.872 84.7217 546.906 83.2476C546.974 80.279 547.625 78.9659 550.226 76.5574C551.156 75.6979 552.253 75.3963 553.333 75.3963C554.335 75.3963 555.324 75.6548 556.147 75.9678C559.161 77.1063 561.595 79.5533 561.703 80.5806C561.706 80.6124 561.749 81.3358 559 82.624ZM636.887 85.7627C635.143 83.8327 632.821 77.6437 631.814 73.9177C630.903 70.5522 628.939 69.1302 627.503 68.0915C626.374 67.2728 625.779 66.8057 625.707 65.9507C625.696 65.8169 625.827 65.7194 626.675 65.3701C627.415 65.0639 628.426 64.6467 629.438 63.7917C631.168 62.3266 631.912 58.3125 631.399 55.8383C631.043 54.1283 630.211 53.5432 629.571 53.3505C628.267 52.9604 626.637 54.0376 624.435 56.7386C623.55 57.8227 622.777 58.9271 622.292 59.6506C621.498 58.7888 620.189 57.4326 619.377 56.9473C619.282 56.8906 619.173 56.8566 619.062 56.8452C617.493 56.7069 616.415 58.3148 615.921 59.9409C609.771 54.083 599.86 48.1389 599.42 47.8759C599.091 47.6808 598.672 47.767 598.445 48.0686L597.61 47.1615C597.343 46.8712 596.898 46.8395 596.594 47.0889L596.399 47.2477L595.091 46.2611C594.887 46.1069 594.619 46.0684 594.383 46.1591L594.064 46.277L592.19 45.1975C591.968 45.0683 591.694 45.066 591.467 45.1885L591.258 45.3018L589.208 44.4287C588.929 44.3085 588.607 44.372 588.392 44.5875L588.305 44.6759L586.174 44.0182C585.908 43.9366 585.623 44.0092 585.428 44.2042L585.332 44.3017L583.269 43.5987C583.001 43.508 582.706 43.5783 582.504 43.7801L582.289 43.9956L579.908 43.3243C579.647 43.2494 579.368 43.3243 579.18 43.5148L579.03 43.6645L577.2 43.1066C576.864 43.0045 576.503 43.1497 576.333 43.4581L576.22 43.6599L574.374 43.1043C574.081 43.0158 573.764 43.1156 573.576 43.3583L573.199 43.8368L571.909 43.5397C571.614 43.4717 571.308 43.5896 571.133 43.8368L570.791 44.3221C564.321 45.1272 557.431 47.6015 551.836 51.1302C545.722 54.9924 541.694 59.7504 540.494 64.531C539.839 67.1504 539.215 67.706 539.097 67.7899C538.635 68.1187 538.261 68.4544 537.957 68.815L537.183 69.7289C536.934 69.7062 536.684 69.8128 536.526 70.0192L535.562 71.2801C535.342 71.2824 535.126 71.3845 534.984 71.5659L533.947 72.8949C533.945 72.8949 533.945 72.8949 533.943 72.8949C533.729 72.8949 533.523 72.9856 533.378 73.1534L531.861 74.92C531.657 74.92 531.459 75.0062 531.316 75.1627L530.201 76.3896C529.983 76.3828 529.772 76.4713 529.62 76.6391L528.339 78.0769C528.105 78.0406 527.865 78.1155 527.695 78.2878L526.357 79.644C526.143 79.6258 525.93 79.6962 525.772 79.8504L524.758 80.8301C524.556 80.8097 524.352 80.8709 524.193 81.0092L522.955 82.0842C522.739 82.0207 522.506 82.057 522.32 82.1908L520.939 83.1682C520.739 83.1342 520.533 83.1819 520.367 83.3066L519.081 84.2704C518.877 84.2387 518.666 84.2908 518.501 84.4224L517.126 85.5087C516.909 85.4542 516.675 85.5019 516.491 85.6425L515.235 86.6154C515.058 86.6018 514.879 86.6494 514.732 86.7605L513.303 87.8287C513.108 87.7969 512.906 87.8423 512.74 87.9625L511.584 88.8152C511.377 88.7721 511.16 88.8175 510.987 88.9467L509.534 90.0308C509.357 90.0126 509.175 90.058 509.026 90.1646L508.075 90.8381C507.883 90.7996 507.679 90.8381 507.511 90.9515L506.384 91.7203C506.193 91.6772 505.987 91.7113 505.817 91.8201L503.633 93.2285C503.311 93.4371 503.197 93.8544 503.37 94.1946C503.501 94.4531 503.762 94.605 504.034 94.605C504.123 94.605 504.213 94.5892 504.302 94.5551L505.683 94.0222C505.864 94.1152 506.08 94.1265 506.277 94.0494L507.656 93.5187C507.846 93.614 508.069 93.6231 508.271 93.5391L509.529 93.0198C509.717 93.106 509.937 93.1105 510.135 93.0243L511.257 92.5368C511.436 92.6003 511.638 92.5935 511.815 92.5095L513.382 91.7838C513.57 91.8655 513.788 91.8655 513.981 91.777L515.314 91.167C515.5 91.2441 515.714 91.2395 515.904 91.1511L517.573 90.3732C517.75 90.4322 517.947 90.4208 518.12 90.3347L519.401 89.7155C519.608 89.8176 519.852 89.8221 520.066 89.7155L521.73 88.8832C521.909 88.9467 522.109 88.9399 522.288 88.856L523.769 88.1621C523.941 88.2233 524.136 88.2188 524.311 88.1439L525.658 87.5588C525.892 87.7289 526.202 87.747 526.454 87.6064L527.974 86.7628C528.191 86.8512 528.443 86.8331 528.649 86.7038L529.822 85.9645C530.037 86.0393 530.28 86.0121 530.475 85.8829L531.936 84.91C532.181 85.0256 532.471 85.0007 532.693 84.8374L534.364 83.6037C534.571 83.649 534.791 83.6082 534.968 83.4812L536.31 82.506C536.523 82.5582 536.753 82.5128 536.934 82.3745L538.698 81.0229C538.934 81.0932 539.195 81.0433 539.39 80.8777L540.678 79.7891C540.9 79.8368 541.139 79.7801 541.318 79.6258L542.499 78.6053C542.731 78.6575 542.978 78.5962 543.159 78.4284L545.155 76.6119C545.577 77.079 546.141 77.5644 546.847 78.0701C545.824 79.5555 545.468 81.0251 545.418 83.2136C545.377 84.9803 545.779 86.0416 546.098 86.8921C546.377 87.6337 546.563 88.1235 546.425 88.89C546.334 89.4116 546.144 89.9197 545.96 90.4095C545.475 91.7158 544.924 93.1967 546.418 94.6958C547.459 95.7435 549.87 96.1993 551.215 96.3785C551.881 96.4669 552.861 96.5577 553.757 96.5577C554.526 96.5577 555.233 96.4919 555.628 96.3014C556.091 96.0769 556.22 95.6777 556.186 95.3761C556.156 95.104 556.057 94.8908 555.909 94.7275C556.1 94.6504 556.242 94.5325 556.347 94.3646C556.526 94.0789 556.521 93.7251 556.333 93.419C556.102 93.0425 555.83 92.7749 555.533 92.5912C555.644 92.4823 555.721 92.3576 555.766 92.2079C555.866 91.8836 555.771 91.5434 555.51 91.2985C554.233 90.0875 552.761 90.7383 551.786 91.1715C551.727 91.1965 551.666 91.2237 551.607 91.2509C551.593 89.5477 552.358 87.0281 552.757 86.5133C552.961 86.4272 553.532 86.2389 554.088 86.0552C556.206 85.3613 558.295 84.6333 559.937 83.8305C560.064 84.4995 560.284 85.2229 560.608 86.0666C561.241 87.7153 562.014 88.5431 562.633 89.2075C563.173 89.7836 563.529 90.1668 563.695 90.9266C563.806 91.4459 563.824 91.9879 563.842 92.5118C563.89 93.9043 563.942 95.485 565.892 96.2991C566.337 96.4851 566.892 96.5554 567.484 96.5554C568.704 96.5554 570.083 96.2515 570.965 96.0156C572.172 95.6936 574.383 94.9611 575.016 94.2535C575.358 93.8703 575.324 93.4507 575.179 93.1854C575.048 92.9427 574.875 92.7862 574.676 92.691C574.823 92.5458 574.911 92.3825 574.943 92.1875C575.002 91.8541 574.862 91.5298 574.574 91.3189C574.215 91.0581 573.861 90.9175 573.519 90.8585C573.58 90.7179 573.603 90.5728 573.589 90.4163C573.558 90.0784 573.34 89.8017 573.006 89.6747C571.367 89.0443 570.253 90.2099 569.516 90.9833C569.471 91.0309 569.426 91.0785 569.38 91.1261C568.722 89.5591 568.471 86.9352 568.645 86.3047C568.8 86.1482 569.258 85.7536 569.702 85.3703C570.775 84.4518 572.362 83.0889 573.68 81.7077C574.365 81.9753 575.245 81.8642 575.903 81.6057C576.606 81.9323 577.39 81.7871 578.012 81.6238C578.867 82.1364 579.629 82.15 580.49 81.9323C581.339 82.5378 582.672 82.3495 583.434 82.1976C584.45 82.7305 585.888 82.7578 586.759 82.5809C587.788 83.3429 589.646 83.2499 590.467 83.141C591.152 83.5901 591.891 83.8894 593.27 83.5039C593.59 83.8305 593.927 84.1412 594.277 84.4314C593.941 85.5495 593.605 86.9261 593.356 88.2188C592.905 90.5615 593.016 90.9878 593.147 91.2123C593.19 91.5208 592.986 92.4937 592.873 93.0243C592.805 93.3509 592.739 93.6593 592.694 93.927C592.53 94.9089 593.236 95.8297 593.961 96.2696C594.277 96.4624 594.587 96.5599 594.869 96.5599C595.109 96.5599 595.327 96.4896 595.513 96.349C596.068 95.9272 595.984 95.3376 595.923 94.9089C595.871 94.5574 595.803 94.0789 595.919 93.3396C596.082 92.2782 598.191 88.8651 599.32 87.0485C600.019 87.2322 600.529 87.3003 600.738 87.323C601.026 87.4159 601.949 87.7017 602.804 87.7765C603.804 87.865 604.759 87.9217 605.655 87.9466C606.017 88.9309 606.441 89.965 606.847 90.8495C607.623 92.5322 607.895 92.759 608.12 92.8611C608.331 93.0924 608.714 94.0109 608.923 94.5121C609.049 94.8182 609.17 95.1062 609.285 95.3512C609.68 96.1948 610.671 96.5577 611.49 96.5577C611.549 96.5577 611.603 96.5577 611.66 96.5531C612.34 96.51 612.819 96.2084 612.975 95.7299C613.193 95.0654 612.789 94.63 612.494 94.3125C612.256 94.054 611.927 93.6979 611.603 93.0243C611.322 92.4438 611.093 90.6431 610.923 87.6699C613.445 87.2776 614.878 86.5859 615.851 86.1119C616.18 85.9532 616.438 85.8284 616.647 85.7604C618.028 85.3114 619.81 83.3225 620.511 82.4924C620.811 82.6126 621.4 82.9641 622.257 83.9915C623.625 85.6243 626.385 87.1166 628.401 88.2052C629.038 88.5521 629.589 88.8492 629.982 89.0896C630.692 89.525 630.9 90.0648 631.12 90.6386C631.331 91.1896 631.569 91.8133 632.254 92.158C633.236 92.6501 633.808 91.9063 634.023 91.6273C634.259 91.3189 634.277 91.294 634.633 91.4232C636.425 92.0673 638.108 91.5344 638.178 91.5094C638.445 91.4232 638.64 91.1919 638.684 90.9152C638.702 90.8041 639.076 88.1847 636.887 85.7627Z" fill="#751111" fill-opacity="0.2"/>
</g>
<mask id="mask2_141_2" style="mask-type:luminance" maskUnits="userSpaceOnUse" x="365" y="0" width="74" height="162">
<path d="M365 0H438.651V162H365V0Z" fill="white"/>
</mask>
<g mask="url(#mask2_141_2)">
<path d="M437.05 79.4222C436.94 82.5441 436.246 85.5415 434.987 88.3364C434.702 88.9819 434.358 89.6527 433.939 90.3846C433.546 91.0575 433.12 91.7051 432.669 92.3168C431.821 93.4875 430.823 94.6181 429.699 95.677C428.701 96.6263 427.615 97.5164 426.379 98.4003C425.318 99.166 424.187 99.8916 422.923 100.619C421.86 101.235 420.721 101.851 419.445 102.503L417.766 103.353C417.23 103.617 416.701 103.893 416.148 104.182C413.927 105.351 411.851 106.597 409.98 107.882C405.795 110.751 402.393 114.081 399.864 117.779C397.362 121.426 395.388 125.875 393.987 130.999C393.369 133.249 392.844 135.622 392.384 138.257C391.964 140.666 391.606 143.163 391.317 145.678C390.92 149.167 390.595 152.833 390.317 157.011C390.152 153.449 390.034 149.546 390.087 145.602C390.154 139.693 390.547 134.865 391.323 130.41C391.8 127.68 392.403 125.215 393.166 122.871C394 120.302 395.048 117.861 396.276 115.617C397.562 113.265 399.075 111.042 400.773 109.006C402.422 107.025 404.312 105.112 406.394 103.319C408.293 101.678 410.415 100.062 412.699 98.5184C413.244 98.1513 413.788 97.7864 414.34 97.4342L415.937 96.4195C417.049 95.7066 418.028 95.0485 418.928 94.4009C420.597 93.188 422.502 91.722 423.989 90.0324C424.685 89.2477 425.303 88.4335 425.822 87.6129C426.324 86.8324 426.75 85.9781 427.13 84.9973C427.824 83.1727 428.182 81.1856 428.167 79.2577C428.161 77.317 427.773 75.3954 427.045 73.6995C426.298 71.974 425.252 70.5649 423.845 69.3879C422.455 68.2193 420.776 67.3397 418.996 66.8461C417.964 66.5592 416.918 66.4158 415.901 66.4158C415.176 66.4158 414.469 66.4896 413.79 66.6352C413.651 66.6605 413.518 66.6942 413.383 66.7301C413.317 66.747 413.256 66.7638 413.193 66.7786C413.163 66.7849 413.138 66.7934 413.111 66.8018C413.052 66.8229 412.992 66.8419 412.933 66.8588C412.798 66.8988 412.663 66.9389 412.545 66.9895L412.434 67.0296C412.261 67.0929 412.088 67.1562 411.938 67.2279L411.326 67.5063C410.501 67.9071 409.67 68.4113 408.862 69.0103C407.428 70.0629 405.878 71.4973 403.985 73.516C403.536 73.999 403.076 74.4968 402.606 75.0073C401.361 76.3615 400.075 77.7579 398.615 79.1691C397.497 80.2449 396.423 81.173 395.326 82.0062C395.035 82.2319 394.734 82.4534 394.407 82.6791C394.105 82.8985 393.782 83.1052 393.455 83.3182C393.143 83.5228 392.785 83.7401 392.441 83.9342C392.11 84.1261 391.762 84.3138 391.38 84.5016C389.907 85.2356 388.359 85.7988 386.784 86.1743C385.056 86.5878 383.33 86.7523 381.654 86.6721C379.787 86.5856 377.924 86.1574 376.264 85.4318C374.558 84.6914 372.957 83.5819 371.634 82.2171C370.425 80.9747 369.404 79.5066 368.601 77.857C367.879 76.3615 367.348 74.7689 367.025 73.1257C366.713 71.5458 366.578 69.9216 366.622 68.2974C366.635 67.8987 366.658 67.4916 366.69 67.1035L366.812 65.956L366.985 64.8169L367.211 63.6652C367.833 60.8238 368.959 58.0078 370.567 55.2973C371.271 54.1013 372.085 52.901 372.982 51.7324L373.201 51.4519C373.345 51.2663 373.488 51.0827 373.648 50.8824C373.885 50.587 374.125 50.3023 374.364 50.0238C374.821 49.4986 375.302 48.9755 375.832 48.4313C377.829 46.3957 379.899 44.6618 381.845 43.0629C382.632 42.4174 383.413 41.7867 384.183 41.1666C385.366 40.2089 386.528 39.2724 387.65 38.3358C389.821 36.5238 391.454 35.0177 392.787 33.5939C394.426 31.8452 395.677 30.1472 396.512 28.542C397.423 26.7806 397.896 25.0362 397.957 23.2095C397.965 22.9479 397.835 22.6969 397.613 22.5535C397.345 22.3763 397.058 22.0809 396.763 21.6717C392.489 15.7592 395.516 10.4245 396.166 9.41415C397.383 7.52204 397.596 6.51165 397.82 5.44642C397.904 5.03931 397.993 4.62165 398.142 4.11962C398.636 2.4722 400.058 1.5272 402.045 1.5272C404.03 1.5272 405.451 2.4722 405.945 4.11962C406.097 4.62165 406.183 5.03931 406.268 5.44642C406.491 6.51165 406.702 7.52204 407.924 9.41415C408.573 10.4245 411.598 15.7592 407.325 21.6717C407.097 21.9881 406.871 22.2392 406.654 22.4185C406.47 22.5703 406.369 22.8002 406.382 23.0365L406.39 23.1673C406.399 23.9773 406.363 24.7831 406.285 25.5551C406.198 26.3461 406.065 27.1413 405.888 27.9134C405.54 29.4174 405.017 30.9066 404.338 32.341C403.171 34.8005 401.604 37.0997 399.4 39.5761C397.394 41.831 395.248 43.7843 393.601 45.2335C392.314 46.3704 391.015 47.4588 389.76 48.5114C389.095 49.0683 388.439 49.6167 387.798 50.1631C386.123 51.5848 384.2 53.266 382.628 54.9324C382.242 55.3437 381.886 55.7466 381.559 56.1347C381.394 56.3351 381.232 56.5355 381.084 56.7274C380.987 56.8519 380.884 56.9932 380.78 57.1345L380.59 57.3898C379.926 58.3137 379.335 59.2186 378.837 60.0877C377.776 61.9481 377.045 63.8297 376.663 65.7028L376.534 66.42L376.435 67.1456L376.37 67.8607C376.355 68.0885 376.346 68.3037 376.342 68.5294C376.329 69.4322 376.418 70.3287 376.604 71.1977C376.8 72.0984 377.07 72.9042 377.409 73.5898C377.753 74.2943 378.186 74.9208 378.66 75.4038C379.124 75.8721 379.626 76.2202 380.196 76.4691C380.782 76.718 381.434 76.8614 382.126 76.891C383.565 76.9669 385.383 76.5324 386.988 75.7203C387.189 75.619 387.389 75.5178 387.577 75.4123C387.783 75.2963 387.969 75.1887 388.18 75.0495L388.231 75.0178C388.422 74.8955 388.617 74.7731 388.785 74.6508C388.996 74.5095 389.205 74.3597 389.408 74.2036C390.205 73.6088 391.006 72.9274 391.852 72.1259C393.036 71.0079 394.225 69.7381 395.487 68.3944C395.953 67.8987 396.43 67.3882 396.919 66.8735C398.708 65.0025 400.707 63.026 403.19 61.2267C406.006 59.1975 408.934 57.877 411.891 57.3033C415.051 56.6916 418.414 56.873 421.618 57.8243C424.716 58.7419 427.516 60.2923 429.941 62.4291C430.486 62.9079 431.049 63.4648 431.652 64.1229C432.209 64.7494 432.719 65.3906 433.169 66.0256C434.095 67.3524 434.865 68.7783 435.457 70.2612C436.611 73.1299 437.145 76.2117 437.05 79.4222ZM436.869 69.7022C436.234 68.1096 435.409 66.5824 434.413 65.1586C433.93 64.4731 433.382 63.7854 432.778 63.1083C432.133 62.4017 431.532 61.8068 430.945 61.2942C428.355 59.0098 425.362 57.3539 422.05 56.371C418.612 55.35 414.999 55.1581 411.602 55.8162C408.426 56.4321 405.297 57.8391 402.3 59.9991C399.716 61.8701 397.657 63.9056 395.818 65.8294C395.324 66.3483 394.846 66.8609 394.377 67.3608C393.133 68.6876 391.958 69.9385 390.808 71.029C390.002 71.7905 389.247 72.4317 388.494 72.9949C388.311 73.1342 388.125 73.2692 387.918 73.4063C387.754 73.5265 387.585 73.632 387.418 73.7374L387.357 73.7754C387.172 73.8978 387.018 73.9906 386.834 74.0897C386.659 74.1888 386.48 74.2817 386.303 74.3724C384.925 75.0663 383.4 75.4439 382.2 75.3764C381.675 75.3553 381.217 75.2562 380.797 75.0769C380.407 74.9081 380.071 74.674 379.742 74.3428C379.384 73.9758 379.048 73.4864 378.772 72.9232C378.487 72.3453 378.257 71.6576 378.089 70.8792C377.928 70.1325 377.85 69.3267 377.861 68.5505C377.863 68.3522 377.871 68.1645 377.884 67.9809L377.945 67.3165L378.032 66.6584L378.154 65.9876C378.5 64.2895 379.175 62.5578 380.156 60.8386C380.626 60.0181 381.189 59.1553 381.814 58.2863L382.006 58.0289C382.101 57.9002 382.196 57.7716 382.288 57.6513C382.43 57.4678 382.58 57.2822 382.729 57.1008C383.033 56.738 383.373 56.3562 383.738 55.9681C385.256 54.3565 387.14 52.7112 388.785 51.3148C389.422 50.7706 390.076 50.2242 390.736 49.6716C392 48.6127 393.308 47.5179 394.607 46.3683C396.286 44.8896 398.476 42.8963 400.537 40.5823C402.808 38.0278 404.5 35.543 405.709 32.9885C406.437 31.4571 406.996 29.8645 407.369 28.253C407.561 27.4198 407.702 26.5676 407.795 25.7133C407.873 24.9328 407.911 24.1313 407.909 23.3255C408.128 23.1082 408.341 22.8551 408.556 22.5577C412.313 17.3602 411.351 11.9391 409.202 8.59783C408.132 6.93986 407.966 6.14251 407.755 5.13634C407.668 4.71868 407.569 4.24618 407.401 3.6872C406.711 1.38587 404.709 0.0105591 402.045 0.0105591C399.379 0.0105591 397.377 1.38587 396.687 3.6872C396.518 4.24618 396.421 4.71868 396.333 5.13634C396.122 6.14251 395.955 6.93986 394.888 8.59783C392.736 11.9391 391.774 17.3602 395.531 22.5577C395.824 22.9648 396.117 23.2917 396.417 23.547C396.316 25.0067 395.902 26.4157 395.162 27.8459C394.392 29.3267 393.221 30.9129 391.679 32.5603C390.388 33.9377 388.798 35.4038 386.676 37.1756C385.558 38.1038 384.404 39.0361 383.227 39.9895C382.455 40.6139 381.672 41.2446 380.881 41.8922C378.903 43.5185 376.798 45.2841 374.743 47.3745C374.193 47.9398 373.693 48.484 373.212 49.0367C372.959 49.3299 372.708 49.6273 372.463 49.9352C372.298 50.1399 372.149 50.3318 371.999 50.5238L371.782 50.8064C370.841 52.0277 369.993 53.2807 369.259 54.5274C367.569 57.3771 366.382 60.3429 365.724 63.3593L365.489 64.5574L365.306 65.7619L365.179 66.96C365.143 67.3924 365.118 67.8291 365.105 68.2552C365.057 69.9912 365.2 71.7293 365.536 73.4189C365.884 75.1887 366.455 76.9015 367.234 78.5131C368.107 80.3124 369.221 81.9155 370.543 83.2718C372.001 84.7779 373.771 86.0035 375.657 86.8198C377.483 87.6192 379.534 88.0896 381.58 88.1845C383.4 88.2731 385.269 88.0938 387.138 87.6488C388.825 87.2438 390.481 86.6426 392.059 85.8579C392.468 85.6533 392.844 85.4529 393.196 85.2504C393.563 85.0416 393.951 84.8053 394.284 84.586C394.628 84.3645 394.972 84.1409 395.284 83.9152C395.62 83.6852 395.942 83.449 396.252 83.2085C397.392 82.3416 398.51 81.3755 399.672 80.2575C401.165 78.8147 402.467 77.4014 403.726 76.0303C404.192 75.5241 404.646 75.0305 405.095 74.5517C406.924 72.6005 408.405 71.2273 409.765 70.2274C410.499 69.6853 411.248 69.2276 411.993 68.8669L412.556 68.6117C412.689 68.5484 412.822 68.4999 412.955 68.4513L413.098 68.4007C413.193 68.3606 413.284 68.3353 413.37 68.3079C413.438 68.2889 413.505 68.2678 413.573 68.2467C413.638 68.2278 413.708 68.2109 413.773 68.194C413.866 68.1687 413.959 68.1434 414.083 68.1202C415.498 67.8164 417.057 67.8797 418.589 68.3058C420.139 68.7361 421.658 69.5313 422.871 70.5481C424.09 71.569 425.001 72.7967 425.649 74.2964C426.296 75.8067 426.642 77.5238 426.649 79.2661C426.661 81.0127 426.336 82.8099 425.712 84.4552C425.37 85.3369 424.989 86.1047 424.541 86.8008C424.062 87.556 423.495 88.3048 422.85 89.0304C421.457 90.6103 419.635 92.0131 418.038 93.1732C417.163 93.8018 416.207 94.4473 415.119 95.1434L413.522 96.158C412.961 96.5145 412.404 96.8878 411.847 97.2633C409.514 98.8432 407.344 100.495 405.399 102.172C403.256 104.022 401.307 105.996 399.606 108.038C397.843 110.149 396.276 112.455 394.943 114.891C393.669 117.218 392.584 119.747 391.722 122.405C390.935 124.816 390.315 127.349 389.827 130.153C389.036 134.688 388.636 139.592 388.568 145.583C388.496 150.989 388.741 156.305 388.99 160.789C389.028 161.456 389.559 161.985 390.226 162.021C390.249 162.023 390.275 162.025 390.3 162.025C390.62 162.025 390.928 161.907 391.171 161.69C391.433 161.458 391.587 161.137 391.606 160.791C391.932 155.048 392.321 150.299 392.827 145.851C393.11 143.364 393.464 140.896 393.882 138.516C394.331 135.93 394.846 133.602 395.453 131.397C396.807 126.436 398.714 122.141 401.119 118.633C403.54 115.09 406.81 111.892 410.841 109.131C412.663 107.878 414.688 106.665 416.88 105.509C417.395 105.239 417.912 104.969 418.445 104.707L420.135 103.853C421.436 103.189 422.599 102.558 423.685 101.929C424.993 101.176 426.163 100.423 427.265 99.63C428.56 98.7061 429.699 97.7717 430.745 96.776C431.935 95.6517 432.996 94.4515 433.896 93.2091C434.377 92.5573 434.831 91.8654 435.253 91.1419C435.702 90.3572 436.069 89.64 436.375 88.9524C437.712 85.9824 438.451 82.793 438.567 79.4707C438.67 76.0493 438.098 72.7608 436.869 69.7022Z" fill="#751111" fill-opacity="0.2"/>
</g>
<mask id="mask3_141_2" style="mask-type:luminance" maskUnits="userSpaceOnUse" x="704" y="0" width="170" height="162">
<path d="M704 0H873.743V162H704V0Z" fill="white"/>
</mask>
<g mask="url(#mask3_141_2)">
<path d="M839.132 15.0762C839.053 14.6894 839.334 14.3789 839.457 14.2529C840.172 13.4619 840.998 12.7148 841.915 12.0615C842.053 11.9531 842.208 11.8301 842.366 11.7041C842.677 11.4551 842.987 11.1767 843.312 11.0361L843.655 10.8808L843.749 11.2529C843.843 11.6279 843.641 12.1699 843.453 12.6533C843.392 12.8232 843.33 12.9785 843.298 13.1045C843.096 13.8486 842.785 14.5635 842.489 15.2637C842.334 15.6064 842.038 16.3359 841.37 16.459C841.309 16.4766 841.229 16.4766 841.153 16.4766C841.06 16.4766 840.966 16.459 840.843 16.4443C840.266 16.3359 839.706 16.0107 839.334 15.5273C839.255 15.3867 839.164 15.249 839.132 15.0762ZM872.164 104.121C871.792 105.287 871.124 106.948 869.724 107.836C869.583 107.93 869.445 108.006 869.287 108.067C868.326 108.519 867.034 108.378 866.085 107.742C865.713 107.493 865.417 107.183 865.215 106.825C864.673 107.027 864.066 107.027 863.46 106.854C862.792 106.67 862.232 106.266 861.857 105.735C861.175 105.955 860.352 105.8 859.728 105.349C858.919 104.774 858.515 103.887 858.175 103.172L851.287 88.5937C851.085 88.1426 850.836 87.6445 850.821 87.0557C850.807 86.7129 850.868 86.3877 850.915 86.1211C850.962 85.8721 851.009 85.626 850.977 85.4531C850.9 85.0342 850.341 84.7383 849.825 84.6152C849.562 84.5508 849.298 84.5215 849.002 84.4893C848.475 84.4277 847.93 84.3516 847.385 84.1318C846.11 83.6191 845.302 82.4707 844.651 81.5537C840.764 76.0957 836.645 70.7051 832.399 65.5137C832.757 70.0049 830.894 74.5107 827.472 77.2002L827.226 77.4023L827.053 77.1709C826.774 78.1025 826.399 78.9873 825.948 79.8281L825.872 79.9658C825.746 80.2002 825.623 80.417 825.544 80.6367C825.453 80.9297 825.421 81.2871 825.389 81.6621L825.374 81.7851C825.049 85.9658 823.648 89.9619 821.316 93.3662C820.602 94.4062 820.197 95.6191 819.764 96.8936C819.266 98.3701 818.753 99.876 817.742 101.168C816.995 102.114 816.14 102.955 815.331 103.746L812.923 106.125C811.71 107.323 810.638 108.735 809.598 110.121C807.84 112.436 806.035 114.829 803.439 116.353C803.176 116.508 802.927 116.648 802.663 116.804C801.916 117.223 801.219 117.612 800.595 118.107C800.02 118.559 799.522 119.104 798.995 119.663C798.714 119.959 798.421 120.27 798.125 120.565C797.1 121.573 795.916 122.49 794.378 123.454C793.259 124.154 792.125 124.775 791.02 125.399C789.869 126.035 788.642 126.562 787.429 126.176C783.544 128.49 779.454 130.263 775.273 131.461C774.699 131.616 774.093 131.771 773.472 131.646C769.631 133.028 765.541 134.414 761.422 134.833C761.688 137.429 761.018 140.833 760.522 143.35C760.458 143.692 760.396 144.018 760.335 144.328C760.071 145.696 760.024 147.141 759.963 148.541C759.916 149.613 759.884 150.686 759.743 151.758C759.45 154.277 758.703 156.671 757.537 158.877C757.086 159.732 756.494 160.696 755.548 161.332C755.516 161.347 755.483 161.379 755.454 161.394C754.801 161.798 754.039 162 753.277 162C752.252 162 751.209 161.643 750.4 160.928C750.31 160.852 750.216 160.758 750.107 160.664C749.841 160.415 749.469 160.058 749.299 160.104C749.267 160.119 749.19 160.151 749.111 160.184C749.003 160.228 748.833 160.307 748.645 160.354C747.978 160.509 747.245 160.245 746.609 159.606C746.483 159.483 746.36 159.343 746.252 159.22C746.05 158.985 745.862 158.783 745.675 158.66C745.552 158.581 745.382 158.52 745.209 158.44C744.992 158.35 744.775 158.271 744.556 158.13C743.609 157.556 743.205 156.577 742.848 155.689C742.66 155.241 742.49 154.805 742.256 154.462C742.054 154.166 741.79 153.888 741.494 153.592C740.996 153.079 740.422 152.487 740.158 151.682C740.003 151.213 739.985 150.765 739.956 150.328C739.924 149.83 739.909 149.396 739.707 149.133C739.628 149.039 739.52 148.931 739.396 148.819C739.194 148.649 738.96 148.433 738.775 148.137C738.386 147.501 738.418 146.801 738.509 146.133C738.805 143.877 739.473 141.703 740.126 139.603C740.765 137.522 741.418 135.393 741.696 133.216C741.603 133.14 741.509 133.093 741.433 133.046C741.061 133.154 740.686 133.248 740.328 133.339C739.895 133.45 739.426 133.573 739.007 133.699C737.158 134.241 734.841 134.909 732.603 134.303C731.249 133.945 729.975 132.967 729.277 131.739C728.902 131.086 728.718 130.433 728.7 129.765C727.27 129.627 726.043 128.537 725.422 127.465C724.613 126.067 724.458 124.465 724.317 123.05L723.711 117.021C723.696 117.006 723.664 116.988 723.649 116.974L723.635 116.959L722.141 116.897L722.888 116.399C720.928 114.75 719.592 112.187 719.267 109.515L719.079 109.342C716.079 106.421 714.292 107.836 712.862 108.984C712.083 109.605 711.353 110.197 710.53 109.793C704.234 106.623 704.047 105.085 704.264 102.425C704.311 101.912 704.343 101.385 704.328 100.778C704.311 100.219 704.311 99.583 704.7 99.0381C705.228 98.291 706.162 98.1533 706.657 98.0742C708.415 97.8105 710.047 96.5361 711.772 95.168C714.386 93.1172 717.072 91.0019 720.588 92.1064C721.036 91.2041 721.52 90.334 721.956 89.54C722.841 87.9551 723.028 86.0449 723.213 84.0234C723.386 82.251 723.57 80.417 724.256 78.7559C725.328 76.1601 726.696 73.7021 728.032 71.3086C729.433 68.792 730.877 66.1963 731.935 63.4922C732.151 62.918 732.371 62.3262 732.588 61.7519C733.256 59.918 733.956 58.0049 735.014 56.2969C736.537 53.8242 738.447 51.9756 740.562 50.9326C742.303 47.8242 745.18 45.1523 748.458 43.582C748.769 43.4267 749.097 43.2861 749.375 43.1631C750.154 42.8203 750.884 42.4951 751.537 42.0293C752.05 41.6543 752.501 41.2031 752.981 40.7226C753.433 40.2715 753.898 39.8203 754.411 39.416C755.439 38.625 756.605 38.1269 757.739 37.6435L758.284 37.4121C761.718 35.9209 764.952 33.9932 767.873 31.6465L767.952 31.582L768.046 31.5527C771.573 29.9971 774.916 28.8955 777.995 28.2891C776.688 27.791 775.057 27.9463 773.58 28.0693C767.609 28.6142 761.533 28.3652 755.656 28.1162C754.411 28.0693 753.137 28.0078 751.862 27.7764C751.505 27.6973 751.147 27.6211 750.79 27.542C750.31 27.4336 749.873 27.3252 749.422 27.2637C746.92 26.874 744.353 27.6504 741.884 28.3974C741.263 28.5849 740.609 28.7842 739.971 28.957C735.509 30.1699 732.058 29.7803 729.682 27.791C728.809 27.0615 728.313 26.2207 728.267 25.3652C728.205 24.4658 728.606 23.7041 729.058 23.0039C731.422 19.3682 734.967 16.5058 739.007 14.9824C739.115 14.9385 739.364 14.8447 739.426 14.7832C739.426 14.7363 739.426 14.6426 739.426 14.5635C739.426 14.3467 739.426 14.0976 739.52 13.8193C739.783 13.04 740.577 12.7764 740.949 12.6533L753.339 8.50194C754.645 8.06835 755.999 7.61718 757.382 7.32128C758.439 7.10448 759.512 6.99608 760.429 6.90233C765.682 6.40428 771.465 6.43651 778.599 6.99608C780.342 7.13378 782.05 7.28905 783.685 7.81932C786.125 8.61034 788.19 10.1191 789.887 11.4873C791.768 13.0107 793.865 14.8916 795.14 17.4228C796.136 19.3828 796.197 23.5488 795.31 26.3291C795.436 26.2998 795.559 26.2822 795.685 26.2529C798.45 25.6611 800.721 25.4443 802.446 25.6318C804.031 24.0908 805.959 22.834 807.995 21.5273C811.883 19.0107 816.295 16.166 820.276 10.1338C822.857 6.21678 827.519 2.84471 832.432 1.33885C836.814 -1.21295e-05 841.493 0.374988 845.489 0.91698C846.406 1.04296 847.449 1.24511 848.132 2.06835C848.568 2.58104 848.724 3.20214 848.847 3.77636C849.236 5.76561 849.175 7.84862 848.659 9.77636C848.023 12.1875 847.355 14.0654 846.576 15.498C843.966 20.4082 841.37 24.0439 838.385 26.9355C837.359 27.9316 836.24 28.831 835.168 29.7012C834.002 30.6504 832.804 31.5996 831.764 32.6719C828.547 35.9355 823.991 43.9394 824.146 49.1162L824.923 51.4629C825.948 50.5928 827.085 49.5674 828.204 48.5859C829.648 47.2969 831.157 45.9609 832.37 44.9648C832.991 44.4521 833.691 43.8779 834.576 43.5967C835.399 43.3476 836.255 43.3799 837.002 43.4267L842.691 43.7373C844.309 43.831 845.973 43.9072 847.587 44.5137C851.056 45.7881 853.168 48.9287 855.222 51.9609L855.236 51.9756C855.811 52.831 856.402 53.7012 857.023 54.5098C858.034 55.8457 859.186 57.1055 860.305 58.333C860.987 59.0771 861.687 59.8564 862.37 60.6328C864.175 62.7451 865.807 65.0449 867.377 67.2539C867.796 67.8603 868.37 68.6689 868.417 69.6328C868.449 70.2832 868.168 70.9365 867.687 71.3555C867.594 71.4346 867.485 71.5107 867.377 71.5752C867.922 73.1133 868.76 74.5576 869.647 76.0664C870.438 77.4346 871.262 78.8467 871.868 80.3555C872.958 83.1211 873.254 86.1064 873.438 88.6875C873.702 93.4424 873.828 98.9912 872.164 104.121ZM827.504 75.1025C830.519 72.041 831.717 67.1924 830.395 62.9795L829.291 59.4053L831.685 62.2793C836.63 68.2002 841.385 74.373 845.861 80.666C846.421 81.46 847.074 82.3594 847.93 82.7168C848.287 82.8574 848.724 82.9189 849.175 82.9834C849.485 83.0303 849.811 83.0596 850.139 83.1387C851.117 83.3555 852.236 84.0234 852.453 85.2041C852.532 85.6699 852.453 86.0918 852.392 86.4316C852.345 86.6514 852.312 86.8535 852.312 87.0234C852.33 87.3193 852.485 87.6445 852.641 87.9726L859.525 102.551C859.807 103.125 860.117 103.793 860.583 104.136C860.785 104.276 861.081 104.353 861.315 104.306C861.392 104.291 861.515 104.259 861.562 104.168L862.651 102.627L862.93 104.525C862.994 105.006 863.475 105.302 863.847 105.41C864.222 105.519 864.764 105.519 865.045 105.146L866.428 103.359L866.398 105.645C866.398 106.063 866.709 106.359 866.911 106.482C867.424 106.825 868.153 106.901 868.651 106.685C869.803 106.157 870.392 104.681 870.734 103.623C872.319 98.7422 872.196 93.3809 871.868 88.7637C871.698 86.2939 871.417 83.4492 870.409 80.9004C869.847 79.5 869.056 78.1318 868.294 76.8281C867.269 75.0703 866.196 73.2363 865.619 71.2178L865.294 70.0342L866.475 70.2685C866.521 70.2832 866.583 70.2363 866.63 70.207C866.77 70.081 866.864 69.8643 866.864 69.6768C866.847 69.1963 866.521 68.6982 866.117 68.1387C864.562 65.9473 862.962 63.6797 861.189 61.6113C860.536 60.8496 859.836 60.0879 859.168 59.3408C858.02 58.084 856.836 56.792 855.781 55.3945C855.143 54.5537 854.536 53.6543 853.944 52.7842C852.034 49.9541 850.045 47.0332 847.045 45.9287C845.645 45.416 844.092 45.3223 842.598 45.2461L836.908 44.9355C836.255 44.9033 835.587 44.8564 835.013 45.0439C834.392 45.2285 833.847 45.6973 833.302 46.1308C832.121 47.1094 830.63 48.4307 829.183 49.7051C827.876 50.8564 826.54 52.0518 825.406 53.001L826.323 55.7373C826.446 56.124 826.634 56.6689 826.54 57.2607C826.508 57.4922 826.432 57.6943 826.37 57.8496C826.323 57.958 826.291 58.0664 826.276 58.1455C826.229 58.3945 826.306 58.7373 826.417 59.0625C826.602 59.7012 826.836 60.3369 827.053 60.9756C827.442 62.0771 827.847 63.2285 828.078 64.4414C828.327 65.7158 828.547 68.0918 827.27 69.9902C827.659 71.6982 827.738 73.4092 827.504 75.1025ZM819.544 93.3809C819.374 93.1465 819.204 92.8975 819.031 92.6514C818.674 92.1211 818.176 91.3916 817.897 91.1748C817.742 91.0488 817.587 90.9258 817.414 90.8144C817.013 90.5684 816.515 90.4277 816.017 90.3018C815.735 90.2256 815.223 90.0996 814.771 89.9912L814.71 89.9766C814.479 89.915 814.244 89.8682 814.042 89.8066C813.825 90.1641 813.623 90.4746 813.406 90.7529C813.031 91.2363 812.627 91.6699 812.24 92.1064C811.695 92.6953 811.197 93.2256 810.808 93.8467C810.515 94.3125 810.266 94.8428 810.017 95.3848C809.735 95.9912 809.457 96.5977 809.082 97.1719C808.757 97.6699 808.353 98.1533 807.872 98.6191C808.88 99.7676 810.11 101.695 811.121 103.266C811.479 103.825 811.818 104.37 812.1 104.789L814.291 102.627C815.085 101.851 815.891 101.042 816.576 100.189C817.432 99.0996 817.883 97.7783 818.363 96.3633C818.659 95.417 819.017 94.3594 819.544 93.3809ZM748.256 158.845C748.303 158.83 748.382 158.798 748.443 158.769C748.584 158.707 748.739 158.628 748.941 158.581C749.064 158.552 749.173 158.552 749.281 158.552C750.061 158.552 750.649 159.108 751.101 159.53L751.118 159.545C751.194 159.624 751.273 159.7 751.35 159.762C752.267 160.57 753.696 160.696 754.66 160.028C755.328 159.577 755.797 158.798 756.169 158.115C757.256 156.064 757.941 153.855 758.22 151.526C758.346 150.498 758.375 149.443 758.422 148.418C758.486 146.956 758.53 145.447 758.812 143.988C758.873 143.675 758.935 143.35 758.999 143.007C759.479 140.566 760.133 137.273 759.884 134.909C758.797 134.956 757.769 134.927 756.761 134.833L756.667 134.815C756.371 134.786 756.09 134.754 755.858 134.801C755.656 134.848 755.454 134.941 755.22 135.05L755.097 135.111C751.317 136.931 746.609 136.588 743.003 134.273C742.66 136.292 742.054 138.284 741.509 140.039C740.888 142.09 740.234 144.205 739.956 146.335C739.909 146.722 739.877 147.097 740.018 147.328C740.079 147.437 740.22 147.562 740.343 147.671C740.501 147.812 740.703 147.981 740.858 148.198C741.339 148.837 741.386 149.613 741.418 150.234C741.433 150.592 741.465 150.935 741.541 151.198C741.696 151.664 742.086 152.068 742.52 152.505C742.848 152.83 743.173 153.173 743.454 153.592C743.779 154.075 743.996 154.603 744.198 155.101C744.494 155.815 744.758 156.483 745.27 156.794C745.396 156.873 745.552 156.935 745.707 156.996C745.924 157.09 746.173 157.184 746.422 157.339C746.812 157.588 747.075 157.881 747.339 158.177L747.353 158.191C747.447 158.303 747.541 158.394 747.635 158.487C747.931 158.783 748.162 158.862 748.256 158.845ZM729.526 126.27C729.588 126.158 729.603 125.959 729.635 125.771C729.664 125.555 729.696 125.335 729.758 125.104C729.913 124.62 730.209 124.233 730.443 123.923L730.52 123.829C731.126 123.05 731.624 122.197 732.011 121.28C732.011 121.263 732.075 121.14 732.169 120.984C731.841 120.595 731.592 120.161 731.36 119.771L728.328 114.565C727.599 115.017 726.682 115.623 725.949 116.136L725.56 116.399L725.653 116.555L725.375 116.71C725.313 116.757 725.234 116.786 725.173 116.818L725.779 122.88C725.902 124.14 726.043 125.569 726.682 126.688C727.101 127.403 727.924 128.15 728.826 128.212C729.011 127.356 729.526 126.284 729.526 126.27ZM765.216 35.4053C764.158 36.0908 763.071 36.7266 761.967 37.3183C761.967 37.3974 761.967 37.4883 761.952 37.5674L765.216 35.4053ZM831.204 3.35741C829.229 4.18065 827.24 5.39354 824.97 7.166C824.814 7.40038 824.425 7.84862 823.493 8.92089C822.685 9.85546 821.58 11.1445 820.183 12.7471C820.136 12.8086 815.363 18.2637 815.316 18.3105C812.659 20.5019 810.562 21.7617 808.71 22.8808C806.876 23.9824 805.276 24.9463 803.627 26.5488C804.808 28.5058 806.814 29.7187 808.757 30.791C809.302 31.1016 809.861 31.3799 810.403 31.6611C811.695 32.3291 813.157 33.0908 814.461 34.0224L814.634 33.9287L814.771 34.2099C814.789 34.2422 814.804 34.2715 814.818 34.2891C815.146 34.5351 815.425 34.7549 815.659 34.9717C816.966 36.123 818.02 37.4736 818.861 38.6543C819.919 40.1308 820.93 41.6689 821.829 43.2392C821.894 43.3476 821.923 43.459 822.157 44.1269C822.28 44.5137 822.544 45.3076 822.717 45.7266C822.778 45.8203 822.825 45.9141 822.872 46.0224C823.959 40.831 827.612 34.6289 830.612 31.5996C831.359 30.8525 832.168 30.1846 832.959 29.5312C833.349 29.206 833.753 28.8779 834.125 28.5527C838.385 24.8379 843.081 20.3935 844.897 14.4873C845.146 13.6641 845.568 12.8848 845.973 12.1406C846.359 11.4082 846.734 10.7256 846.951 10.0107C846.919 9.88475 846.934 9.74706 846.951 9.65331C846.966 9.51268 846.998 9.32518 847.045 9.09374C847.215 8.09764 847.525 6.24901 847.417 4.94237C847.37 4.61718 847.338 4.33593 847.276 4.07225C847.2 3.68553 847.106 3.29589 846.904 3.04686C846.811 2.93846 846.702 2.84471 846.547 2.76854C846.453 2.75096 846.33 2.72167 846.157 2.67479C845.77 2.56639 845.132 2.36425 844.183 2.29979H844.168C839.287 1.66405 835.027 2.02147 831.204 3.35741ZM824.876 56.2324L822.468 48.9609C822.233 48.2461 821.984 47.5137 821.645 46.8457C821.565 46.7373 821.489 46.5967 821.395 46.3945C821.316 46.2568 821.223 46.1308 821.132 46.0078C820.244 44.7949 817.912 43.9541 816.002 43.7519C816.327 45.3545 816.406 46.9541 816.204 48.5098C816.948 49.831 817.54 51.1201 818.132 52.3623C818.645 53.4668 819.187 54.6182 819.825 55.7988C820.013 56.1416 820.229 56.5283 820.417 56.9473C821.955 57.0732 823.944 57.167 825.031 57.1348C825.049 57.1055 825.049 57.0732 825.049 57.0586C825.078 56.8242 824.97 56.5137 824.876 56.2324ZM789.529 40.084C792.576 42.0586 795.497 44.25 798.219 46.5967C798.389 46.6904 799.259 47.0478 799.587 47.1416C800.565 46.9717 801.963 46.9248 803.316 46.8603C804.342 46.8164 805.306 46.7842 805.912 46.7051C805.974 46.6904 806.053 46.6904 806.146 46.6904C806.721 46.6904 807.731 46.8779 809.442 47.2031C811.197 47.5312 813.562 47.9795 814.742 47.9648C815.223 42.9141 812.486 37.4267 808.136 34.8164C807.187 34.2422 806.146 33.7734 805.136 33.3252C804.14 32.874 803.114 32.4228 802.136 31.8486C801.793 31.6465 801.45 31.4267 801.125 31.2246C800.146 30.6035 799.212 30.0146 798.201 29.8125C797.082 29.5781 795.916 29.8125 794.674 30.0615C794.129 30.1699 793.569 30.2783 793.01 30.3545C791.876 30.4951 790.725 30.4805 789.714 30.4189C789.869 33.3398 789.808 36.8203 789.529 40.084ZM777.093 62.3115C776.346 61.7988 775.306 61.1748 774.295 60.5859H774.277C773.407 60.0732 772.645 59.6221 771.963 59.1855C768.154 60.709 759.23 63.4131 756.837 64.1279L758.407 72.1816C758.577 73.0195 758.779 74.0596 758.469 75.0703C758.439 75.1963 758.393 75.3047 758.346 75.4453C758.267 75.6621 758.19 75.8789 758.205 75.9873C758.237 76.1894 758.609 76.4707 758.797 76.6113L766.786 82.6553C767.035 82.8428 767.36 83.0918 767.624 83.4346C770.064 82.9658 778.818 81.9111 782.627 82.1894C782.548 81.8643 782.501 81.5537 782.472 81.2578C781.865 76.6406 781.476 71.9326 781.306 67.2832C781.288 66.7412 781.273 66.2285 781.071 65.8242C780.948 65.5605 780.728 65.2939 780.526 65.0771C779.548 64.0049 778.306 63.1494 777.093 62.3115ZM798.685 48.416C798.172 48.2285 797.472 47.918 797.316 47.7949C794.58 45.4482 791.656 43.2568 788.612 41.2822C786.931 41.7334 784.927 42.2607 782.984 42.7881C780.916 43.3476 778.786 43.9248 777.014 44.3906C775.895 44.6865 773.562 45.0439 772.024 45.2754C772.599 46.3008 773.19 47.6221 773.313 48.2139C773.873 50.6836 774.046 53.2031 773.812 55.6904C773.782 56.0947 773.425 57.2754 773.035 58.0986C773.642 58.4707 774.324 58.875 774.992 59.2793L775.01 59.2969C776.035 59.9004 777.107 60.5391 777.884 61.0664C779.158 61.9541 780.479 62.8535 781.584 64.0518C781.739 64.2217 781.941 64.4414 782.129 64.7197L782.797 64.6582C786.978 64.2861 793.88 63.6797 798.078 64.0371C797.782 63.1201 797.703 62.2324 797.674 61.6113C797.548 59.3584 797.876 57.1201 798.172 54.958C798.512 52.8135 798.84 50.6074 798.685 48.416ZM744.588 82.5791C746.22 86.2939 747.324 91.0635 747.79 94.1572C748.364 94.7783 749.126 95.8506 749.858 96.8936L749.873 96.9082C750.479 97.7783 751.118 98.666 751.584 99.2256C751.848 98.9297 752.267 98.5723 752.873 98.7275C753.184 98.8037 753.573 98.7422 753.978 98.6807C754.133 98.6484 754.303 98.6338 754.458 98.6016C754.722 98.5723 754.988 98.5547 755.252 98.5547C756.682 98.5547 758.064 98.9912 759.31 99.3809C760.631 99.7998 762.263 100.233 763.862 100.655C764.92 100.934 766.086 101.244 767.158 101.54C766.241 95.8213 765.588 90.6445 766.522 85.3916C766.584 85.0488 766.645 84.7383 766.569 84.5215C766.49 84.3047 766.212 84.0703 765.898 83.8535L757.909 77.8066C757.707 77.6514 757.382 77.417 757.133 77.0771C755.609 77.7598 753.884 78.583 752.346 79.3154C750.465 80.2148 748.537 81.1494 746.858 81.8643C746.234 82.1601 745.443 82.5 744.588 82.5791ZM754.505 125.848C756.743 125.133 759.122 124.84 761.422 124.544C764.718 124.14 767.826 123.75 770.533 122.244C771.433 121.746 772.288 121.107 773.111 120.501C773.735 120.035 774.371 119.569 775.039 119.15C775.414 118.916 775.818 118.699 776.27 118.529C775.895 115.078 773.284 111.551 770.984 108.425C769.707 106.685 768.371 104.897 767.609 103.28C766.35 102.908 764.844 102.504 763.505 102.146C761.891 101.728 760.227 101.276 758.888 100.857C757.552 100.436 756.043 99.9551 754.66 100.125C754.537 100.143 754.396 100.157 754.273 100.189H754.241C753.775 100.266 753.245 100.359 752.718 100.251C752.686 100.28 752.656 100.327 752.609 100.374C752.454 100.562 752.281 100.764 752.035 100.887C750.526 107.959 750.635 117.861 751.382 124.248C752.501 124.31 753.79 124.808 754.505 125.848ZM795.201 108.425C795.746 107.883 796.197 107.229 796.678 106.544C796.833 106.312 797.006 106.078 797.161 105.847C797.75 105.021 798.436 104.215 799.15 103.453C798.421 102.659 797.082 101.074 794.457 97.9512C792.84 96.0234 788.844 91.251 786.62 88.3769C785.486 86.915 784.414 85.3769 783.403 83.792C781.522 83.2002 770.905 84.3955 768.075 84.8643C768.075 85.1572 768.028 85.4385 767.981 85.7168C767.003 91.2656 767.952 97.0957 768.775 102.24C769.414 103.778 770.75 105.58 772.165 107.493C774.512 110.681 777.169 114.284 777.714 118.031C778.273 117.891 778.848 117.797 779.439 117.688L779.501 117.674C780.901 117.425 782.223 117.208 783.356 116.446L792.934 110.104C793.739 109.605 794.548 109.078 795.201 108.425ZM801.591 66.7412L801.793 66.5068L816.468 79.3447C817.836 76.7812 820.555 71.4814 820.197 67.7197C820.121 66.9258 819.948 66.1025 819.778 65.2939C819.515 64.0371 819.233 62.7451 819.295 61.4238C819.312 61.0986 819.342 60.7734 819.374 60.46C819.436 59.9004 819.497 59.373 819.436 58.875C819.342 58.0518 818.894 57.2285 818.489 56.499C817.836 55.2861 817.291 54.1201 816.764 52.9863C816.157 51.6943 815.645 50.6074 815.006 49.456C813.793 49.5205 811.725 49.1631 809.176 48.6797C808.074 48.4775 806.41 48.167 806.114 48.1992C805.446 48.29 804.436 48.3223 803.378 48.3691C802.273 48.416 801.046 48.4629 800.176 48.5713C800.302 50.8418 799.974 53.1416 799.678 55.1777C799.385 57.2607 799.071 59.4199 799.197 61.5351C799.273 62.8389 799.508 63.8027 799.944 64.5322C800.378 65.2793 801.093 65.8857 801.761 66.4922L801.591 66.7412ZM815.612 42.1992C816.966 42.2754 818.753 42.6797 820.244 43.4414C819.453 42.1055 818.598 40.7988 817.681 39.5244C816.919 38.4697 815.984 37.2568 814.865 36.2461C814.648 36.9287 814.276 37.5996 813.934 38.2031C813.901 38.2676 813.872 38.3144 813.84 38.3584C814.587 39.5566 815.193 40.8457 815.612 42.1992ZM743.126 61.4883L742.971 61.6435C740.313 64.1455 738.479 67.4385 736.707 70.626C735.664 72.5068 734.577 74.4346 734.111 76.5469C733.924 77.3555 733.83 78.2109 733.754 79.0342C733.754 79.081 733.736 79.1279 733.736 79.1894C733.783 79.1894 733.83 79.1894 733.892 79.1894C736.505 79.1894 740.064 79.7959 742.411 80.6514L742.645 80.7275C743.126 80.9004 743.562 81.0703 743.996 81.1025C744.743 81.1641 745.537 80.8213 746.234 80.5107C747.898 79.7959 749.826 78.8643 751.678 77.9766C753.386 77.1533 755.144 76.3154 756.743 75.6152C756.79 75.3369 756.884 75.1025 756.945 74.915L756.963 74.8857C756.992 74.8066 757.024 74.7305 757.039 74.6367C757.241 73.9834 757.071 73.1748 756.945 72.4746L755.313 64.084C753.978 63.3047 748.49 60.3369 743.313 60.8174C743.267 60.9756 743.234 61.1133 743.187 61.2861L743.126 61.4883ZM733.505 80.9297C732.992 83.9941 731.671 86.8066 730.379 89.5107C730.068 90.1787 729.743 90.8789 729.433 91.5615C728.111 94.4678 726.696 98.291 727.379 102.023C727.443 102.363 727.52 102.721 727.613 103.063C727.643 103.172 727.66 103.266 727.689 103.374C735.96 100.233 741.884 97.2978 746.281 94.1719C745.769 90.8935 744.573 85.9365 742.848 82.3916C742.599 82.3154 742.364 82.2363 742.147 82.1426L741.931 82.0664C739.66 81.2402 735.975 80.6367 733.552 80.6982C733.534 80.7744 733.52 80.8535 733.505 80.9297ZM803.937 99.6123C805.461 98.6338 806.891 97.7021 807.793 96.3193C808.104 95.8359 808.353 95.291 808.616 94.7314C808.88 94.1572 809.161 93.5684 809.519 93.0088C809.984 92.2764 810.544 91.6699 811.104 91.0635C811.479 90.6592 811.865 90.2402 812.193 89.8066C813.312 88.3301 813.966 86.4785 814.587 84.709L815.829 81.1494C815.861 81.085 815.908 80.9297 815.908 80.8535C815.876 80.792 815.753 80.6982 815.688 80.6514L800.814 67.6406C800.208 67.1133 799.446 66.4453 798.887 65.6367C795.017 65.1094 787.212 65.792 782.984 66.1641L782.721 66.1816C782.782 66.5391 782.797 66.8965 782.812 67.2539C782.967 71.8535 783.356 76.5176 783.963 81.085C784.01 81.4277 784.057 81.7705 784.165 82.0488C784.259 82.2832 784.399 82.5176 784.569 82.7812C785.565 84.3809 786.667 85.9512 787.833 87.4424C791.082 91.6406 798.342 100.219 800.237 102.396C800.999 101.695 801.808 101.042 802.631 100.482C803.053 100.189 803.504 99.9082 803.937 99.6123ZM766.631 36.293L761.999 39.3545C764.439 42.6504 769.678 43.7842 770.501 43.9394C771.169 43.8457 775.165 43.3037 776.627 42.9141C778.353 42.4629 780.465 41.8887 782.501 41.3437L782.58 41.3291C784.446 40.831 786.389 40.3037 788.035 39.8672C788.299 36.6826 788.363 33.1523 788.208 30.3252C787.306 30.2607 786.371 30.1846 785.454 30.1992C782.999 30.2314 780.544 30.8057 778.165 31.3506C776.05 31.8486 773.873 32.3613 771.884 33.2139C770.05 34.04 768.31 35.1885 766.631 36.293ZM770.425 45.4629H770.378C770.097 45.416 763.725 44.2969 760.739 40.1777C758.703 41.5312 756.884 42.7881 755.267 44.3291C754.194 45.3545 753.216 46.5029 752.267 47.6221C751.317 48.7266 750.356 49.8779 749.299 50.9033C749.018 51.1816 748.707 51.4629 748.458 51.6943C747.822 52.2861 747.169 52.8926 746.624 53.5605C745.473 54.9756 744.526 56.8857 743.765 59.25C743.996 59.2324 744.23 59.2324 744.465 59.2324C749.732 59.2324 754.801 62.0156 756.09 62.7773C757.769 62.2793 767.765 59.2646 771.588 57.709C771.822 57.3076 772.335 55.9072 772.367 55.5176C772.584 53.1885 772.429 50.8242 771.901 48.5244C771.746 48.0117 770.967 46.333 770.425 45.4629ZM735.104 121.078C736.35 121.605 737.516 122.306 738.556 123.19C738.79 123.393 739.039 123.609 739.256 123.812C739.956 124.45 740.592 125.042 741.371 125.335C741.978 125.569 742.692 125.616 743.234 125.616C744.635 125.631 746.018 125.443 747.353 125.071C747.62 124.995 747.898 124.916 748.162 124.822C748.769 124.638 749.328 124.465 749.905 124.356C749.144 117.768 749.05 107.602 750.62 100.359C750.075 99.7383 749.375 98.7744 748.66 97.749C748.071 96.9229 747.465 96.0703 746.996 95.4932C746.281 95.9912 745.599 96.457 744.898 96.8936C740.671 99.5508 735.122 102.161 727.971 104.865C728.047 105.551 728.018 106.219 728.003 106.872V106.887C727.985 107.244 727.971 107.602 727.985 107.959C728.003 109.436 728.404 111.688 729.245 113.136L732.664 118.995C732.96 119.493 733.256 120.006 733.66 120.331C733.971 120.58 734.375 120.735 734.812 120.923L735.104 121.078ZM826.074 69.041C826.977 67.6113 826.789 65.7305 826.602 64.7197C826.385 63.6328 826.013 62.543 825.623 61.4883C825.389 60.8496 825.157 60.1816 824.955 59.5137C824.876 59.2324 824.8 58.9541 824.768 58.6435C823.54 58.6582 821.814 58.5644 820.912 58.4883C820.93 58.5644 820.944 58.6435 820.944 58.7051C821.02 59.373 820.959 60.0117 820.883 60.6328C820.851 60.9434 820.818 61.2217 820.804 61.5029C820.757 62.6367 820.991 63.7705 821.255 64.9834C821.442 65.8242 821.627 66.709 821.706 67.5967C821.753 68.124 821.753 68.6836 821.691 69.3193C823.013 69.1963 824.876 68.9941 826.074 69.041ZM777.822 29.874C777.931 29.8418 778.039 29.8271 778.15 29.7949C777.263 29.9678 776.36 30.1846 775.443 30.4482C776.237 30.2461 777.031 30.0615 777.822 29.874ZM742.224 131.771C742.566 131.974 742.815 132.205 743.032 132.393C743.22 132.562 743.407 132.718 743.624 132.873C746.812 135.035 751.054 135.375 754.443 133.743L754.458 133.729C754.411 133.652 754.382 133.559 754.335 133.465C753.931 132.642 753.667 132.129 753.682 131.663C753.696 130.978 753.682 130.093 753.649 129.237V129.205C753.635 128.569 753.62 127.995 753.62 127.45L753.465 127.014C753.137 126.129 752.05 125.739 751.147 125.739C750.324 125.739 749.501 126.003 748.631 126.27H748.613C748.335 126.346 748.054 126.439 747.775 126.519C746.299 126.938 744.775 127.14 743.234 127.107C742.971 127.107 742.739 127.093 742.505 127.078C742.443 128.443 742.35 130.497 742.224 131.771ZM808.057 32.1123C805.836 30.8848 803.565 29.5019 802.212 27.1084C800.659 26.9502 798.559 27.1523 795.98 27.7119C793.648 28.2099 791.27 28.5996 788.876 28.8486C790.197 28.9424 791.533 29.0185 792.808 28.8486C793.32 28.7842 793.851 28.6758 794.378 28.5674C795.295 28.3828 796.244 28.1953 797.208 28.1953C797.642 28.1953 798.078 28.2246 798.512 28.3183C799.786 28.5849 800.876 29.2822 801.934 29.9355C802.259 30.1377 802.587 30.3398 802.897 30.5273C803.797 31.0547 804.793 31.4912 805.742 31.9248C806.797 32.3906 807.887 32.8887 808.912 33.4951C810.403 34.3974 811.742 35.5635 812.876 36.9932C813.204 36.4014 813.544 35.6719 813.562 35.1885C812.363 34.3506 811.042 33.665 809.768 32.9971C809.193 32.7187 808.616 32.4228 808.057 32.1123ZM768.714 32.9033C767.858 33.5713 766.988 34.2246 766.086 34.831C767.688 33.7734 769.367 32.6865 771.169 31.8779C770.36 32.1885 769.537 32.5312 768.714 32.9033ZM760.241 38.1738C759.743 38.4053 759.292 38.625 758.858 38.8096L758.313 39.0439C757.256 39.4951 756.169 39.9463 755.299 40.6289C754.848 40.9717 754.443 41.376 754.007 41.8096C753.635 42.1846 753.277 42.542 752.905 42.8525C753.371 43.0693 753.805 43.2392 754.147 43.3183C754.18 43.2861 754.209 43.2568 754.241 43.2246C755.981 41.5605 757.941 40.2099 760.147 38.7627C760.147 38.5605 760.194 38.3584 760.241 38.1738ZM752.967 44.5137C752.36 44.2822 751.801 43.9863 751.476 43.7988C750.978 44.0625 750.465 44.2969 749.952 44.5312C749.686 44.6543 749.375 44.7949 749.079 44.9355C746.267 46.2715 743.765 48.5244 742.147 51.1523C742.675 51.3369 743.281 51.5244 743.592 51.5566C743.949 51.6006 744.479 51.7881 744.978 52.0518L745.068 51.9434L745.303 52.1601C745.335 52.1924 745.443 52.3008 745.584 52.4092C746.158 51.7412 746.794 51.1348 747.418 50.5605C747.696 50.2969 747.978 50.0478 748.241 49.7842C749.252 48.8057 750.198 47.6865 751.118 46.6142C751.769 45.8818 752.36 45.1816 752.967 44.5137ZM737.812 65.6982C736.303 65.1094 734.267 64.4883 733.162 64.3623C732.075 67.0664 730.66 69.6006 729.292 72.0557C728.855 72.832 728.469 73.5469 728.094 74.2324C729.992 74.2617 732.169 74.666 733.021 74.8389C733.628 73.0342 734.562 71.3555 735.386 69.8643C736.224 68.3555 736.985 67.0049 737.812 65.6982ZM723.664 89.3555C723.523 89.7129 723.386 90.0088 723.245 90.2725C722.202 92.1533 721.13 94.081 720.509 96.1465C720.043 97.7168 719.624 100.049 720.386 102.316C720.447 102.472 720.494 102.645 720.556 102.8C720.617 102.955 720.679 103.125 720.726 103.298C721.707 102.894 723.837 102.1 725.375 101.959C725.451 101.959 725.624 101.944 725.855 101.944C725.234 97.9189 726.711 93.9404 728.079 90.9082C728.39 90.2109 728.732 89.5107 729.043 88.8428L729.075 88.7812C726.649 88.8574 724.754 89.0596 723.664 89.3555ZM724.162 115.512C724.426 115.342 724.754 115.125 725.094 114.891L725.141 114.861C725.902 114.349 726.852 113.71 727.613 113.244C726.805 111.486 726.494 109.342 726.479 107.991C726.479 107.587 726.494 107.183 726.494 106.825C726.509 106.187 726.541 105.598 726.479 105.021C726.433 104.508 726.307 103.995 726.184 103.453H726.151C725.902 103.453 725.639 103.468 725.545 103.468C724.317 103.576 722.437 104.229 721.021 104.836C721.036 105.425 720.945 105.984 720.852 106.562V106.576C720.819 106.793 720.772 107.027 720.743 107.259C720.321 110.353 721.722 113.71 724.162 115.512ZM730.534 130.963C731.032 131.833 731.949 132.533 732.913 132.797C734.765 133.295 736.754 132.718 738.509 132.205C738.931 132.082 739.364 131.974 739.801 131.862L739.877 131.848C740.158 131.771 740.454 131.692 740.718 131.631C740.841 130.248 740.949 127.854 740.996 126.844C740.949 126.829 740.888 126.812 740.826 126.782C739.801 126.378 739.007 125.663 738.23 124.963L738.216 124.948C737.996 124.761 737.779 124.559 737.562 124.371C736.645 123.595 735.617 122.959 734.516 122.508L734.234 122.399C733.956 122.291 733.645 122.165 733.35 121.995C732.913 122.988 732.353 123.938 731.686 124.808L731.609 124.901C731.422 125.15 731.234 125.382 731.173 125.602C731.141 125.71 731.126 125.865 731.094 126.021C731.064 126.316 731.018 126.688 730.83 127.031C730.736 127.216 730.581 127.573 730.458 127.948L730.552 127.931L730.209 129.19C730.039 129.873 730.288 130.544 730.534 130.963ZM756.884 133.324C761.999 133.837 767.176 132.237 772.039 130.512C771.775 130.093 771.465 129.609 771.371 129.486C770.92 128.895 770.858 128.18 770.812 127.605L770.797 127.418C770.718 126.642 770.223 125.32 769.771 124.324C767.19 125.382 764.375 125.739 761.671 126.067C759.605 126.331 757.273 126.609 755.158 127.277C755.158 127.854 755.173 128.49 755.19 129.223C755.22 130.107 755.237 131.024 755.22 131.754C755.252 131.927 755.595 132.609 755.703 132.844C755.779 133.014 755.858 133.169 755.935 133.31C756.245 133.295 756.541 133.31 756.837 133.339L756.884 133.324ZM773.533 130.093L773.58 130.107C773.92 130.216 774.356 130.107 774.808 129.967C778.739 128.848 782.609 127.187 786.31 125.01C786.248 124.884 786.169 124.746 786.093 124.591L786.078 124.559C785.595 123.674 784.941 122.461 784.663 121.822C784.273 120.938 783.263 119.493 782.609 118.544L782.595 118.512C781.631 118.854 780.638 119.024 779.75 119.18L779.609 119.212C778.259 119.446 776.999 119.663 775.88 120.393C775.259 120.797 774.635 121.248 774.046 121.685C773.205 122.306 772.273 122.988 771.295 123.548C771.23 123.58 771.169 123.609 771.107 123.642C771.635 124.808 772.194 126.284 772.288 127.263L772.306 127.465C772.335 127.901 772.382 128.306 772.552 128.537C772.552 128.569 773.158 129.393 773.533 130.093ZM783.963 117.891C784.678 118.934 785.595 120.284 786.031 121.233C786.28 121.808 786.916 122.988 787.382 123.844L787.414 123.891C787.584 124.216 787.739 124.497 787.851 124.699C788.548 124.884 789.465 124.482 790.259 124.031C792.638 122.725 795.107 121.356 797.053 119.446C797.331 119.165 797.612 118.869 797.891 118.576C798.342 118.107 798.778 117.642 799.244 117.223C798.699 116.385 797.876 114.984 797.642 114.208C797.486 113.678 796.988 112.872 796.508 112.078C796.136 111.457 795.746 110.818 795.45 110.229C794.905 110.663 794.331 111.038 793.818 111.378L784.244 117.721C784.197 117.75 784.15 117.782 784.103 117.814C784.042 117.861 784.01 117.876 783.963 117.891ZM820.244 91.7959C820.291 91.8574 820.338 91.9336 820.385 91.998C822.389 88.9189 823.587 85.3447 823.883 81.6152L823.897 81.4893C823.897 81.4424 823.897 81.3984 823.912 81.3516C823.385 81.1641 822.746 80.9766 822.421 80.9473C822.157 80.915 821.876 80.8828 821.504 80.8213C820.244 80.6367 818.533 80.3877 817.414 81.0557C817.385 81.2871 817.323 81.4893 817.259 81.6768L816.017 85.2363C815.645 86.2939 815.27 87.3809 814.771 88.4385C814.883 88.4678 814.991 88.4853 815.1 88.5146L815.146 88.5322C815.645 88.6553 816.11 88.7637 816.389 88.8428C816.966 88.998 817.602 89.168 818.176 89.5254C818.425 89.6807 818.627 89.8359 818.829 90.0088C819.266 90.3662 819.764 91.0957 820.244 91.7959ZM821.706 79.3301C822.002 79.3769 822.298 79.4238 822.529 79.4385C823.013 79.4853 823.71 79.7021 824.223 79.875C824.316 79.6406 824.442 79.4238 824.565 79.207L824.645 79.0664C826.06 76.4707 826.493 73.456 825.872 70.5644C824.738 70.5498 822.966 70.7344 821.753 70.875L821.489 70.9072C820.897 73.8281 819.453 76.9365 818.287 79.207C818.645 79.1426 819.017 79.1279 819.374 79.1279C820.215 79.1279 821.02 79.251 821.691 79.3447L821.706 79.3301ZM779.937 27.7441L779.999 27.791C780.107 27.8379 780.526 27.9463 781.833 27.7588C782.27 27.6973 782.703 27.6973 783.14 27.6826C783.324 27.6826 783.497 27.6826 783.685 27.668H783.714C784.057 27.6504 784.399 27.6357 784.739 27.6211C787.663 27.4805 790.616 27.1523 793.537 26.625C794.612 24.4336 794.75 19.9424 793.786 18.0469C792.638 15.7764 790.692 14.0361 788.937 12.6211C787.353 11.332 785.425 9.93163 783.233 9.21678C781.757 8.73632 780.216 8.59569 778.49 8.45507C774.761 8.15917 771.403 8.02147 768.31 8.02147C765.559 8.02147 763.01 8.12987 760.569 8.36132C759.696 8.44042 758.671 8.54882 757.692 8.76561C756.386 9.03221 755.082 9.46581 753.822 9.90233L741.433 14.0508C741.028 14.1914 740.949 14.2676 740.935 14.2998C740.92 14.332 740.935 14.4551 740.935 14.5342C740.935 14.751 740.935 15.0469 740.826 15.3574C740.562 16.0107 739.941 16.2422 739.566 16.3828C735.805 17.7978 732.526 20.4551 730.332 23.8271C730.021 24.293 729.743 24.8057 729.772 25.2568C729.805 25.7871 730.27 26.2822 730.645 26.5928C732.617 28.2422 735.617 28.5381 739.581 27.4658C740.205 27.293 740.826 27.1084 741.447 26.9209C744.09 26.1269 746.812 25.3037 749.656 25.7402C750.169 25.8164 750.649 25.9424 751.133 26.0508C751.458 26.1269 751.801 26.206 752.144 26.2676C753.31 26.4844 754.522 26.5488 755.703 26.5928C761.53 26.8271 767.562 27.0762 773.425 26.5488C775.476 26.376 778.086 26.1269 779.937 27.7441ZM724.675 84.1787C724.566 85.2832 724.44 86.5107 724.177 87.6914C725.855 87.3955 728.079 87.2871 729.772 87.2578C730.722 85.1894 731.639 82.9658 732.028 80.666C732.122 80.0771 732.198 79.4531 732.26 78.8467C732.353 78.0088 732.447 77.1533 732.635 76.2978C730.985 75.9726 728.747 75.6621 727.285 75.7705C726.603 77.0918 726.058 78.2578 725.606 79.3447C725 80.8066 724.845 82.5322 724.675 84.1787ZM808.385 109.172C809.255 108.038 810.11 106.919 811.027 105.894C810.685 105.396 810.28 104.757 809.844 104.074C808.851 102.519 807.638 100.608 806.721 99.583C806.114 100.031 805.476 100.453 804.778 100.904C804.374 101.168 803.923 101.464 803.486 101.757C802.663 102.334 801.869 102.97 801.11 103.67L801.172 103.793L800.642 104.121C799.818 104.944 799.057 105.829 798.374 106.764C798.233 106.966 798.078 107.168 797.937 107.37L797.891 107.432C797.472 108.038 797.035 108.627 796.555 109.172C796.786 109.778 797.284 110.587 797.735 111.316C798.295 112.233 798.825 113.089 799.042 113.804C799.197 114.284 799.818 115.403 800.41 116.32C800.486 116.273 800.548 116.227 800.627 116.183C801.046 115.916 801.468 115.685 801.887 115.45C802.15 115.31 802.399 115.172 802.648 115.017C804.98 113.663 806.627 111.486 808.385 109.172ZM733.66 62.1709L733.956 62.2793C733.877 62.4814 733.801 62.6982 733.722 62.9004C735.26 63.167 737.422 63.8965 738.664 64.4092C739.692 62.918 740.718 61.6904 741.775 60.6621C741.805 60.5391 741.837 60.416 741.866 60.3047L741.898 60.167L741.758 59.4814L742.068 59.4199C742.086 59.4199 742.086 59.4199 742.101 59.4199C742.786 57.1201 743.639 55.1601 744.682 53.6221L744.667 53.6074C744.245 53.3262 743.703 53.0771 743.437 53.0478C742.862 52.9863 741.775 52.6435 741.075 52.333C739.256 53.2646 737.577 54.9141 736.241 57.0879C735.26 58.6728 734.592 60.5068 733.938 62.2793L733.66 62.1709ZM719.343 106.28C719.451 105.627 719.56 105.021 719.469 104.446C719.404 104.074 719.267 103.699 719.126 103.312C719.064 103.125 719 102.955 718.938 102.782C718.238 100.685 718.27 98.2295 719.047 95.6953C719.267 94.9805 719.53 94.251 719.888 93.4746C719.483 93.3662 719.079 93.3193 718.689 93.3193C716.545 93.3193 714.649 94.8105 712.675 96.3633C710.87 97.7783 709.007 99.2549 706.859 99.5654C706.596 99.5977 706.054 99.6914 705.895 99.9082C705.787 100.078 705.787 100.421 705.787 100.731C705.819 101.432 705.772 102.038 705.726 102.565C705.556 104.634 705.477 105.58 711.058 108.396C711.198 108.331 711.462 108.129 711.881 107.804C713.234 106.717 715.707 104.742 719.187 107.479C719.202 107.338 719.22 107.197 719.234 107.074C719.267 106.778 719.311 106.529 719.343 106.28Z" fill="#751111" fill-opacity="0.2"/>
</g>
</svg>
