<svg width="716" height="80" viewBox="0 0 716 80" fill="none" xmlns="http://www.w3.org/2000/svg">
<rect y="40" width="300" height="2" fill="white"/>
<rect x="416" y="40" width="300" height="2" fill="white"/>
<g clip-path="url(#clip0_177_12)">
<mask id="mask0_177_12" style="mask-type:luminance" maskUnits="userSpaceOnUse" x="319" y="1" width="78" height="78">
<path d="M319.147 1.10791H396.737V78.6983H319.147V1.10791Z" fill="white"/>
</mask>
<g mask="url(#mask0_177_12)">
<mask id="mask1_177_12" style="mask-type:luminance" maskUnits="userSpaceOnUse" x="319" y="1" width="78" height="78">
<path d="M357.942 1.10791C336.516 1.10791 319.147 18.4771 319.147 39.9031C319.147 61.3292 336.516 78.6983 357.942 78.6983C379.368 78.6983 396.737 61.3292 396.737 39.9031C396.737 18.4771 379.368 1.10791 357.942 1.10791Z" fill="white"/>
</mask>
<g mask="url(#mask1_177_12)">
<path d="M319.147 1.10791H396.737V78.6983H319.147V1.10791Z" fill="white"/>
</g>
</g>
<mask id="mask2_177_12" style="mask-type:luminance" maskUnits="userSpaceOnUse" x="318" y="0" width="80" height="80">
<path d="M318.116 0.132446H397.884V79.9015H318.116V0.132446Z" fill="white"/>
</mask>
<g mask="url(#mask2_177_12)">
<mask id="mask3_177_12" style="mask-type:luminance" maskUnits="userSpaceOnUse" x="318" y="0" width="80" height="80">
<path d="M358 79.9015C347.351 79.9015 337.325 75.7558 329.801 68.2171C322.26 60.6928 318.116 50.6654 318.116 40.0178C318.116 29.3686 322.26 19.3411 329.801 11.8169C337.325 4.27812 347.351 0.132446 358 0.132446C368.649 0.132446 378.675 4.27812 386.199 11.8169C393.74 19.3573 397.884 29.3686 397.884 40.0178C397.884 50.6654 393.74 60.6928 386.199 68.2171C378.675 75.7558 368.649 79.9015 358 79.9015ZM358 2.52424C347.989 2.52424 338.568 6.42928 331.49 13.5078C324.413 20.5846 320.506 30.0065 320.506 40.0178C320.506 50.0275 324.413 59.4493 331.49 66.5262C338.568 73.6047 347.989 77.5097 358 77.5097C368.011 77.5097 377.432 73.6047 384.51 66.5262C391.587 59.4493 395.494 50.0275 395.494 40.0178C395.494 30.0065 391.587 20.5846 384.51 13.5078C377.432 6.42928 368.011 2.52424 358 2.52424Z" fill="white"/>
</mask>
<g mask="url(#mask3_177_12)">
<path d="M318.116 0.132446H397.884V79.9015H318.116V0.132446Z" fill="black"/>
</g>
</g>
<path d="M339.819 17.4969L337.881 19.1313L338.243 20.2166L337.087 21.192L335.259 15.1584L336.415 14.183L342.016 17.0318L340.814 18.046L339.819 17.4969ZM338.76 16.9285L336.757 15.8238L337.487 18.0008L338.76 16.9285Z" fill="#8D0404"/>
<path d="M345.49 13.0908L346.672 13.4978C346.452 14.2568 346.023 14.8657 345.386 15.3259L345.399 15.7652C345.567 15.7265 345.724 15.7361 345.871 15.7911C346.021 15.8476 346.136 15.9493 346.213 16.0947C346.329 16.324 346.338 16.5517 346.239 16.7794C346.139 17.0023 345.956 17.1864 345.69 17.3285C345.448 17.4529 345.175 17.4981 344.87 17.4642L344.831 16.8246C344.989 16.8683 345.136 16.8553 345.27 16.7859C345.36 16.7391 345.42 16.6745 345.451 16.5921C345.485 16.5113 345.48 16.4306 345.438 16.3531C345.399 16.2723 345.336 16.2223 345.251 16.2045C345.163 16.1835 345.067 16.2013 344.96 16.2562C344.899 16.2917 344.818 16.3515 344.714 16.4371L344.689 15.7006C343.96 15.9897 343.248 16.0042 342.55 15.7458C341.858 15.4874 341.329 15.0142 340.968 14.3246C340.585 13.5882 340.525 12.8356 340.787 12.0637C341.05 11.2933 341.572 10.7038 342.35 10.2936C342.728 10.0966 343.145 9.9771 343.597 9.93834C344.049 9.89958 344.471 9.9448 344.863 10.074L344.585 11.3595C344.309 11.2481 344.023 11.1948 343.726 11.198C343.432 11.198 343.172 11.2562 342.944 11.3725C342.539 11.5889 342.274 11.9119 342.15 12.3414C342.03 12.7678 342.079 13.1909 342.298 13.6076C342.526 14.0388 342.851 14.3279 343.274 14.4732C343.695 14.6202 344.109 14.5863 344.514 14.3699C344.734 14.2584 344.929 14.0889 345.102 13.8595C345.278 13.627 345.407 13.3718 345.49 13.0908Z" fill="#8D0404"/>
<path d="M349.047 7.72664C349.912 7.49408 350.704 7.5716 351.424 7.9592C352.148 8.34356 352.619 8.93949 352.839 9.7486C353.058 10.5674 352.95 11.3281 352.516 12.029C352.085 12.7315 351.439 13.1982 350.578 13.4308C349.715 13.6633 348.924 13.5842 348.201 13.1918C347.48 12.8009 347.012 12.1937 346.792 11.3701C346.573 10.5561 346.679 9.80513 347.109 9.11553C347.538 8.4227 348.184 7.9592 349.047 7.72664ZM349.376 8.90881C348.94 9.02509 348.611 9.28349 348.388 9.684C348.168 10.0845 348.12 10.5206 348.246 10.9889C348.37 11.4589 348.63 11.8142 349.027 12.0548C349.423 12.2922 349.837 12.352 350.268 12.2357C350.702 12.1194 351.025 11.861 351.237 11.4605C351.452 11.0567 351.497 10.6191 351.372 10.1491C351.246 9.68077 350.991 9.32709 350.604 9.08969C350.219 8.8539 349.811 8.79253 349.376 8.90881Z" fill="#8D0404"/>
<path d="M359.525 6.53564L359.628 9.89482C359.654 10.6619 359.436 11.2772 358.975 11.7424C358.514 12.2042 357.879 12.4465 357.07 12.4723C356.251 12.4982 355.594 12.2963 355.099 11.8651C354.604 11.4307 354.344 10.8299 354.318 10.0628L354.214 6.7036L355.687 6.65838L355.791 10.0176C355.804 10.4019 355.923 10.7055 356.152 10.9284C356.385 11.148 356.679 11.2546 357.037 11.2449C357.39 11.232 357.667 11.1093 357.871 10.8767C358.078 10.6442 358.174 10.3325 358.161 9.94004L358.058 6.58086L359.525 6.53564Z" fill="#8D0404"/>
<path d="M365.251 10.2734L366.498 10.5124L366.065 12.7346C365.711 12.8929 365.304 12.9995 364.844 13.0512C364.382 13.1028 363.954 13.0915 363.558 13.0189C362.693 12.8509 362.022 12.4342 361.549 11.7721C361.079 11.1051 360.924 10.3557 361.084 9.52402C361.242 8.702 361.674 8.07054 362.376 7.63126C363.077 7.19198 363.878 7.06117 364.779 7.2372C365.206 7.31957 365.609 7.47622 365.994 7.70878C366.381 7.94134 366.695 8.21588 366.937 8.52919L365.936 9.35606C365.763 9.12835 365.551 8.93294 365.302 8.76821C365.052 8.6051 364.795 8.49689 364.534 8.44521C364.064 8.35477 363.639 8.44198 363.261 8.70361C362.886 8.96201 362.654 9.33022 362.563 9.80826C362.468 10.2911 362.547 10.7256 362.802 11.1132C363.061 11.5008 363.424 11.7398 363.894 11.8302C364.199 11.8867 364.556 11.8593 364.967 11.7462L365.251 10.2734Z" fill="#8D0404"/>
<path d="M374.158 10.5563L372.808 13.6377C372.501 14.3386 372.04 14.7973 371.425 15.0137C370.808 15.2333 370.13 15.1817 369.39 14.8587C368.641 14.5308 368.134 14.0657 367.872 13.4633C367.614 12.8609 367.636 12.2085 367.943 11.506L369.293 8.42456L370.643 9.01242L369.293 12.0938C369.138 12.4426 369.116 12.7689 369.229 13.0693C369.34 13.3713 369.56 13.5925 369.888 13.7346C370.211 13.8768 370.514 13.8864 370.798 13.7669C371.083 13.6458 371.304 13.4084 371.464 13.0499L372.814 9.96849L374.158 10.5563Z" fill="#8D0404"/>
<path d="M379.265 15.4203L376.784 13.6245L376.112 14.5547L378.347 16.1762L377.669 17.1129L375.434 15.4914L374.749 16.441L377.301 18.2886L376.623 19.2253L372.882 16.5185L376.274 11.8286L379.943 14.4837L379.265 15.4203Z" fill="#8D0404"/>
<mask id="mask4_177_12" style="mask-type:luminance" maskUnits="userSpaceOnUse" x="345" y="17" width="8" height="17">
<path d="M345.804 17.9845H352.005V33.6951H345.804V17.9845Z" fill="white"/>
</mask>
<g mask="url(#mask4_177_12)">
<mask id="mask5_177_12" style="mask-type:luminance" maskUnits="userSpaceOnUse" x="327" y="16" width="48" height="48">
<path d="M348.959 16.5634L374.426 42.0285L352.908 63.5466L327.443 38.0798L348.959 16.5634Z" fill="white"/>
</mask>
<g mask="url(#mask5_177_12)">
<mask id="mask6_177_12" style="mask-type:luminance" maskUnits="userSpaceOnUse" x="327" y="16" width="48" height="48">
<path d="M352.85 63.469L327.383 38.0039L348.901 16.4858L374.366 41.951L352.85 63.469Z" fill="white"/>
</mask>
<g mask="url(#mask6_177_12)">
<path d="M348.413 18.3447L349.357 18.3463C350.731 18.348 351.849 19.4639 351.849 20.8399L351.322 25.5427C351.222 26.4326 351.212 27.3305 351.293 28.2236L351.674 32.4646C351.773 32.9652 351.388 33.4303 350.878 33.4287L346.75 33.4255C346.303 33.4239 345.939 33.0605 345.938 32.6131L345.925 20.8318C345.923 19.4575 347.037 18.3431 348.413 18.3447Z" fill="black"/>
</g>
</g>
</g>
<mask id="mask7_177_12" style="mask-type:luminance" maskUnits="userSpaceOnUse" x="345" y="32" width="15" height="27">
<path d="M345.804 32.8682H359.034V58.0878H345.804V32.8682Z" fill="white"/>
</mask>
<g mask="url(#mask7_177_12)">
<mask id="mask8_177_12" style="mask-type:luminance" maskUnits="userSpaceOnUse" x="327" y="16" width="48" height="48">
<path d="M348.959 16.5632L374.426 42.0283L352.908 63.5464L327.443 38.0797L348.959 16.5632Z" fill="white"/>
</mask>
<g mask="url(#mask8_177_12)">
<mask id="mask9_177_12" style="mask-type:luminance" maskUnits="userSpaceOnUse" x="327" y="16" width="48" height="48">
<path d="M352.85 63.4689L327.383 38.0038L348.901 16.4857L374.366 41.9508L352.85 63.4689Z" fill="white"/>
</mask>
<g mask="url(#mask9_177_12)">
<path d="M358.084 57.7179L348.541 57.7082C347.12 57.7066 345.965 56.5519 345.964 55.1307L345.939 32.8859L358.057 32.8988C358.568 32.9004 358.984 33.3155 358.985 33.8274L359.009 56.7925C359.011 57.3045 358.596 57.7195 358.084 57.7179Z" fill="#807D7D"/>
</g>
</g>
</g>
<mask id="mask10_177_12" style="mask-type:luminance" maskUnits="userSpaceOnUse" x="354" y="32" width="6" height="27">
<path d="M354.486 32.8682H359.034V58.0878H354.486V32.8682Z" fill="white"/>
</mask>
<g mask="url(#mask10_177_12)">
<mask id="mask11_177_12" style="mask-type:luminance" maskUnits="userSpaceOnUse" x="327" y="16" width="48" height="48">
<path d="M348.959 16.5632L374.426 42.0283L352.908 63.5464L327.443 38.0797L348.959 16.5632Z" fill="white"/>
</mask>
<g mask="url(#mask11_177_12)">
<mask id="mask12_177_12" style="mask-type:luminance" maskUnits="userSpaceOnUse" x="327" y="16" width="48" height="48">
<path d="M352.85 63.4689L327.383 38.0038L348.901 16.4857L374.366 41.9508L352.85 63.4689Z" fill="white"/>
</mask>
<g mask="url(#mask12_177_12)">
<path d="M358.084 57.718L354.705 57.7148L354.678 32.8956L358.057 32.8989C358.568 32.9005 358.984 33.3155 358.985 33.8275L359.009 56.7926C359.011 57.3045 358.596 57.7196 358.084 57.718Z" fill="#B4B3B3"/>
</g>
</g>
</g>
<mask id="mask13_177_12" style="mask-type:luminance" maskUnits="userSpaceOnUse" x="347" y="20" width="3" height="3">
<path d="M347.044 20.0516H349.938V22.5323H347.044V20.0516Z" fill="white"/>
</mask>
<g mask="url(#mask13_177_12)">
<mask id="mask14_177_12" style="mask-type:luminance" maskUnits="userSpaceOnUse" x="327" y="16" width="48" height="48">
<path d="M348.959 16.5632L374.426 42.0283L352.908 63.5464L327.443 38.0797L348.959 16.5632Z" fill="white"/>
</mask>
<g mask="url(#mask14_177_12)">
<mask id="mask15_177_12" style="mask-type:luminance" maskUnits="userSpaceOnUse" x="327" y="16" width="48" height="48">
<path d="M352.85 63.4689L327.383 38.0038L348.901 16.4857L374.366 41.9508L352.85 63.4689Z" fill="white"/>
</mask>
<g mask="url(#mask15_177_12)">
<path d="M347.704 20.4812C347.811 20.3762 347.934 20.2939 348.073 20.2357C348.212 20.1792 348.357 20.1501 348.507 20.1501C348.659 20.1501 348.803 20.1792 348.943 20.2374C349.082 20.2955 349.205 20.3779 349.311 20.4844C349.418 20.591 349.5 20.7138 349.558 20.8527C349.617 20.9916 349.646 21.1369 349.646 21.2871C349.646 21.4373 349.617 21.5826 349.558 21.7215C349.502 21.8604 349.42 21.9848 349.313 22.0897C349.206 22.1963 349.084 22.2787 348.945 22.3368C348.806 22.3934 348.661 22.4224 348.51 22.4224C348.36 22.4224 348.215 22.3934 348.076 22.3352C347.935 22.2771 347.813 22.1947 347.706 22.0881C347.599 21.9815 347.517 21.8588 347.461 21.7199C347.402 21.581 347.373 21.4357 347.373 21.2855C347.373 21.1337 347.401 20.9899 347.459 20.8494C347.517 20.7105 347.598 20.5878 347.704 20.4812Z" fill="#807D7D"/>
</g>
</g>
</g>
<mask id="mask16_177_12" style="mask-type:luminance" maskUnits="userSpaceOnUse" x="347" y="29" width="3" height="4">
<path d="M347.044 29.1473H349.938V32.0414H347.044V29.1473Z" fill="white"/>
</mask>
<g mask="url(#mask16_177_12)">
<mask id="mask17_177_12" style="mask-type:luminance" maskUnits="userSpaceOnUse" x="327" y="16" width="48" height="48">
<path d="M348.959 16.5634L374.426 42.0285L352.908 63.5466L327.443 38.0798L348.959 16.5634Z" fill="white"/>
</mask>
<g mask="url(#mask17_177_12)">
<mask id="mask18_177_12" style="mask-type:luminance" maskUnits="userSpaceOnUse" x="327" y="16" width="48" height="48">
<path d="M352.85 63.469L327.383 38.0039L348.901 16.4858L374.366 41.951L352.85 63.469Z" fill="white"/>
</mask>
<g mask="url(#mask18_177_12)">
<path d="M347.714 29.8919C347.821 29.7853 347.943 29.7029 348.084 29.6448C348.223 29.5883 348.367 29.5592 348.518 29.5592C348.669 29.5592 348.814 29.5883 348.953 29.6464C349.092 29.7046 349.214 29.7869 349.321 29.8935C349.428 30.0001 349.51 30.1228 349.568 30.2617C349.626 30.4006 349.655 30.546 349.655 30.6962C349.655 30.848 349.626 30.9917 349.57 31.1322C349.512 31.2711 349.429 31.3938 349.323 31.5004C349.218 31.607 349.095 31.6878 348.954 31.7459C348.816 31.8024 348.672 31.8315 348.52 31.8315C348.37 31.8315 348.224 31.8024 348.086 31.7443C347.947 31.6861 347.824 31.6054 347.717 31.4988C347.611 31.3906 347.528 31.2679 347.47 31.129C347.412 30.9901 347.383 30.8447 347.383 30.6945C347.383 30.5443 347.412 30.399 347.469 30.2601C347.527 30.1212 347.609 29.9985 347.714 29.8919Z" fill="#807D7D"/>
</g>
</g>
</g>
<mask id="mask19_177_12" style="mask-type:luminance" maskUnits="userSpaceOnUse" x="360" y="21" width="18" height="37">
<path d="M360.558 21.2031H377.453V57.7761H360.558V21.2031Z" fill="white"/>
</mask>
<g mask="url(#mask19_177_12)">
<path d="M351.246 39.7933C351.18 39.7707 351.115 39.748 351.049 39.7254C350.426 39.4977 349.786 39.2248 349.103 38.7677C349.019 38.7128 348.93 38.645 348.846 38.5836C348.764 38.5207 348.699 38.4625 348.625 38.4011C348.484 38.2784 348.347 38.1541 348.22 38.0216C347.96 37.76 347.724 37.4822 347.511 37.1915C347.086 36.6069 346.748 35.969 346.517 35.2891C346.286 34.6092 346.161 33.884 346.173 33.1492C346.18 32.7842 346.219 32.416 346.298 32.0559C346.337 31.8718 346.383 31.7086 346.435 31.5423C346.488 31.376 346.548 31.2128 346.613 31.0513C346.879 30.4053 347.264 29.8256 347.687 29.3508C348.111 28.8711 348.568 28.4884 349.014 28.1508C349.906 27.4806 350.763 26.9751 351.471 26.355C352.898 25.1082 353.966 23.3026 354.298 21.2661C354.303 21.2354 354.329 21.2112 354.361 21.2096C354.399 21.2064 354.432 21.2338 354.434 21.2726C354.588 23.3624 353.969 25.5733 352.667 27.4128C352.008 28.343 351.219 29.1004 350.613 29.8449C350.309 30.2148 350.049 30.5781 349.867 30.9351C349.683 31.2904 349.576 31.6327 349.533 31.9703C349.523 32.0559 349.515 32.1415 349.512 32.2271C349.51 32.311 349.508 32.4031 349.515 32.4741C349.525 32.6243 349.552 32.7745 349.592 32.9231C349.672 33.217 349.812 33.5045 349.993 33.7694C350.174 34.0326 350.401 34.2716 350.65 34.467C350.776 34.5639 350.907 34.6495 351.039 34.7238C351.106 34.761 351.173 34.7933 351.24 34.8239C351.272 34.8369 351.311 34.8546 351.335 34.8643L351.406 34.8853C351.613 34.9499 351.953 35.0307 352.322 35.0775C352.693 35.1276 353.102 35.1518 353.515 35.1502C353.651 35.1502 353.788 35.1469 353.924 35.1405C356.104 33.8517 358.748 33.1379 360.981 33.083C363.233 33.0281 365.724 33.8033 367.837 35.0743C367.84 35.0743 367.842 35.0759 367.843 35.0759C368.247 35.126 368.67 35.1502 369.084 35.1502C369.497 35.1502 369.907 35.1276 370.277 35.0775C370.645 35.0307 370.986 34.9499 371.193 34.8853L371.264 34.8643C371.29 34.8546 371.327 34.8369 371.359 34.8239C371.427 34.7933 371.493 34.761 371.559 34.7238C371.692 34.6495 371.823 34.5639 371.949 34.467C372.197 34.2716 372.425 34.0326 372.606 33.7694C372.787 33.5045 372.927 33.217 373.006 32.9231C373.047 32.7745 373.074 32.6243 373.084 32.4741C373.09 32.4015 373.089 32.311 373.087 32.2271C373.082 32.1415 373.076 32.0559 373.066 31.9703C373.023 31.6327 372.916 31.2904 372.732 30.9351C372.549 30.5798 372.291 30.2148 371.986 29.8449C371.38 29.1004 370.59 28.343 369.932 27.4128C368.63 25.5733 368.011 23.3624 368.165 21.2726C368.168 21.2419 368.191 21.2145 368.223 21.2096C368.26 21.2031 368.296 21.229 368.3 21.2661C368.633 23.3026 369.701 25.1082 371.128 26.355C371.836 26.9751 372.693 27.4806 373.585 28.1508C374.03 28.4884 374.487 28.8711 374.912 29.3508C375.335 29.8256 375.72 30.407 375.986 31.0513C376.051 31.2128 376.11 31.376 376.164 31.5423C376.215 31.7086 376.262 31.8701 376.301 32.0559C376.38 32.416 376.419 32.7826 376.425 33.1492C376.438 33.884 376.312 34.6075 376.081 35.2891C375.849 35.969 375.513 36.6069 375.088 37.1915C374.875 37.4822 374.639 37.76 374.379 38.0216C374.25 38.1541 374.114 38.2784 373.974 38.4011C373.901 38.4625 373.835 38.5207 373.753 38.5836C373.669 38.645 373.58 38.7128 373.496 38.7677C372.813 39.2248 372.173 39.4977 371.55 39.7254C371.484 39.748 371.419 39.7707 371.353 39.7933H377.435C376.7 41.468 374.896 42.6534 372.784 42.6534C371.731 42.6534 370.755 42.3595 369.949 41.8572C367.548 48.083 364.746 49.1925 364.73 55.1744C364.768 55.8608 364.57 56.4729 364.119 56.8072C363.391 57.3466 362.212 57.7309 360.892 57.7535C359.573 57.7761 358.413 57.4273 357.696 56.8976C357.251 56.5681 357.054 55.9496 357.079 55.2519C356.897 49.4573 354.647 48.0232 352.176 41.9299C351.395 42.3885 350.463 42.655 349.462 42.655C347.349 42.655 345.544 41.4696 344.81 39.7933H351.246Z" fill="#8D0404"/>
</g>
<path d="M363.452 54.6496C363.01 54.7029 362.632 54.8853 362.322 55.1421C362.01 55.3973 361.797 55.7397 361.676 56.0917C361.666 56.1192 361.681 56.1467 361.706 56.1563C361.729 56.1644 361.753 56.1547 361.766 56.137C361.963 55.8366 362.226 55.5976 362.53 55.4571C362.826 55.3165 363.166 55.26 363.452 55.3036C363.633 55.3295 363.803 55.2051 363.828 55.0259C363.856 54.845 363.732 54.6754 363.551 54.6496C363.522 54.6447 363.493 54.6431 363.464 54.6479L363.452 54.6496Z" fill="white"/>
<path d="M366.17 45.977C365.574 46.3259 365.08 46.8104 364.663 47.353C364.256 47.9021 363.896 48.4932 363.622 49.123C363.342 49.7513 363.144 50.4086 363.011 51.0739L362.924 51.5746L362.863 52.0784C362.829 52.4128 362.801 52.7487 362.792 53.0846C362.792 53.1185 362.818 53.1476 362.853 53.1492C362.884 53.1492 362.911 53.1282 362.918 53.0991L363.129 52.1237C363.208 51.8007 363.294 51.4809 363.383 51.1644C363.568 50.5329 363.798 49.9208 364.084 49.3362C364.371 48.7548 364.709 48.1992 365.103 47.6808C365.487 47.1544 365.894 46.6489 366.257 46.0675C366.277 46.0368 366.267 45.9964 366.238 45.9786C366.217 45.9641 366.19 45.9641 366.17 45.977Z" fill="white"/>
<mask id="mask20_177_12" style="mask-type:luminance" maskUnits="userSpaceOnUse" x="321" y="36" width="14" height="7">
<path d="M321.435 36.7377H334.836V42.0413H321.435V36.7377Z" fill="white"/>
</mask>
<g mask="url(#mask20_177_12)">
<path d="M334.801 36.7523C333.793 36.8992 331.319 38.2025 329.127 39.396L328.136 39.9354L327.144 39.396C324.953 38.2025 322.478 36.8992 321.471 36.7523C321.458 36.7506 321.448 36.7555 321.44 36.7668C321.433 36.7781 321.433 36.7878 321.442 36.7991C321.769 37.2561 323.325 38.7338 326.248 40.4554C326.277 40.4732 326.301 40.4683 326.322 40.4425L326.953 39.6818C326.96 39.6738 326.966 39.6722 326.976 39.677C326.984 39.6802 326.987 39.6867 326.987 39.6964L326.942 40.0097C326.937 40.0388 326.949 40.0581 326.974 40.0694C327.139 40.1453 327.299 40.2245 327.454 40.3052C326.642 40.7477 325.97 41.116 325.584 41.3356C325.571 41.342 325.56 41.3485 325.548 41.355C325.511 41.3776 325.487 41.4083 325.477 41.4503C325.468 41.4922 325.474 41.531 325.498 41.5665C325.595 41.707 325.718 41.8185 325.87 41.8992C326.022 41.98 326.183 42.0236 326.356 42.0252C326.404 42.0284 326.45 42.0171 326.492 41.9945C326.522 41.9767 326.548 41.9525 326.569 41.9234C326.761 41.6424 327.352 41.1596 328.136 40.6864C328.919 41.1596 329.508 41.6424 329.702 41.9234C329.722 41.9525 329.747 41.9767 329.78 41.9945C329.822 42.0171 329.867 42.0284 329.915 42.0252C330.088 42.0236 330.25 41.98 330.401 41.8992C330.552 41.8185 330.676 41.707 330.773 41.5665C330.796 41.531 330.804 41.4922 330.794 41.4503C330.784 41.4083 330.76 41.3776 330.723 41.355C330.71 41.3485 330.699 41.342 330.686 41.3356C330.3 41.116 329.628 40.7477 328.816 40.3052C328.972 40.2245 329.132 40.1453 329.295 40.0694C329.321 40.0581 329.332 40.0388 329.328 40.0097L329.284 39.6964C329.282 39.6867 329.286 39.6802 329.295 39.677C329.303 39.6722 329.311 39.6738 329.316 39.6818L329.948 40.4425C329.969 40.4683 329.993 40.4732 330.022 40.4554C332.945 38.7338 334.502 37.2561 334.828 36.7991C334.836 36.7894 334.836 36.7781 334.83 36.7668C334.823 36.7571 334.814 36.7506 334.801 36.7523ZM326.863 38.2768C326.879 38.3107 326.907 38.3285 326.945 38.3285H329.328C329.365 38.3285 329.392 38.3107 329.41 38.2768L329.92 37.3627C329.94 37.3256 329.935 37.2933 329.906 37.2642C329.88 37.2335 329.848 37.2238 329.809 37.2384L328.906 37.5436L328.202 36.8056C328.184 36.7862 328.161 36.7781 328.136 36.7781C328.11 36.7781 328.087 36.7862 328.069 36.8056L327.367 37.5436L326.464 37.2384C326.425 37.2238 326.391 37.2335 326.366 37.2642C326.337 37.2933 326.332 37.3256 326.351 37.3627L326.863 38.2768Z" fill="black"/>
</g>
<mask id="mask21_177_12" style="mask-type:luminance" maskUnits="userSpaceOnUse" x="381" y="36" width="14" height="7">
<path d="M381.285 36.7377H394.684V42.0413H381.285V36.7377Z" fill="white"/>
</mask>
<g mask="url(#mask21_177_12)">
<path d="M394.651 36.7523C393.641 36.8992 391.167 38.2025 388.975 39.396L387.984 39.9354L386.992 39.396C384.801 38.2025 382.327 36.8992 381.319 36.7523C381.306 36.7506 381.296 36.7555 381.29 36.7668C381.282 36.7781 381.282 36.7878 381.29 36.7991C381.618 37.2561 383.173 38.7338 386.096 40.4554C386.125 40.4732 386.149 40.4683 386.172 40.4425L386.802 39.6818C386.808 39.6738 386.816 39.6722 386.824 39.677C386.832 39.6802 386.837 39.6867 386.836 39.6964L386.79 40.0097C386.786 40.0388 386.797 40.0581 386.823 40.0694C386.987 40.1453 387.147 40.2245 387.302 40.3052C386.49 40.7477 385.818 41.116 385.432 41.3356C385.421 41.342 385.41 41.3485 385.397 41.355C385.359 41.3776 385.335 41.4083 385.326 41.4503C385.316 41.4922 385.324 41.531 385.348 41.5665C385.443 41.707 385.568 41.8185 385.718 41.8992C385.87 41.98 386.031 42.0236 386.204 42.0252C386.253 42.0284 386.298 42.0171 386.34 41.9945C386.372 41.9767 386.398 41.9525 386.417 41.9234C386.609 41.6424 387.201 41.1596 387.984 40.6864C388.767 41.1596 389.357 41.6424 389.55 41.9234C389.57 41.9525 389.596 41.9767 389.628 41.9945C389.67 42.0171 389.715 42.0284 389.764 42.0252C389.936 42.0236 390.098 41.98 390.25 41.8992C390.401 41.8185 390.524 41.707 390.621 41.5665C390.645 41.531 390.652 41.4922 390.642 41.4503C390.632 41.4083 390.608 41.3776 390.571 41.355C390.558 41.3485 390.547 41.342 390.536 41.3356C390.148 41.116 389.478 40.7477 388.665 40.3052C388.82 40.2245 388.98 40.1453 389.143 40.0694C389.171 40.0581 389.181 40.0388 389.177 40.0097L389.132 39.6964C389.13 39.6867 389.134 39.6802 389.143 39.677C389.151 39.6722 389.16 39.6738 389.164 39.6818L389.796 40.4425C389.817 40.4683 389.843 40.4732 389.87 40.4554C392.795 38.7338 394.35 37.2561 394.678 36.7991C394.684 36.7894 394.684 36.7781 394.678 36.7668C394.672 36.7571 394.662 36.7506 394.651 36.7523ZM386.711 38.2768C386.727 38.3107 386.755 38.3285 386.794 38.3285H389.176C389.213 38.3285 389.242 38.3107 389.258 38.2768L389.77 37.3627C389.788 37.3256 389.783 37.2933 389.755 37.2642C389.728 37.2335 389.696 37.2238 389.657 37.2384L388.754 37.5436L388.05 36.8056C388.032 36.7862 388.011 36.7781 387.984 36.7781C387.958 36.7781 387.935 36.7862 387.918 36.8056L387.215 37.5436L386.312 37.2384C386.274 37.2238 386.241 37.2335 386.214 37.2642C386.185 37.2933 386.18 37.3256 386.199 37.3627L386.711 38.2768Z" fill="black"/>
</g>
<path d="M331.089 46.8712L331.748 48.7511C331.988 49.4358 331.982 50.064 331.728 50.6374C331.473 51.2091 331.021 51.6096 330.372 51.8389C329.729 52.0618 329.128 52.0263 328.569 51.7291C328.009 51.4352 327.603 50.9378 327.355 50.2368L326.715 48.4022L331.089 46.8712ZM330.585 48.2924L327.988 49.2033L328.266 49.9914C328.385 50.3354 328.603 50.5744 328.918 50.7084C329.231 50.8409 329.58 50.8392 329.965 50.702C330.352 50.5679 330.625 50.3434 330.785 50.0301C330.948 49.7201 330.968 49.3874 330.843 49.0353L330.585 48.2924Z" fill="#8D0404"/>
<path d="M333.95 55.4335L332.742 53.3082L331.947 53.7668L333.039 55.6854L332.232 56.1376L331.14 54.219L330.326 54.6842L331.573 56.8741L330.772 57.3327L328.944 54.1221L332.968 51.8289L334.758 54.9749L333.95 55.4335Z" fill="#8D0404"/>
<path d="M333.31 59.0765L334.537 60.6139L333.769 61.2341L331.805 58.7793L335.422 55.8853L336.159 56.8026L333.31 59.0765Z" fill="#8D0404"/>
<path d="M335.656 63.1156L334.816 62.2887L338.066 58.9877L338.905 59.8145L335.656 63.1156Z" fill="#8D0404"/>
<path d="M341.572 61.9803C341.843 62.1838 342.069 62.4422 342.25 62.7555C342.431 63.0704 342.544 63.3934 342.592 63.7245L341.565 63.9635C341.555 63.7229 341.501 63.4968 341.397 63.2852C341.294 63.0753 341.16 62.9073 340.997 62.7814C340.703 62.5617 340.38 62.481 340.028 62.5359C339.679 62.5924 339.388 62.7749 339.156 63.085C338.923 63.3918 338.828 63.7229 338.871 64.0798C338.913 64.4319 339.081 64.7193 339.375 64.939C339.53 65.0553 339.719 65.136 339.944 65.1845C340.167 65.2313 340.397 65.2378 340.635 65.2038L340.738 66.2051C340.385 66.26 340.024 66.2455 339.659 66.1599C339.293 66.0727 338.975 65.929 338.703 65.7271C338.148 65.3088 337.82 64.7791 337.721 64.1379C337.626 63.5016 337.781 62.9106 338.187 62.3679C338.587 61.835 339.11 61.5314 339.756 61.4571C340.402 61.3844 341.006 61.5588 341.572 61.9803Z" fill="#8D0404"/>
<path d="M342.607 68.1369L341.58 67.562L343.848 63.5245L344.875 64.0995L342.607 68.1369Z" fill="#8D0404"/>
<path d="M347.463 69.3638L345.57 68.6338L344.95 69.3057L343.819 68.8664L347.353 65.2682L348.49 65.7075L348.632 70.7333L347.463 70.2746V69.3638ZM347.469 68.4077V66.5666L346.222 67.9232L347.469 68.4077Z" fill="#8D0404"/>
<path d="M352.731 66.8065C353.411 66.9405 353.975 67.2264 354.424 67.6657L353.816 68.4796C353.605 68.2955 353.371 68.134 353.112 67.9951C352.857 67.853 352.637 67.7626 352.453 67.7238C352.117 67.6592 351.927 67.74 351.885 67.9628C351.859 68.1017 351.919 68.2309 352.066 68.3504C352.216 68.4667 352.402 68.5814 352.621 68.6928C352.844 68.801 353.067 68.9237 353.287 69.061C353.506 69.1951 353.678 69.3776 353.804 69.6101C353.928 69.8394 353.962 70.1059 353.907 70.4111C353.82 70.8472 353.581 71.1508 353.19 71.3285C352.802 71.5093 352.345 71.5481 351.82 71.4447C351.441 71.3704 351.079 71.2332 350.735 71.0313C350.394 70.8343 350.11 70.592 349.882 70.3078L350.502 69.5132C350.691 69.7555 350.93 69.9703 351.22 70.1592C351.507 70.3498 351.772 70.4677 352.014 70.5145C352.198 70.5533 352.35 70.55 352.466 70.5016C352.583 70.4499 352.654 70.3595 352.679 70.2303C352.7 70.1059 352.66 69.9896 352.557 69.8814C352.457 69.7748 352.321 69.6812 352.15 69.6036C351.982 69.5261 351.801 69.4341 351.607 69.3259C351.413 69.2193 351.236 69.1062 351.077 68.99C350.918 68.8737 350.795 68.7154 350.709 68.5119C350.622 68.3052 350.603 68.0775 350.651 67.8272C350.732 67.4137 350.963 67.115 351.342 66.9292C351.72 66.7451 352.184 66.7031 352.731 66.8065Z" fill="#8D0404"/>
<path d="M357.431 67.4227L359.415 67.3065C360.141 67.2645 360.747 67.4454 361.23 67.8491C361.711 68.2496 361.973 68.7955 362.011 69.4835C362.05 70.1602 361.85 70.727 361.411 71.1824C360.975 71.6395 360.385 71.8898 359.641 71.9318L357.703 72.0481L357.431 67.4227ZM358.665 68.2948L358.827 71.0403L359.66 70.9951C360.022 70.9741 360.309 70.8304 360.526 70.5623C360.74 70.2958 360.836 69.9599 360.81 69.5545C360.787 69.1508 360.648 68.8278 360.39 68.5855C360.135 68.3401 359.822 68.2286 359.447 68.2496L358.665 68.2948Z" fill="#8D0404"/>
<path d="M366.608 69.9145L364.644 70.4119L364.527 71.3228L363.358 71.6199L364.153 66.6393L365.328 66.3422L368.365 70.3473L367.144 70.6574L366.608 69.9145ZM366.065 69.1329L364.993 67.6342L364.766 69.4623L366.065 69.1329Z" fill="#8D0404"/>
<path d="M371.569 63.6996C371.866 63.5365 372.193 63.438 372.551 63.4024C372.913 63.3637 373.252 63.3927 373.572 63.4864L373.365 64.5135C373.149 64.4279 372.923 64.3892 372.687 64.3973C372.449 64.4021 372.241 64.4538 372.06 64.5523C371.737 64.7299 371.531 64.99 371.44 65.334C371.35 65.6796 371.398 66.0187 371.582 66.3546C371.771 66.6954 372.036 66.9199 372.377 67.0265C372.716 67.1298 373.049 67.0943 373.372 66.9166C373.54 66.8262 373.69 66.6889 373.824 66.5032C373.961 66.3191 374.06 66.1091 374.121 65.8766L375.077 66.1867C374.982 66.5355 374.82 66.8617 374.593 67.1621C374.368 67.4593 374.108 67.6902 373.811 67.8533C373.204 68.1893 372.587 68.2716 371.963 68.0988C371.34 67.9228 370.864 67.54 370.536 66.9489C370.213 66.3643 370.151 65.7603 370.348 65.1402C370.547 64.52 370.954 64.0403 371.569 63.6996Z" fill="#8D0404"/>
<path d="M378.629 63.3558L377.059 64.6478L377.344 65.5199L376.407 66.2822L375.011 61.4372L375.948 60.6685L380.399 63.007L379.424 63.808L378.629 63.3558ZM377.802 62.8842L376.194 61.9798L376.769 63.7305L377.802 62.8842Z" fill="#8D0404"/>
<path d="M383.227 59.7619L381.78 59.4519L381.761 59.4777L381.186 60.156L382.187 60.9958L381.431 61.9002L377.878 58.9286L379.209 57.3459C379.606 56.8727 380.02 56.5966 380.449 56.5191C380.876 56.4415 381.286 56.5691 381.683 56.9002C382.229 57.3621 382.429 57.895 382.284 58.5023L384.086 58.7348L383.227 59.7619ZM380.482 59.5617L381.057 58.8834C381.22 58.6864 381.297 58.4942 381.289 58.3085C381.28 58.1195 381.183 57.9451 380.999 57.7852C380.814 57.635 380.63 57.5753 380.449 57.6043C380.265 57.6302 380.091 57.7432 379.926 57.9402L379.351 58.6185L380.482 59.5617Z" fill="#8D0404"/>
<path d="M387.158 53.5598L386.648 54.4707L383.127 54.9358L385.614 56.3247L385.072 57.2872L381.028 55.0262L381.532 54.1218L385.078 53.6567L382.578 52.2614L383.114 51.2988L387.158 53.5598Z" fill="#8D0404"/>
<path d="M385.594 47.0988L384.813 49.4115L385.685 49.7086L386.389 47.622L387.261 47.9127L386.557 49.9993L387.448 50.3029L388.256 47.9192L389.128 48.2164L387.939 51.7177L383.553 50.2319L384.716 46.8016L385.594 47.0988Z" fill="#8D0404"/>
</g>
<defs>
<clipPath id="clip0_177_12">
<rect width="80" height="80" fill="white" transform="translate(318)"/>
</clipPath>
</defs>
</svg>
