<svg xmlns="http://www.w3.org/2000/svg" xmlns:xlink="http://www.w3.org/1999/xlink" width="48" zoomAndPan="magnify" viewBox="0 0 36 36.000001" height="48" preserveAspectRatio="xMidYMid meet" version="1.0"><defs><clipPath id="2c6398ea9e"><path d="M 0.9375 0.429688 L 35.007812 0.429688 L 35.007812 34.5 L 0.9375 34.5 Z M 0.9375 0.429688 " clip-rule="nonzero"/></clipPath><clipPath id="925e1f9fc5"><path d="M 17.972656 0.429688 C 8.566406 0.429688 0.9375 8.058594 0.9375 17.464844 C 0.9375 26.871094 8.566406 34.5 17.972656 34.5 C 27.378906 34.5 35.007812 26.871094 35.007812 17.464844 C 35.007812 8.058594 27.378906 0.429688 17.972656 0.429688 Z M 17.972656 0.429688 " clip-rule="nonzero"/></clipPath><clipPath id="713edcb76a"><path d="M 0.488281 0.00390625 L 35.511719 0.00390625 L 35.511719 35.027344 L 0.488281 35.027344 Z M 0.488281 0.00390625 " clip-rule="nonzero"/></clipPath><clipPath id="7cc6723bc8"><path d="M 18 35.027344 C 13.324219 35.027344 8.921875 33.207031 5.617188 29.898438 C 2.304688 26.59375 0.488281 22.191406 0.488281 17.515625 C 0.488281 12.839844 2.304688 8.4375 5.617188 5.132812 C 8.921875 1.824219 13.324219 0.00390625 18 0.00390625 C 22.675781 0.00390625 27.078125 1.824219 30.378906 5.132812 C 33.691406 8.445312 35.511719 12.839844 35.511719 17.515625 C 35.511719 22.191406 33.691406 26.59375 30.378906 29.898438 C 27.078125 33.207031 22.675781 35.027344 18 35.027344 Z M 18 1.050781 C 13.601562 1.050781 9.464844 2.765625 6.359375 5.875 C 3.25 8.984375 1.535156 13.121094 1.535156 17.515625 C 1.535156 21.910156 3.25 26.046875 6.359375 29.15625 C 9.464844 32.261719 13.601562 33.976562 18 33.976562 C 22.394531 33.976562 26.53125 32.261719 29.636719 29.15625 C 32.746094 26.046875 34.460938 21.910156 34.460938 17.515625 C 34.460938 13.121094 32.746094 8.984375 29.636719 5.875 C 26.53125 2.765625 22.394531 1.050781 18 1.050781 Z M 18 1.050781 " clip-rule="nonzero"/></clipPath><clipPath id="4eaf27b7fc"><path d="M 10 4 L 15 4 L 15 14 L 10 14 Z M 10 4 " clip-rule="nonzero"/></clipPath><clipPath id="d1686934bf"><path d="M 12.402344 3.097656 L 27.882812 18.578125 L 14.464844 31.992188 L -1.011719 16.515625 Z M 12.402344 3.097656 " clip-rule="nonzero"/></clipPath><clipPath id="66c2e1417e"><path d="M 14.796875 31.921875 L -0.683594 16.441406 L 12.734375 3.023438 L 28.214844 18.503906 Z M 14.796875 31.921875 " clip-rule="nonzero"/></clipPath><clipPath id="1083ea2403"><path d="M 10 13 L 19 13 L 19 29 L 10 29 Z M 10 13 " clip-rule="nonzero"/></clipPath><clipPath id="c2364745b3"><path d="M 12.402344 3.097656 L 27.882812 18.578125 L 14.464844 31.992188 L -1.011719 16.515625 Z M 12.402344 3.097656 " clip-rule="nonzero"/></clipPath><clipPath id="deb526e4dd"><path d="M 14.796875 31.921875 L -0.683594 16.441406 L 12.734375 3.023438 L 28.214844 18.503906 Z M 14.796875 31.921875 " clip-rule="nonzero"/></clipPath><clipPath id="cce5026809"><path d="M 15 13 L 19 13 L 19 29 L 15 29 Z M 15 13 " clip-rule="nonzero"/></clipPath><clipPath id="af72665ec4"><path d="M 12.402344 3.097656 L 27.882812 18.578125 L 14.464844 31.992188 L -1.011719 16.515625 Z M 12.402344 3.097656 " clip-rule="nonzero"/></clipPath><clipPath id="09a2b29ab2"><path d="M 14.796875 31.921875 L -0.683594 16.441406 L 12.734375 3.023438 L 28.214844 18.503906 Z M 14.796875 31.921875 " clip-rule="nonzero"/></clipPath><clipPath id="9a22ad3da4"><path d="M 11 5 L 13 5 L 13 7 L 11 7 Z M 11 5 " clip-rule="nonzero"/></clipPath><clipPath id="75fab1c8ba"><path d="M 12.402344 3.097656 L 27.882812 18.578125 L 14.464844 31.992188 L -1.011719 16.515625 Z M 12.402344 3.097656 " clip-rule="nonzero"/></clipPath><clipPath id="0cc10fc601"><path d="M 14.796875 31.921875 L -0.683594 16.441406 L 12.734375 3.023438 L 28.214844 18.503906 Z M 14.796875 31.921875 " clip-rule="nonzero"/></clipPath><clipPath id="e34db8aabf"><path d="M 11 11 L 13 11 L 13 13 L 11 13 Z M 11 11 " clip-rule="nonzero"/></clipPath><clipPath id="1f5dda7d5b"><path d="M 12.402344 3.097656 L 27.882812 18.578125 L 14.464844 31.992188 L -1.011719 16.515625 Z M 12.402344 3.097656 " clip-rule="nonzero"/></clipPath><clipPath id="251c378c43"><path d="M 14.796875 31.921875 L -0.683594 16.441406 L 12.734375 3.023438 L 28.214844 18.503906 Z M 14.796875 31.921875 " clip-rule="nonzero"/></clipPath><clipPath id="6bf46979c6"><path d="M 19.851562 5.890625 L 30.066406 5.890625 L 30.066406 28.511719 L 19.851562 28.511719 Z M 19.851562 5.890625 " clip-rule="nonzero"/></clipPath><clipPath id="41571e7ad3"><path d="M 19.851562 26 L 20 26 L 20 28 L 19.851562 28 Z M 19.851562 26 " clip-rule="nonzero"/></clipPath></defs><g clip-path="url(#2c6398ea9e)"><g clip-path="url(#925e1f9fc5)"><path fill="#ffffff" d="M 0.9375 0.429688 L 35.007812 0.429688 L 35.007812 34.5 L 0.9375 34.5 Z M 0.9375 0.429688 " fill-opacity="1" fill-rule="nonzero"/></g></g><g clip-path="url(#713edcb76a)"><g clip-path="url(#7cc6723bc8)"><path fill="#000000" d="M 0.488281 0.00390625 L 35.511719 0.00390625 L 35.511719 35.027344 L 0.488281 35.027344 Z M 0.488281 0.00390625 " fill-opacity="1" fill-rule="nonzero"/></g></g><g clip-path="url(#4eaf27b7fc)"><g clip-path="url(#d1686934bf)"><g clip-path="url(#66c2e1417e)"><path fill="#000000" d="M 12.105469 4.238281 L 12.683594 4.238281 C 13.527344 4.238281 14.210938 4.921875 14.210938 5.765625 L 13.882812 8.652344 C 13.820312 9.199219 13.816406 9.75 13.863281 10.296875 L 14.09375 12.898438 C 14.15625 13.207031 13.917969 13.492188 13.605469 13.492188 L 11.074219 13.492188 C 10.796875 13.492188 10.574219 13.269531 10.574219 12.992188 L 10.574219 5.765625 C 10.574219 4.921875 11.261719 4.238281 12.105469 4.238281 Z M 12.105469 4.238281 " fill-opacity="1" fill-rule="nonzero"/></g></g></g><g clip-path="url(#1083ea2403)"><g clip-path="url(#c2364745b3)"><g clip-path="url(#deb526e4dd)"><path fill="#807d7d" d="M 18.011719 28.390625 L 12.15625 28.390625 C 11.28125 28.390625 10.574219 27.683594 10.574219 26.8125 L 10.574219 13.160156 L 18.011719 13.160156 C 18.324219 13.160156 18.578125 13.414062 18.582031 13.730469 L 18.578125 27.824219 C 18.578125 28.136719 18.324219 28.390625 18.011719 28.390625 Z M 18.011719 28.390625 " fill-opacity="1" fill-rule="nonzero"/></g></g></g><g clip-path="url(#cce5026809)"><g clip-path="url(#af72665ec4)"><g clip-path="url(#09a2b29ab2)"><path fill="#b4b3b3" d="M 18.011719 28.390625 L 15.9375 28.390625 L 15.9375 13.160156 L 18.011719 13.160156 C 18.324219 13.160156 18.578125 13.414062 18.582031 13.730469 L 18.578125 27.824219 C 18.578125 28.136719 18.324219 28.390625 18.011719 28.390625 Z M 18.011719 28.390625 " fill-opacity="1" fill-rule="nonzero"/></g></g></g><g clip-path="url(#9a22ad3da4)"><g clip-path="url(#75fab1c8ba)"><g clip-path="url(#0cc10fc601)"><path fill="#807d7d" d="M 11.667969 5.546875 C 11.804688 5.414062 11.96875 5.34375 12.160156 5.34375 C 12.351562 5.34375 12.519531 5.414062 12.652344 5.546875 C 12.789062 5.683594 12.859375 5.847656 12.859375 6.042969 C 12.859375 6.234375 12.789062 6.398438 12.652344 6.535156 C 12.519531 6.671875 12.351562 6.738281 12.160156 6.738281 C 11.96875 6.738281 11.804688 6.671875 11.667969 6.535156 C 11.53125 6.398438 11.464844 6.234375 11.464844 6.042969 C 11.464844 5.847656 11.53125 5.683594 11.667969 5.546875 Z M 11.667969 5.546875 " fill-opacity="1" fill-rule="nonzero"/></g></g></g><g clip-path="url(#e34db8aabf)"><g clip-path="url(#1f5dda7d5b)"><g clip-path="url(#251c378c43)"><path fill="#807d7d" d="M 11.667969 11.324219 C 11.804688 11.1875 11.96875 11.117188 12.160156 11.117188 C 12.351562 11.117188 12.515625 11.1875 12.652344 11.324219 C 12.789062 11.457031 12.859375 11.621094 12.859375 11.816406 C 12.859375 12.007812 12.789062 12.171875 12.652344 12.308594 C 12.515625 12.445312 12.351562 12.511719 12.160156 12.511719 C 11.96875 12.511719 11.804688 12.445312 11.667969 12.308594 C 11.53125 12.171875 11.464844 12.007812 11.464844 11.816406 C 11.464844 11.621094 11.53125 11.457031 11.667969 11.324219 Z M 11.667969 11.324219 " fill-opacity="1" fill-rule="nonzero"/></g></g></g><g clip-path="url(#6bf46979c6)"><path fill="#8d0404" d="M 14.078125 17.445312 C 14.035156 17.433594 13.996094 17.417969 13.953125 17.402344 C 13.566406 17.261719 13.171875 17.09375 12.746094 16.808594 C 12.695312 16.773438 12.636719 16.730469 12.585938 16.695312 C 12.535156 16.65625 12.496094 16.617188 12.449219 16.582031 C 12.359375 16.503906 12.277344 16.425781 12.195312 16.34375 C 12.035156 16.183594 11.890625 16.007812 11.757812 15.828125 C 11.492188 15.464844 11.28125 15.066406 11.140625 14.644531 C 10.996094 14.222656 10.917969 13.773438 10.925781 13.316406 C 10.929688 13.089844 10.953125 12.859375 11.003906 12.636719 C 11.027344 12.519531 11.054688 12.421875 11.089844 12.316406 C 11.121094 12.214844 11.15625 12.109375 11.199219 12.011719 C 11.363281 11.609375 11.601562 11.25 11.867188 10.953125 C 12.128906 10.65625 12.414062 10.417969 12.691406 10.207031 C 13.246094 9.792969 13.777344 9.476562 14.214844 9.089844 C 15.101562 8.316406 15.765625 7.195312 15.972656 5.929688 C 15.976562 5.910156 15.992188 5.894531 16.011719 5.894531 C 16.035156 5.890625 16.054688 5.910156 16.058594 5.933594 C 16.152344 7.230469 15.769531 8.605469 14.960938 9.75 C 14.550781 10.328125 14.058594 10.796875 13.683594 11.261719 C 13.496094 11.492188 13.332031 11.71875 13.21875 11.9375 C 13.105469 12.160156 13.039062 12.371094 13.011719 12.582031 C 13.007812 12.636719 13 12.6875 13 12.742188 C 13 12.792969 12.996094 12.851562 13 12.894531 C 13.007812 12.988281 13.023438 13.082031 13.050781 13.175781 C 13.097656 13.359375 13.183594 13.535156 13.296875 13.699219 C 13.410156 13.863281 13.550781 14.011719 13.707031 14.132812 C 13.785156 14.195312 13.867188 14.25 13.949219 14.292969 C 13.988281 14.316406 14.03125 14.335938 14.074219 14.355469 C 14.09375 14.363281 14.117188 14.375 14.132812 14.382812 L 14.175781 14.394531 C 14.304688 14.433594 14.515625 14.484375 14.746094 14.515625 C 14.976562 14.542969 15.230469 14.558594 15.484375 14.558594 C 15.570312 14.558594 15.65625 14.558594 15.738281 14.554688 C 17.09375 13.75 18.734375 13.308594 20.125 13.273438 C 21.523438 13.238281 23.070312 13.722656 24.382812 14.511719 C 24.382812 14.511719 24.386719 14.511719 24.386719 14.511719 C 24.636719 14.542969 24.898438 14.558594 25.15625 14.558594 C 25.414062 14.558594 25.667969 14.542969 25.898438 14.515625 C 26.128906 14.484375 26.339844 14.433594 26.46875 14.394531 L 26.511719 14.382812 C 26.527344 14.375 26.550781 14.363281 26.570312 14.355469 C 26.613281 14.335938 26.652344 14.316406 26.695312 14.292969 C 26.777344 14.25 26.859375 14.195312 26.9375 14.132812 C 27.089844 14.011719 27.234375 13.863281 27.34375 13.699219 C 27.457031 13.535156 27.542969 13.359375 27.59375 13.175781 C 27.617188 13.082031 27.636719 12.988281 27.640625 12.894531 C 27.644531 12.851562 27.644531 12.792969 27.644531 12.742188 C 27.640625 12.6875 27.636719 12.636719 27.632812 12.582031 C 27.605469 12.371094 27.539062 12.160156 27.421875 11.9375 C 27.308594 11.71875 27.148438 11.492188 26.960938 11.261719 C 26.582031 10.796875 26.09375 10.328125 25.683594 9.75 C 24.875 8.605469 24.492188 7.230469 24.585938 5.933594 C 24.585938 5.914062 24.601562 5.894531 24.621094 5.894531 C 24.644531 5.890625 24.667969 5.90625 24.671875 5.929688 C 24.878906 7.195312 25.539062 8.316406 26.425781 9.089844 C 26.867188 9.476562 27.398438 9.792969 27.953125 10.207031 C 28.230469 10.417969 28.511719 10.65625 28.777344 10.953125 C 29.039062 11.25 29.277344 11.609375 29.445312 12.011719 C 29.484375 12.109375 29.523438 12.210938 29.554688 12.316406 C 29.585938 12.417969 29.617188 12.519531 29.640625 12.636719 C 29.691406 12.859375 29.714844 13.085938 29.71875 13.316406 C 29.726562 13.773438 29.648438 14.222656 29.503906 14.644531 C 29.359375 15.066406 29.152344 15.464844 28.886719 15.828125 C 28.753906 16.007812 28.609375 16.183594 28.445312 16.34375 C 28.367188 16.425781 28.28125 16.503906 28.195312 16.582031 C 28.148438 16.617188 28.109375 16.65625 28.058594 16.695312 C 28.003906 16.730469 27.949219 16.773438 27.898438 16.808594 C 27.472656 17.09375 27.078125 17.261719 26.6875 17.402344 C 26.648438 17.417969 26.605469 17.433594 26.566406 17.445312 L 30.34375 17.445312 C 29.890625 18.488281 28.765625 19.222656 27.457031 19.222656 C 26.800781 19.222656 26.195312 19.042969 25.695312 18.730469 C 24.203125 22.597656 22.460938 23.289062 22.453125 27.007812 C 22.476562 27.433594 22.351562 27.816406 22.074219 28.023438 C 21.621094 28.359375 20.886719 28.597656 20.070312 28.609375 C 19.25 28.625 18.527344 28.40625 18.082031 28.078125 C 17.804688 27.875 17.683594 27.488281 17.699219 27.054688 C 17.585938 23.453125 16.191406 22.5625 14.65625 18.773438 C 14.167969 19.058594 13.589844 19.222656 12.96875 19.222656 C 11.65625 19.222656 10.535156 18.488281 10.078125 17.445312 Z M 14.078125 17.445312 " fill-opacity="1" fill-rule="nonzero"/></g><path fill="#ffffff" d="M 21.660156 26.679688 C 21.382812 26.714844 21.148438 26.828125 20.957031 26.988281 C 20.761719 27.148438 20.628906 27.359375 20.554688 27.578125 C 20.550781 27.59375 20.558594 27.613281 20.574219 27.617188 C 20.589844 27.621094 20.605469 27.617188 20.609375 27.605469 C 20.734375 27.417969 20.898438 27.269531 21.085938 27.183594 C 21.269531 27.097656 21.480469 27.0625 21.660156 27.085938 C 21.769531 27.105469 21.875 27.027344 21.894531 26.914062 C 21.910156 26.800781 21.832031 26.699219 21.71875 26.679688 C 21.703125 26.679688 21.683594 26.675781 21.664062 26.679688 Z M 21.660156 26.679688 " fill-opacity="1" fill-rule="nonzero"/><g clip-path="url(#41571e7ad3)"><path fill="#ffffff" d="M 18.53125 27.089844 C 18.707031 27.0625 18.917969 27.097656 19.105469 27.183594 C 19.292969 27.269531 19.453125 27.421875 19.578125 27.605469 C 19.585938 27.621094 19.605469 27.625 19.621094 27.617188 C 19.632812 27.609375 19.636719 27.59375 19.632812 27.578125 C 19.558594 27.359375 19.425781 27.148438 19.230469 26.988281 C 19.039062 26.828125 18.804688 26.714844 18.53125 26.679688 L 18.523438 26.679688 C 18.410156 26.667969 18.308594 26.746094 18.296875 26.859375 C 18.28125 26.972656 18.363281 27.074219 18.472656 27.089844 C 18.492188 27.089844 18.511719 27.089844 18.53125 27.089844 Z M 18.53125 27.089844 " fill-opacity="1" fill-rule="nonzero"/></g><path fill="#ffffff" d="M 23.347656 21.289062 C 22.976562 21.507812 22.671875 21.808594 22.410156 22.144531 C 22.160156 22.488281 21.933594 22.855469 21.765625 23.246094 C 21.589844 23.636719 21.46875 24.046875 21.386719 24.457031 L 21.332031 24.769531 L 21.292969 25.082031 C 21.273438 25.292969 21.253906 25.5 21.25 25.707031 C 21.25 25.730469 21.265625 25.746094 21.285156 25.75 C 21.304688 25.75 21.324219 25.734375 21.328125 25.71875 L 21.457031 25.109375 C 21.507812 24.910156 21.5625 24.710938 21.617188 24.515625 C 21.730469 24.121094 21.875 23.742188 22.050781 23.378906 C 22.230469 23.015625 22.4375 22.671875 22.683594 22.347656 C 22.921875 22.023438 23.175781 21.707031 23.402344 21.347656 C 23.414062 21.328125 23.40625 21.300781 23.390625 21.289062 C 23.375 21.28125 23.359375 21.28125 23.347656 21.289062 Z M 23.347656 21.289062 " fill-opacity="1" fill-rule="nonzero"/></svg>