<svg width="180" height="180" viewBox="0 0 180 180" fill="none" xmlns="http://www.w3.org/2000/svg">
<g clip-path="url(#clip0_37_15)">
<mask id="mask0_37_15" style="mask-type:luminance" maskUnits="userSpaceOnUse" x="0" y="0" width="180" height="180">
<path d="M0.261627 0.297852H179.738V179.778H0.261627V0.297852Z" fill="white"/>
</mask>
<g mask="url(#mask0_37_15)">
<mask id="mask1_37_15" style="mask-type:luminance" maskUnits="userSpaceOnUse" x="0" y="0" width="180" height="180">
<path d="M90 179.778C66.0392 179.778 43.4811 170.45 26.5516 153.488C9.58576 136.559 0.261627 113.997 0.261627 90.0399C0.261627 66.0791 9.58576 43.5173 26.5516 26.5878C43.4811 9.62561 66.0392 0.297852 90 0.297852C113.961 0.297852 136.519 9.62561 153.448 26.5878C170.414 43.5537 179.738 66.0791 179.738 90.0399C179.738 113.997 170.414 136.559 153.448 153.488C136.519 170.45 113.961 179.778 90 179.778ZM90 5.67939C67.4746 5.67939 46.2791 14.4657 30.3525 30.3923C14.4295 46.3153 5.63953 67.5144 5.63953 90.0399C5.63953 112.562 14.4295 133.761 30.3525 149.684C46.2791 165.61 67.4746 174.397 90 174.397C112.525 174.397 133.721 165.61 149.648 149.684C165.57 133.761 174.36 112.562 174.36 90.0399C174.36 67.5144 165.57 46.3153 149.648 30.3923C133.721 14.4657 112.525 5.67939 90 5.67939Z" fill="white"/>
</mask>
<g mask="url(#mask1_37_15)">
<path d="M0.261627 0.297852H179.738V179.778H0.261627V0.297852Z" fill="white"/>
</g>
</g>
<path d="M49.0937 39.368L44.7332 43.0453L45.5471 45.4872L42.9454 47.682L38.832 34.1064L41.4338 31.9116L54.0355 38.3215L51.332 40.6035L49.0937 39.368ZM46.7099 38.0889L42.2041 35.6035L43.8466 40.5017L46.7099 38.0889Z" fill="white"/>
<path d="M61.8518 29.4543L64.5116 30.37C64.0175 32.0778 63.0509 33.4477 61.6192 34.4833L61.6483 35.4717C62.0262 35.3845 62.3786 35.4063 62.7093 35.5298C63.0472 35.657 63.3052 35.886 63.4797 36.213C63.7413 36.729 63.7595 37.2413 63.5378 37.7537C63.3125 38.2551 62.9019 38.6694 62.3023 38.9891C61.7573 39.2689 61.1432 39.3707 60.4564 39.2944L60.3692 37.8554C60.7253 37.9535 61.056 37.9245 61.3576 37.7682C61.5611 37.6628 61.6955 37.5175 61.7645 37.3322C61.8409 37.1505 61.83 36.9688 61.7355 36.7944C61.6483 36.6127 61.5066 36.5001 61.314 36.4601C61.1177 36.4128 60.8997 36.4528 60.6599 36.5764C60.5218 36.6563 60.3401 36.7907 60.1076 36.9833L60.0494 35.3264C58.4106 35.9768 56.8081 36.0095 55.2384 35.4281C53.6795 34.8467 52.4913 33.782 51.6773 32.2304C50.8161 30.5735 50.6817 28.8801 51.2704 27.1432C51.8627 25.4099 53.0363 24.0836 54.7878 23.1607C55.6381 22.7173 56.5756 22.4485 57.593 22.3612C58.6105 22.274 59.5589 22.3758 60.4419 22.6665L59.8169 25.5589C59.1955 25.3082 58.5523 25.1883 57.8837 25.1955C57.2224 25.1955 56.6374 25.3264 56.125 25.588C55.2129 26.0749 54.617 26.8017 54.3372 27.7682C54.0683 28.7275 54.1773 29.6796 54.6715 30.6171C55.1839 31.5873 55.9143 32.2377 56.8663 32.5647C57.8147 32.8954 58.7449 32.8191 59.657 32.3322C60.1512 32.0814 60.5909 31.6999 60.9797 31.1839C61.3757 30.6607 61.6664 30.0865 61.8518 29.4543Z" fill="white"/>
<path d="M69.8554 17.3849C71.8031 16.8617 73.5836 17.0361 75.2042 17.9082C76.8321 18.773 77.8932 20.1138 78.3874 21.9343C78.8816 23.7766 78.6381 25.4881 77.6606 27.0651C76.6904 28.6458 75.2369 29.696 73.3002 30.2192C71.3597 30.7425 69.5792 30.5644 67.9513 29.6814C66.3307 28.8021 65.2769 27.4358 64.7827 25.5826C64.2885 23.7512 64.5284 22.0615 65.4949 20.5099C66.4615 18.951 67.915 17.9082 69.8554 17.3849ZM70.5967 20.0448C69.6156 20.3064 68.8743 20.8878 68.3728 21.789C67.8786 22.6901 67.7696 23.6712 68.0531 24.725C68.3329 25.7824 68.9179 26.5819 69.8118 27.1233C70.702 27.6574 71.6323 27.7919 72.6025 27.5303C73.58 27.2686 74.3067 26.6872 74.7827 25.7861C75.266 24.8776 75.3677 23.8929 75.0879 22.8355C74.8045 21.7817 74.2304 20.9859 73.3583 20.4518C72.4935 19.9212 71.5741 19.7832 70.5967 20.0448Z" fill="white"/>
<path d="M93.4302 14.7051L93.6628 22.2632C93.7209 23.9892 93.2304 25.3737 92.1948 26.4202C91.1555 27.4594 89.7275 28.0045 87.907 28.0626C86.0647 28.1208 84.5857 27.6666 83.4738 26.6964C82.3583 25.7189 81.7732 24.3671 81.7151 22.6411L81.4825 15.083L84.7965 14.9812L85.0291 22.5394C85.0581 23.4042 85.327 24.0873 85.843 24.5888C86.3663 25.083 87.0276 25.3228 87.8343 25.301C88.6264 25.2719 89.2514 24.9958 89.7093 24.4725C90.1744 23.9493 90.3924 23.248 90.3634 22.365L90.1308 14.8068L93.4302 14.7051Z" fill="white"/>
<path d="M106.314 23.115L109.119 23.6528L108.146 28.6528C107.35 29.0089 106.434 29.2487 105.398 29.365C104.359 29.4813 103.396 29.4559 102.506 29.2923C100.558 28.9144 99.0504 27.9769 97.9857 26.4871C96.9283 24.9864 96.5795 23.3003 96.9392 21.429C97.2953 19.5794 98.2655 18.1586 99.8462 17.1702C101.423 16.1819 103.226 15.8875 105.253 16.2836C106.212 16.4689 107.121 16.8214 107.986 17.3447C108.858 17.8679 109.563 18.4856 110.108 19.1906L107.855 21.0511C107.466 20.5387 106.99 20.099 106.43 19.7284C105.867 19.3614 105.289 19.1179 104.701 19.0016C103.643 18.7981 102.688 18.9944 101.837 19.583C100.994 20.1644 100.471 20.9929 100.268 22.0685C100.053 23.155 100.231 24.1324 100.805 25.0045C101.387 25.8766 102.204 26.4144 103.262 26.6179C103.949 26.7451 104.752 26.6833 105.675 26.429L106.314 23.115Z" fill="white"/>
<path d="M126.355 23.7516L123.317 30.6847C122.627 32.2618 121.591 33.2937 120.206 33.7807C118.818 34.2748 117.292 34.1586 115.628 33.4318C113.942 32.6942 112.801 31.6477 112.212 30.2923C111.631 28.9369 111.682 27.4689 112.372 25.8882L115.41 18.9551L118.448 20.2778L115.41 27.2109C115.061 27.9958 115.01 28.7298 115.265 29.4057C115.515 30.0852 116.01 30.583 116.747 30.9028C117.474 31.2225 118.157 31.2443 118.797 30.9754C119.436 30.7029 119.934 30.1687 120.294 29.3621L123.331 22.4289L126.355 23.7516Z" fill="white"/>
<path d="M137.846 34.6959L132.264 30.6552L130.753 32.7482L135.782 36.3965L134.255 38.504L129.226 34.8558L127.686 36.9924L133.427 41.1494L131.901 43.2569L123.485 37.1668L131.116 26.6145L139.372 32.5883L137.846 34.6959Z" fill="white"/>
<mask id="mask2_37_15" style="mask-type:luminance" maskUnits="userSpaceOnUse" x="62" y="40" width="15" height="36">
<path d="M62.5581 40.4651H76.5116V75.8139H62.5581V40.4651Z" fill="white"/>
</mask>
<g mask="url(#mask2_37_15)">
<mask id="mask3_37_15" style="mask-type:luminance" maskUnits="userSpaceOnUse" x="21" y="37" width="106" height="106">
<path d="M69.6584 37.2673L126.959 94.5639L78.5429 142.98L21.2464 85.6794L69.6584 37.2673Z" fill="white"/>
</mask>
<g mask="url(#mask3_37_15)">
<mask id="mask4_37_15" style="mask-type:luminance" maskUnits="userSpaceOnUse" x="21" y="37" width="106" height="106">
<path d="M78.4121 142.805L21.1119 85.5087L69.5276 37.093L126.824 94.3895L78.4121 142.805Z" fill="white"/>
</mask>
<g mask="url(#mask4_37_15)">
<path d="M68.4302 41.2754L70.5523 41.279C73.6446 41.2827 76.1592 43.7936 76.1592 46.8895L74.9746 57.4709C74.7493 59.4731 74.7275 61.4934 74.9092 63.5029L75.7667 73.045C75.9884 74.1715 75.1235 75.218 73.9753 75.2143L64.6875 75.2071C63.681 75.2034 62.8634 74.3859 62.8597 73.3793L62.8307 46.8713C62.827 43.779 65.3343 41.2718 68.4302 41.2754Z" fill="white"/>
</g>
</g>
</g>
<mask id="mask5_37_15" style="mask-type:luminance" maskUnits="userSpaceOnUse" x="62" y="73" width="31" height="58">
<path d="M62.5581 73.9536H92.3256V130.698H62.5581V73.9536Z" fill="white"/>
</mask>
<g mask="url(#mask5_37_15)">
<mask id="mask6_37_15" style="mask-type:luminance" maskUnits="userSpaceOnUse" x="21" y="37" width="106" height="106">
<path d="M69.6584 37.2676L126.959 94.5641L78.5429 142.98L21.2464 85.6796L69.6584 37.2676Z" fill="white"/>
</mask>
<g mask="url(#mask6_37_15)">
<mask id="mask7_37_15" style="mask-type:luminance" maskUnits="userSpaceOnUse" x="21" y="37" width="106" height="106">
<path d="M78.4121 142.805L21.1119 85.509L69.5276 37.0933L126.824 94.3898L78.4121 142.805Z" fill="white"/>
</mask>
<g mask="url(#mask7_37_15)">
<path d="M90.189 129.866L68.7173 129.844C65.5196 129.84 62.9215 127.242 62.9179 124.045L62.8634 73.9937L90.1272 74.0227C91.2791 74.0227 92.2129 74.9602 92.2166 76.1121L92.2711 127.784C92.2747 128.936 91.3408 129.869 90.189 129.866Z" fill="white"/>
</g>
</g>
</g>
<mask id="mask8_37_15" style="mask-type:luminance" maskUnits="userSpaceOnUse" x="82" y="73" width="11" height="58">
<path d="M82.093 73.9536H92.3256V130.698H82.093V73.9536Z" fill="white"/>
</mask>
<g mask="url(#mask8_37_15)">
<mask id="mask9_37_15" style="mask-type:luminance" maskUnits="userSpaceOnUse" x="21" y="37" width="106" height="106">
<path d="M69.6584 37.2676L126.959 94.5641L78.5429 142.98L21.2464 85.6796L69.6584 37.2676Z" fill="white"/>
</mask>
<g mask="url(#mask9_37_15)">
<mask id="mask10_37_15" style="mask-type:luminance" maskUnits="userSpaceOnUse" x="21" y="37" width="106" height="106">
<path d="M78.4121 142.805L21.1119 85.509L69.5276 37.0933L126.824 94.3898L78.4121 142.805Z" fill="white"/>
</mask>
<g mask="url(#mask10_37_15)">
<path d="M90.1889 129.866L82.5872 129.859L82.5254 74.0156L90.1272 74.0229C91.2791 74.0229 92.2129 74.9604 92.2166 76.1123L92.2711 127.784C92.2747 128.936 91.3408 129.87 90.1889 129.866Z" fill="white"/>
</g>
</g>
</g>
<mask id="mask11_37_15" style="mask-type:luminance" maskUnits="userSpaceOnUse" x="65" y="45" width="7" height="6">
<path d="M65.3488 45.1162H71.8605V50.6976H65.3488V45.1162Z" fill="white"/>
</mask>
<g mask="url(#mask11_37_15)">
<mask id="mask12_37_15" style="mask-type:luminance" maskUnits="userSpaceOnUse" x="21" y="37" width="106" height="106">
<path d="M69.6584 37.2673L126.959 94.5639L78.5429 142.98L21.2464 85.6794L69.6584 37.2673Z" fill="white"/>
</mask>
<g mask="url(#mask12_37_15)">
<mask id="mask13_37_15" style="mask-type:luminance" maskUnits="userSpaceOnUse" x="21" y="37" width="106" height="106">
<path d="M78.4121 142.805L21.1119 85.5087L69.5276 37.093L126.824 94.3895L78.4121 142.805Z" fill="white"/>
</mask>
<g mask="url(#mask13_37_15)">
<path d="M66.835 46.0828C67.0749 45.8466 67.351 45.6613 67.6635 45.5305C67.976 45.4033 68.3031 45.3379 68.641 45.3379C68.9826 45.3379 69.306 45.4033 69.6221 45.5341C69.9346 45.6649 70.2108 45.8502 70.4506 46.0901C70.6904 46.3299 70.8757 46.6061 71.0065 46.9186C71.1374 47.2311 71.2028 47.5581 71.2028 47.896C71.2028 48.234 71.1374 48.561 71.0065 48.8735C70.8794 49.186 70.694 49.4658 70.4542 49.702C70.2144 49.9418 69.9382 50.1271 69.6257 50.2579C69.3132 50.3851 68.9862 50.4505 68.6483 50.4505C68.3103 50.4505 67.9833 50.3851 67.6708 50.2543C67.3547 50.1235 67.0785 49.9382 66.8387 49.6984C66.5988 49.4585 66.4135 49.1824 66.2863 48.8699C66.1555 48.5574 66.0901 48.2303 66.0901 47.8924C66.0901 47.5508 66.1519 47.2274 66.2827 46.9113C66.4135 46.5988 66.5952 46.3226 66.835 46.0828Z" fill="white"/>
</g>
</g>
</g>
<mask id="mask14_37_15" style="mask-type:luminance" maskUnits="userSpaceOnUse" x="65" y="65" width="7" height="8">
<path d="M65.3488 65.5813H71.8605V72.0929H65.3488V65.5813Z" fill="white"/>
</mask>
<g mask="url(#mask14_37_15)">
<mask id="mask15_37_15" style="mask-type:luminance" maskUnits="userSpaceOnUse" x="21" y="37" width="106" height="106">
<path d="M69.6584 37.2673L126.959 94.5639L78.5429 142.98L21.2464 85.6794L69.6584 37.2673Z" fill="white"/>
</mask>
<g mask="url(#mask15_37_15)">
<mask id="mask16_37_15" style="mask-type:luminance" maskUnits="userSpaceOnUse" x="21" y="37" width="106" height="106">
<path d="M78.4121 142.805L21.1119 85.5087L69.5276 37.093L126.824 94.3895L78.4121 142.805Z" fill="white"/>
</mask>
<g mask="url(#mask16_37_15)">
<path d="M66.8568 67.2566C67.0966 67.0168 67.3728 66.8315 67.6889 66.7006C68.0014 66.5735 68.3248 66.5081 68.6664 66.5081C69.0043 66.5081 69.3314 66.5735 69.6439 66.7043C69.9564 66.8351 70.2325 67.0204 70.4724 67.2602C70.7122 67.5001 70.8975 67.7762 71.0283 68.0887C71.1591 68.4012 71.2246 68.7283 71.2246 69.0662C71.2246 69.4078 71.1591 69.7312 71.032 70.0473C70.9012 70.3598 70.7158 70.636 70.476 70.8758C70.2398 71.112 69.9637 71.2973 69.6475 71.4281C69.335 71.5553 69.0116 71.6207 68.67 71.6207C68.3321 71.6207 68.0051 71.5553 67.6926 71.4245C67.3801 71.2937 67.1039 71.112 66.8641 70.8685C66.6243 70.6287 66.4389 70.3525 66.3081 70.04C66.1773 69.7275 66.1119 69.4005 66.1119 69.0626C66.1119 68.7246 66.1773 68.3976 66.3045 68.0851C66.4353 67.7726 66.6206 67.4964 66.8568 67.2566Z" fill="white"/>
</g>
</g>
</g>
<mask id="mask17_37_15" style="mask-type:luminance" maskUnits="userSpaceOnUse" x="95" y="47" width="39" height="83">
<path d="M95.7558 47.707H133.768V129.996H95.7558V47.707Z" fill="white"/>
</mask>
<g mask="url(#mask17_37_15)">
<path d="M74.8038 89.5347C74.6548 89.4838 74.5094 89.4329 74.3605 89.3821C72.9578 88.8697 71.5189 88.2556 69.9818 87.2273C69.7929 87.1037 69.593 86.9511 69.4041 86.813C69.2187 86.6713 69.0734 86.5405 68.9062 86.4024C68.5901 86.1263 68.2812 85.8465 67.9942 85.5485C67.4092 84.9598 66.8786 84.3348 66.399 83.6808C65.4433 82.3654 64.6839 80.93 64.1642 79.4002C63.6446 77.8704 63.3612 76.2389 63.3903 74.5856C63.4048 73.7643 63.492 72.9359 63.6701 72.1255C63.7573 71.7113 63.8626 71.3443 63.9789 70.97C64.0988 70.5957 64.2333 70.2287 64.3786 69.8654C64.9782 68.4119 65.843 67.1074 66.7951 66.0391C67.7507 64.9598 68.7791 64.0986 69.782 63.3392C71.7878 61.8312 73.7173 60.6939 75.3089 59.2985C78.5211 56.4933 80.923 52.4308 81.6715 47.8486C81.6824 47.7796 81.7405 47.7251 81.8132 47.7215C81.8968 47.7142 81.9731 47.776 81.9767 47.8632C82.3219 52.5652 80.9302 57.5398 78.0014 61.6786C76.5189 63.7716 74.742 65.4758 73.3794 67.151C72.6962 67.9831 72.1112 68.8007 71.7006 69.6037C71.2863 70.4032 71.0465 71.1735 70.9484 71.9329C70.9266 72.1255 70.9084 72.3181 70.9012 72.5107C70.8975 72.6997 70.8939 72.9068 70.9084 73.0667C70.9302 73.4046 70.992 73.7425 71.0828 74.0768C71.2609 74.7382 71.577 75.385 71.984 75.9809C72.391 76.5732 72.9033 77.111 73.4629 77.5507C73.7464 77.7687 74.0407 77.9613 74.3387 78.1284C74.4876 78.212 74.6403 78.2847 74.7892 78.3537C74.8619 78.3828 74.9491 78.4228 75.0036 78.4446L75.1635 78.4918C75.6286 78.6372 76.3953 78.8188 77.2238 78.9242C78.0596 79.0369 78.9789 79.0914 79.9092 79.0877C80.2144 79.0877 80.5233 79.0805 80.8285 79.0659C85.734 76.1662 91.6824 74.5601 96.7078 74.4366C101.773 74.313 107.38 76.0572 112.133 78.917C112.14 78.917 112.144 78.9206 112.148 78.9206C113.056 79.0332 114.008 79.0877 114.938 79.0877C115.868 79.0877 116.791 79.0369 117.624 78.9242C118.452 78.8188 119.219 78.6372 119.684 78.4918L119.844 78.4446C119.902 78.4228 119.985 78.3828 120.058 78.3537C120.211 78.2847 120.36 78.212 120.509 78.1284C120.807 77.9613 121.101 77.7687 121.384 77.5507C121.944 77.111 122.456 76.5732 122.863 75.9809C123.27 75.385 123.586 74.7382 123.765 74.0768C123.855 73.7425 123.917 73.4046 123.939 73.0667C123.953 72.9032 123.95 72.6997 123.946 72.5107C123.935 72.3181 123.921 72.1255 123.899 71.9329C123.801 71.1735 123.561 70.4032 123.147 69.6037C122.736 68.8043 122.155 67.9831 121.468 67.151C120.105 65.4758 118.328 63.7716 116.846 61.6786C113.917 57.5398 112.525 52.5652 112.871 47.8632C112.878 47.7941 112.929 47.7324 113.001 47.7215C113.085 47.7069 113.165 47.7651 113.176 47.8486C113.924 52.4308 116.326 56.4933 119.539 59.2985C121.13 60.6939 123.06 61.8312 125.065 63.3392C126.068 64.0986 127.097 64.9598 128.052 66.0391C129.004 67.1074 129.869 68.4155 130.469 69.8654C130.614 70.2287 130.749 70.5957 130.868 70.97C130.985 71.3443 131.09 71.7077 131.177 72.1255C131.355 72.9359 131.443 73.7607 131.457 74.5856C131.486 76.2389 131.203 77.8668 130.683 79.4002C130.16 80.93 129.404 82.3654 128.448 83.6808C127.969 84.3348 127.438 84.9598 126.853 85.5485C126.562 85.8465 126.257 86.1263 125.941 86.4024C125.778 86.5405 125.629 86.6713 125.443 86.813C125.254 86.9511 125.055 87.1037 124.866 87.2273C123.328 88.2556 121.89 88.8697 120.487 89.3821C120.338 89.4329 120.193 89.4838 120.044 89.5347H133.728C132.075 93.3029 128.016 95.97 123.263 95.97C120.894 95.97 118.699 95.3087 116.886 94.1786C111.483 108.187 105.178 110.683 105.142 124.142C105.229 125.687 104.782 127.064 103.768 127.816C102.129 129.03 99.4767 129.894 96.508 129.945C93.5392 129.996 90.9302 129.211 89.3169 128.019C88.3139 127.278 87.8706 125.886 87.9288 124.317C87.5182 111.279 82.4564 108.052 76.8968 94.3421C75.1381 95.3741 73.0414 95.9736 70.7885 95.9736C66.0356 95.9736 61.9731 93.3065 60.3234 89.5347H74.8038Z" fill="white"/>
</g>
<path d="M102.267 122.961C101.272 123.081 100.422 123.492 99.7238 124.07C99.0225 124.644 98.5429 125.414 98.2703 126.206C98.2485 126.268 98.2812 126.33 98.3394 126.352C98.3903 126.37 98.4448 126.348 98.4738 126.308C98.9171 125.632 99.5094 125.094 100.193 124.778C100.858 124.462 101.624 124.335 102.267 124.433C102.674 124.491 103.056 124.211 103.114 123.808C103.176 123.401 102.896 123.02 102.489 122.961C102.424 122.95 102.358 122.947 102.293 122.958L102.267 122.961Z" fill="white"/>
<path d="M108.383 103.448C107.042 104.233 105.93 105.323 104.993 106.544C104.077 107.78 103.267 109.11 102.649 110.527C102.02 111.94 101.573 113.419 101.275 114.916L101.079 116.043L100.941 117.177C100.865 117.929 100.803 118.685 100.781 119.44C100.781 119.517 100.839 119.582 100.919 119.586C100.988 119.586 101.05 119.538 101.065 119.473L101.541 117.278C101.719 116.552 101.911 115.832 102.111 115.12C102.529 113.699 103.045 112.322 103.688 111.007C104.335 109.698 105.094 108.448 105.981 107.282C106.846 106.097 107.762 104.96 108.579 103.652C108.623 103.583 108.601 103.492 108.536 103.452C108.488 103.419 108.427 103.419 108.383 103.448Z" fill="white"/>
<path d="M29.4494 105.46L30.932 109.69C31.4734 111.231 31.4588 112.644 30.8884 113.934C30.3142 115.22 29.2968 116.122 27.836 116.638C26.3898 117.139 25.0381 117.059 23.7808 116.39C22.5199 115.729 21.6078 114.61 21.0482 113.033L19.6093 108.905L29.4494 105.46ZM28.3157 108.658L22.4727 110.707L23.0977 112.481C23.3666 113.255 23.8571 113.792 24.5657 114.094C25.2706 114.392 26.0555 114.388 26.9203 114.079C27.7924 113.778 28.4065 113.273 28.7663 112.568C29.1333 111.87 29.1769 111.122 28.8971 110.329L28.3157 108.658Z" fill="white"/>
<path d="M35.8876 124.725L33.1696 119.943L31.3818 120.975L33.8382 125.292L32.0214 126.31L29.565 121.993L27.7336 123.039L30.5388 127.967L28.7365 128.999L24.6231 121.775L33.6783 116.615L37.7045 123.693L35.8876 124.725Z" fill="white"/>
<path d="M34.4472 132.922L37.2088 136.381L35.4792 137.777L31.0606 132.254L39.2001 125.742L40.8571 127.806L34.4472 132.922Z" fill="white"/>
<path d="M39.7263 142.01L37.8368 140.149L45.1478 132.722L47.0374 134.583L39.7263 142.01Z" fill="white"/>
<path d="M53.0361 139.456C53.6465 139.914 54.1553 140.495 54.5622 141.2C54.9692 141.909 55.2236 142.635 55.3326 143.38L53.0215 143.918C52.9997 143.377 52.8762 142.868 52.6436 142.392C52.4111 141.919 52.1095 141.542 51.7425 141.258C51.0811 140.764 50.3544 140.582 49.5622 140.706C48.7773 140.833 48.1233 141.244 47.6 141.941C47.0768 142.632 46.8624 143.377 46.9605 144.18C47.055 144.972 47.4329 145.619 48.0942 146.113C48.443 146.374 48.8682 146.556 49.3733 146.665C49.8747 146.771 50.3944 146.785 50.9285 146.709L51.1611 148.962C50.3653 149.085 49.555 149.052 48.7337 148.86C47.9089 148.664 47.193 148.34 46.5826 147.886C45.3326 146.945 44.5949 145.753 44.3733 144.31C44.1589 142.879 44.5077 141.549 45.4198 140.328C46.321 139.129 47.4983 138.446 48.9518 138.279C50.4053 138.115 51.7643 138.507 53.0361 139.456Z" fill="white"/>
<path d="M55.3663 153.308L53.0553 152.014L58.157 142.93L60.4681 144.224L55.3663 153.308Z" fill="white"/>
<path d="M66.2907 156.069L62.032 154.426L60.6366 155.938L58.093 154.949L66.0436 146.854L68.6017 147.842L68.9215 159.15L66.2907 158.118V156.069ZM66.3052 153.917V149.775L63.5 152.827L66.3052 153.917Z" fill="white"/>
<path d="M78.1451 150.315C79.6749 150.616 80.9431 151.259 81.9533 152.248L80.587 154.079C80.111 153.665 79.5841 153.301 79.0027 152.989C78.4285 152.669 77.9344 152.466 77.5201 152.378C76.7643 152.233 76.3355 152.415 76.241 152.916C76.1829 153.229 76.3174 153.519 76.648 153.788C76.986 154.05 77.4038 154.308 77.898 154.559C78.3995 154.802 78.9009 155.078 79.3951 155.387C79.8893 155.689 80.2745 156.099 80.5579 156.623C80.8377 157.139 80.914 157.738 80.7905 158.425C80.5942 159.406 80.0565 160.089 79.1771 160.489C78.305 160.896 77.2767 160.983 76.0957 160.751C75.2418 160.583 74.4278 160.275 73.6538 159.82C72.8871 159.377 72.2476 158.832 71.7352 158.192L73.1306 156.405C73.5557 156.95 74.0935 157.433 74.744 157.858C75.3908 158.287 75.9867 158.552 76.5317 158.658C76.946 158.745 77.2876 158.738 77.5492 158.628C77.8108 158.512 77.9707 158.309 78.0288 158.018C78.0761 157.738 77.9852 157.477 77.7527 157.233C77.5274 156.993 77.2221 156.783 76.837 156.608C76.4591 156.434 76.0521 156.227 75.616 155.983C75.18 155.743 74.7803 155.489 74.4242 155.227C74.0644 154.966 73.7883 154.61 73.5957 154.152C73.3995 153.687 73.3559 153.174 73.4649 152.611C73.6466 151.681 74.1662 151.009 75.0201 150.591C75.8704 150.176 76.9133 150.082 78.1451 150.315Z" fill="white"/>
<path d="M88.7205 151.701L93.1827 151.44C94.8179 151.345 96.1805 151.752 97.267 152.661C98.3499 153.562 98.9385 154.79 99.0258 156.338C99.113 157.86 98.6624 159.136 97.674 160.161C96.6929 161.189 95.3666 161.752 93.6915 161.847L89.331 162.108L88.7205 151.701ZM91.4967 153.663L91.8601 159.841L93.7351 159.739C94.549 159.692 95.1958 159.368 95.6827 158.765C96.166 158.166 96.3804 157.41 96.3223 156.498C96.2714 155.589 95.9589 154.863 95.3775 154.318C94.8034 153.765 94.0984 153.514 93.2554 153.562L91.4967 153.663Z" fill="white"/>
<path d="M109.367 157.308L104.948 158.427L104.687 160.476L102.056 161.145L103.844 149.938L106.489 149.27L113.32 158.281L110.573 158.979L109.367 157.308ZM108.146 155.549L105.733 152.177L105.224 156.29L108.146 155.549Z" fill="white"/>
<path d="M120.531 143.324C121.2 142.957 121.934 142.735 122.74 142.655C123.554 142.568 124.317 142.634 125.037 142.844L124.572 145.155C124.085 144.963 123.576 144.876 123.046 144.894C122.511 144.905 122.043 145.021 121.636 145.243C120.909 145.642 120.444 146.227 120.24 147.001C120.037 147.779 120.146 148.542 120.56 149.298C120.985 150.065 121.581 150.57 122.348 150.81C123.111 151.042 123.859 150.962 124.586 150.562C124.964 150.359 125.302 150.05 125.604 149.632C125.913 149.218 126.134 148.746 126.272 148.222L128.423 148.92C128.209 149.705 127.846 150.439 127.333 151.115C126.828 151.783 126.243 152.303 125.575 152.67C124.208 153.426 122.82 153.611 121.418 153.222C120.015 152.826 118.943 151.965 118.205 150.635C117.479 149.32 117.341 147.961 117.784 146.565C118.231 145.17 119.147 144.091 120.531 143.324Z" fill="white"/>
<path d="M136.415 142.551L132.883 145.458L133.523 147.42L131.415 149.135L128.276 138.234L130.383 136.504L140.398 141.766L138.203 143.568L136.415 142.551ZM134.555 141.49L130.936 139.455L132.229 143.394L134.555 141.49Z" fill="white"/>
<path d="M146.761 134.464L143.505 133.767L143.462 133.825L142.168 135.351L144.421 137.241L142.721 139.275L134.726 132.589L137.721 129.028C138.614 127.964 139.545 127.342 140.511 127.168C141.471 126.993 142.393 127.281 143.287 128.025C144.516 129.065 144.966 130.264 144.639 131.63L148.694 132.153L146.761 134.464ZM140.584 134.014L141.877 132.488C142.244 132.044 142.419 131.612 142.401 131.194C142.379 130.769 142.161 130.376 141.747 130.017C141.332 129.679 140.918 129.544 140.511 129.61C140.097 129.668 139.705 129.922 139.334 130.366L138.04 131.892L140.584 134.014Z" fill="white"/>
<path d="M155.606 120.51L154.458 122.559L146.537 123.606L152.133 126.731L150.912 128.896L141.813 123.809L142.947 121.774L150.926 120.728L145.301 117.588L146.508 115.422L155.606 120.51Z" fill="white"/>
<path d="M152.087 105.972L150.329 111.176L152.291 111.844L153.875 107.15L155.837 107.804L154.253 112.498L156.259 113.182L158.076 107.818L160.038 108.487L157.364 116.365L147.494 113.022L150.111 105.304L152.087 105.972Z" fill="white"/>
<mask id="mask18_37_15" style="mask-type:luminance" maskUnits="userSpaceOnUse" x="7" y="82" width="32" height="14">
<path d="M7.72891 82.6599H38.4266V95.2181H7.72891V82.6599Z" fill="white"/>
</mask>
<g mask="url(#mask18_37_15)">
<path d="M38.3467 82.6962C36.0392 83.0451 30.3706 86.1301 25.3488 88.9535L23.0778 90.2289L20.8067 88.9535C15.7849 86.1301 10.1199 83.0451 7.80886 82.6962C7.77979 82.6926 7.75799 82.7035 7.73982 82.7289C7.72529 82.7544 7.72529 82.7798 7.74346 82.8052C8.49564 83.8917 12.0567 87.3837 18.7536 91.4608C18.819 91.5007 18.8772 91.4898 18.9244 91.4317L20.3706 89.6294C20.3852 89.6112 20.3997 89.6076 20.4215 89.6185C20.4397 89.6257 20.4506 89.6403 20.4469 89.6621L20.3452 90.407C20.3343 90.4724 20.3597 90.5196 20.4179 90.5487C20.7958 90.7268 21.1592 90.9121 21.5189 91.1047C19.6584 92.1512 18.1177 93.0269 17.2347 93.5429C17.2057 93.5611 17.1802 93.5756 17.1512 93.5901C17.0676 93.6446 17.0131 93.7173 16.9876 93.8154C16.9658 93.9135 16.984 94.0044 17.0385 94.0916C17.2565 94.4223 17.54 94.6875 17.8888 94.8801C18.234 95.0727 18.6046 95.1708 19.0007 95.1781C19.1134 95.1853 19.2151 95.1599 19.3132 95.1018C19.3823 95.0618 19.444 95.0037 19.4876 94.9346C19.931 94.2696 21.2827 93.1287 23.0778 92.0058C24.8728 93.1287 26.2246 94.2696 26.6642 94.9346C26.7115 95.0037 26.7696 95.0618 26.8423 95.1018C26.9404 95.1599 27.0421 95.1853 27.1548 95.1781C27.5509 95.1708 27.9215 95.0727 28.2667 94.8801C28.6155 94.6875 28.899 94.4223 29.117 94.0916C29.1751 94.0044 29.1897 93.9135 29.1679 93.8154C29.1424 93.7173 29.0916 93.641 29.0044 93.5901C28.9753 93.5756 28.9499 93.5611 28.9208 93.5429C28.0378 93.0269 26.4971 92.1512 24.6366 91.1047C24.9927 90.9121 25.3634 90.7268 25.734 90.5487C25.7958 90.5196 25.8212 90.4724 25.8103 90.407L25.7086 89.6621C25.7049 89.6403 25.7122 89.6257 25.734 89.6185C25.7522 89.6076 25.7703 89.6112 25.7849 89.6294L27.2275 91.4317C27.2783 91.4898 27.3328 91.5007 27.4019 91.4608C34.0988 87.3837 37.6635 83.8917 38.4121 82.8052C38.4266 82.7834 38.4266 82.758 38.4121 82.7326C38.3975 82.7071 38.3757 82.6926 38.3467 82.6962ZM20.1599 86.3045C20.1999 86.3845 20.2616 86.4244 20.3488 86.4244H25.8067C25.8939 86.4244 25.9593 86.3845 25.9956 86.3045L27.1693 84.1388C27.2129 84.0552 27.202 83.9753 27.133 83.9063C27.0749 83.8336 26.9985 83.8118 26.9113 83.8445L24.8401 84.5676L23.2304 82.8234C23.1904 82.7762 23.1395 82.7544 23.0778 82.7544C23.0196 82.7544 22.9687 82.7762 22.9251 82.8234L21.3154 84.5676L19.2478 83.8445C19.1606 83.8118 19.0843 83.8336 19.0225 83.9063C18.9571 83.9753 18.9462 84.0552 18.9898 84.1388L20.1599 86.3045Z" fill="white"/>
</g>
<mask id="mask19_37_15" style="mask-type:luminance" maskUnits="userSpaceOnUse" x="142" y="82" width="32" height="14">
<path d="M142.391 82.6599H173.089V95.2181H142.391V82.6599Z" fill="white"/>
</mask>
<g mask="url(#mask19_37_15)">
<path d="M173.009 82.6962C170.698 83.0451 165.029 86.1301 160.011 88.9535L157.736 90.2289L155.465 88.9535C150.447 86.1301 144.778 83.0451 142.467 82.6962C142.438 82.6926 142.416 82.7035 142.402 82.7289C142.384 82.7544 142.384 82.7798 142.402 82.8052C143.154 83.8917 146.715 87.3837 153.412 91.4608C153.477 91.5007 153.536 91.4898 153.583 91.4317L155.029 89.6294C155.044 89.6112 155.062 89.6076 155.08 89.6185C155.102 89.6257 155.109 89.6403 155.105 89.6621L155.004 90.407C154.993 90.4724 155.018 90.5196 155.076 90.5487C155.454 90.7268 155.821 90.9121 156.177 91.1047C154.317 92.1512 152.776 93.0269 151.893 93.5429C151.864 93.5611 151.839 93.5756 151.81 93.5901C151.726 93.6446 151.672 93.7173 151.65 93.8154C151.628 93.9135 151.642 94.0044 151.697 94.0916C151.919 94.4223 152.202 94.6875 152.547 94.8801C152.892 95.0727 153.267 95.1708 153.659 95.1781C153.772 95.1853 153.874 95.1599 153.972 95.1018C154.044 95.0618 154.102 95.0037 154.15 94.9346C154.589 94.2696 155.941 93.1287 157.736 92.0058C159.531 93.1287 160.883 94.2696 161.326 94.9346C161.37 95.0037 161.432 95.0618 161.501 95.1018C161.599 95.1599 161.704 95.1853 161.813 95.1781C162.209 95.1708 162.58 95.0727 162.925 94.8801C163.274 94.6875 163.557 94.4223 163.779 94.0916C163.834 94.0044 163.848 93.9135 163.826 93.8154C163.805 93.7173 163.75 93.641 163.663 93.5901C163.634 93.5756 163.608 93.5611 163.579 93.5429C162.696 93.0269 161.156 92.1512 159.295 91.1047C159.655 90.9121 160.022 90.7268 160.396 90.5487C160.454 90.5196 160.48 90.4724 160.469 90.407L160.367 89.6621C160.363 89.6403 160.374 89.6257 160.392 89.6185C160.414 89.6076 160.429 89.6112 160.443 89.6294L161.89 91.4317C161.937 91.4898 161.995 91.5007 162.06 91.4608C168.757 87.3837 172.322 83.8917 173.071 82.8052C173.085 82.7834 173.089 82.758 173.074 82.7326C173.06 82.7071 173.038 82.6926 173.009 82.6962ZM154.822 86.3045C154.858 86.3845 154.924 86.4244 155.011 86.4244H160.465C160.552 86.4244 160.618 86.3845 160.658 86.3045L161.828 84.1388C161.871 84.0552 161.86 83.9753 161.795 83.9063C161.733 83.8336 161.657 83.8118 161.57 83.8445L159.502 84.5676L157.889 82.8234C157.849 82.7762 157.798 82.7544 157.74 82.7544C157.678 82.7544 157.627 82.7762 157.587 82.8234L155.974 84.5676L153.906 83.8445C153.819 83.8118 153.743 83.8336 153.681 83.9063C153.616 83.9753 153.605 84.0552 153.648 84.1388L154.822 86.3045Z" fill="white"/>
</g>
</g>
<defs>
<clipPath id="clip0_37_15">
<rect width="180" height="180" fill="white"/>
</clipPath>
</defs>
</svg>
