<svg width="110" height="110" viewBox="0 0 110 110" fill="none" xmlns="http://www.w3.org/2000/svg">
<g clip-path="url(#clip0_194_570)">
<mask id="mask0_194_570" style="mask-type:luminance" maskUnits="userSpaceOnUse" x="1" y="1" width="108" height="108">
<path d="M1.57666 1.52344H108.264V108.21H1.57666V1.52344Z" fill="white"/>
</mask>
<g mask="url(#mask0_194_570)">
<mask id="mask1_194_570" style="mask-type:luminance" maskUnits="userSpaceOnUse" x="1" y="1" width="108" height="108">
<path d="M54.9201 1.52344C25.4593 1.52344 1.57666 25.4061 1.57666 54.8669C1.57666 84.3277 25.4593 108.21 54.9201 108.21C84.3809 108.21 108.264 84.3277 108.264 54.8669C108.264 25.4061 84.3809 1.52344 54.9201 1.52344Z" fill="white"/>
</mask>
<g mask="url(#mask1_194_570)">
<path d="M1.57666 1.52344H108.264V108.21H1.57666V1.52344Z" fill="white"/>
</g>
</g>
<mask id="mask2_194_570" style="mask-type:luminance" maskUnits="userSpaceOnUse" x="0" y="0" width="110" height="110">
<path d="M0.159912 0.182129H109.84V109.865H0.159912V0.182129Z" fill="white"/>
</mask>
<g mask="url(#mask2_194_570)">
<mask id="mask3_194_570" style="mask-type:luminance" maskUnits="userSpaceOnUse" x="0" y="0" width="110" height="110">
<path d="M55 109.865C40.3573 109.865 26.5718 104.164 16.226 93.7985C5.85799 83.4527 0.159912 69.6649 0.159912 55.0245C0.159912 40.3818 5.85799 26.594 16.226 16.2482C26.5718 5.88243 40.3573 0.182129 55 0.182129C69.6427 0.182129 83.4282 5.88243 93.7741 16.2482C104.142 26.6162 109.84 40.3818 109.84 55.0245C109.84 69.6649 104.142 83.4527 93.7741 93.7985C83.4282 104.164 69.6427 109.865 55 109.865ZM55 3.47085C41.2345 3.47085 28.2817 8.84028 18.5488 18.5732C8.81806 28.3039 3.44641 41.2589 3.44641 55.0245C3.44641 68.7878 8.81806 81.7428 18.5488 91.4735C28.2817 101.206 41.2345 106.576 55 106.576C68.7656 106.576 81.7184 101.206 91.4513 91.4735C101.182 81.7428 106.554 68.7878 106.554 55.0245C106.554 41.2589 101.182 28.3039 91.4513 18.5732C81.7184 8.84028 68.7656 3.47085 55 3.47085Z" fill="white"/>
</mask>
<g mask="url(#mask3_194_570)">
<path d="M0.159912 0.182129H109.84V109.865H0.159912V0.182129Z" fill="black"/>
</g>
</g>
<path d="M30.0017 24.0584L27.337 26.3057L27.8344 27.7979L26.2444 29.1391L23.7307 20.843L25.3207 19.5017L33.0217 23.4189L31.3696 24.8134L30.0017 24.0584ZM28.545 23.2767L25.7914 21.7578L26.7952 24.7512L28.545 23.2767Z" fill="#8D0404"/>
<path d="M37.7983 17.9998L39.4238 18.5594C39.1218 19.6031 38.5311 20.4402 37.6562 21.0731L37.674 21.6771C37.9049 21.6238 38.1203 21.6372 38.3224 21.7127C38.5289 21.7904 38.6866 21.9303 38.7932 22.1301C38.953 22.4455 38.9641 22.7586 38.8287 23.0717C38.691 23.3781 38.4401 23.6313 38.0737 23.8267C37.7406 23.9977 37.3653 24.0598 36.9456 24.0132L36.8923 23.1338C37.1099 23.1938 37.312 23.176 37.4963 23.0806C37.6207 23.0162 37.7028 22.9273 37.745 22.8141C37.7917 22.703 37.785 22.592 37.7273 22.4854C37.674 22.3744 37.5874 22.3056 37.4697 22.2811C37.3498 22.2523 37.2165 22.2767 37.07 22.3522C36.9856 22.401 36.8746 22.4832 36.7324 22.6009L36.6969 21.5883C35.6954 21.9858 34.7161 22.0058 33.7568 21.6505C32.8042 21.2952 32.078 20.6445 31.5806 19.6963C31.0543 18.6837 30.9722 17.6489 31.3319 16.5875C31.6939 15.5283 32.4111 14.7177 33.4815 14.1537C34.0011 13.8828 34.574 13.7185 35.1958 13.6652C35.8175 13.6119 36.3971 13.6741 36.9367 13.8517L36.5548 15.6193C36.1751 15.4661 35.782 15.3928 35.3734 15.3973C34.9693 15.3973 34.6118 15.4772 34.2986 15.6371C33.7413 15.9346 33.3771 16.3788 33.2061 16.9694C33.0418 17.5557 33.1084 18.1375 33.4104 18.7104C33.7235 19.3033 34.1699 19.7008 34.7517 19.9006C35.3312 20.1027 35.8997 20.0561 36.4571 19.7585C36.7591 19.6053 37.0278 19.3721 37.2654 19.0568C37.5074 18.737 37.6851 18.3862 37.7983 17.9998Z" fill="#8D0404"/>
<path d="M42.6894 10.6242C43.8796 10.3044 44.9677 10.411 45.9581 10.944C46.953 11.4725 47.6014 12.2919 47.9034 13.4044C48.2054 14.5303 48.0566 15.5762 47.4593 16.5399C46.8664 17.5059 45.9781 18.1476 44.7945 18.4674C43.6087 18.7872 42.5206 18.6783 41.5258 18.1387C40.5354 17.6014 39.8914 16.7664 39.5894 15.6339C39.2874 14.5147 39.434 13.4821 40.0247 12.5339C40.6154 11.5813 41.5036 10.944 42.6894 10.6242ZM43.1424 12.2497C42.5428 12.4096 42.0898 12.7649 41.7834 13.3156C41.4814 13.8663 41.4148 14.4659 41.588 15.1098C41.759 15.756 42.1165 16.2446 42.6628 16.5754C43.2068 16.9019 43.7753 16.984 44.3682 16.8241C44.9655 16.6643 45.4096 16.309 45.7005 15.7582C45.9959 15.2031 46.0581 14.6013 45.8871 13.9551C45.7139 13.3111 45.363 12.8248 44.8301 12.4984C44.3016 12.1742 43.7397 12.0898 43.1424 12.2497Z" fill="#8D0404"/>
<path d="M57.0963 8.98657L57.2384 13.6054C57.2739 14.6602 56.9741 15.5063 56.3413 16.1458C55.7062 16.7809 54.8335 17.114 53.721 17.1495C52.5951 17.1851 51.6913 16.9075 51.0118 16.3146C50.3301 15.7172 49.9726 14.8912 49.937 13.8364L49.7949 9.21752L51.8201 9.15534L51.9622 13.7742C51.98 14.3027 52.1443 14.7202 52.4597 15.0266C52.7794 15.3286 53.1836 15.4752 53.6765 15.4619C54.1606 15.4441 54.5426 15.2753 54.8224 14.9556C55.1066 14.6358 55.2399 14.2072 55.2221 13.6676L55.08 9.04875L57.0963 8.98657Z" fill="#8D0404"/>
<path d="M64.9697 14.126L66.684 14.4547L66.0889 17.5102C65.6026 17.7278 65.043 17.8744 64.4101 17.9454C63.775 18.0165 63.1866 18.001 62.6425 17.901C61.4523 17.6701 60.5307 17.0972 59.8801 16.1867C59.2339 15.2696 59.0207 14.2393 59.2406 13.0956C59.4582 11.9654 60.0511 11.0971 61.0171 10.4931C61.9808 9.88908 63.0822 9.70921 64.3213 9.95126C64.9076 10.0645 65.4627 10.2799 65.9912 10.5997C66.5242 10.9194 66.955 11.2969 67.2881 11.7277L65.9113 12.8647C65.6737 12.5516 65.3828 12.2829 65.0408 12.0564C64.6966 11.8321 64.3435 11.6833 63.9838 11.6123C63.3376 11.4879 62.7536 11.6078 62.2339 11.9676C61.7188 12.3229 61.399 12.8292 61.2746 13.4865C61.1436 14.1504 61.2524 14.7478 61.6033 15.2807C61.9586 15.8137 62.4582 16.1423 63.1044 16.2667C63.5241 16.3444 64.0149 16.3066 64.5789 16.1512L64.9697 14.126Z" fill="#8D0404"/>
<path d="M77.2168 14.5149L75.3604 18.7519C74.9385 19.7156 74.3056 20.3463 73.4595 20.6438C72.6113 20.9458 71.6786 20.8748 70.6616 20.4306C69.6312 19.9799 68.9339 19.3403 68.5742 18.512C68.2189 17.6837 68.25 16.7866 68.6719 15.8207L70.5283 11.5837L72.3848 12.392L70.5283 16.629C70.3151 17.1086 70.2841 17.5572 70.4395 17.9702C70.5927 18.3855 70.8947 18.6897 71.3455 18.8851C71.7896 19.0805 72.2071 19.0938 72.5979 18.9295C72.9888 18.763 73.293 18.4365 73.5128 17.9436L75.3693 13.7066L77.2168 14.5149Z" fill="#8D0404"/>
<path d="M84.239 21.203L80.8281 18.7337L79.9043 20.0128L82.9777 22.2423L82.045 23.5302L78.9717 21.3007L78.0302 22.6065L81.5387 25.1468L80.6061 26.4348L75.4631 22.713L80.1264 16.2644L85.1716 19.9151L84.239 21.203Z" fill="#8D0404"/>
<mask id="mask4_194_570" style="mask-type:luminance" maskUnits="userSpaceOnUse" x="38" y="24" width="9" height="23">
<path d="M38.23 24.7288H46.7571V46.3308H38.23V24.7288Z" fill="white"/>
</mask>
<g mask="url(#mask4_194_570)">
<mask id="mask5_194_570" style="mask-type:luminance" maskUnits="userSpaceOnUse" x="12" y="22" width="66" height="66">
<path d="M42.569 22.7747L77.5858 57.7892L47.9984 87.3766L12.9839 52.3598L42.569 22.7747Z" fill="white"/>
</mask>
<g mask="url(#mask5_194_570)">
<mask id="mask6_194_570" style="mask-type:luminance" maskUnits="userSpaceOnUse" x="12" y="22" width="66" height="66">
<path d="M47.9185 87.2699L12.9017 52.2553L42.4891 22.668L77.5036 57.6825L47.9185 87.2699Z" fill="white"/>
</mask>
<g mask="url(#mask6_194_570)">
<path d="M41.8184 25.2239L43.1153 25.2261C45.005 25.2283 46.5417 26.7628 46.5417 28.6547L45.8178 35.1211C45.6801 36.3447 45.6668 37.5793 45.7778 38.8073L46.3018 44.6386C46.4373 45.327 45.9088 45.9666 45.2071 45.9644L39.5312 45.9599C38.9161 45.9577 38.4165 45.4581 38.4143 44.8429L38.3965 28.6436C38.3943 26.7539 39.9265 25.2217 41.8184 25.2239Z" fill="black"/>
</g>
</g>
</g>
<mask id="mask7_194_570" style="mask-type:luminance" maskUnits="userSpaceOnUse" x="38" y="45" width="19" height="35">
<path d="M38.23 45.1938H56.4212V79.8708H38.23V45.1938Z" fill="white"/>
</mask>
<g mask="url(#mask7_194_570)">
<mask id="mask8_194_570" style="mask-type:luminance" maskUnits="userSpaceOnUse" x="12" y="22" width="66" height="66">
<path d="M42.569 22.7747L77.5858 57.7892L47.9984 87.3766L12.9839 52.3598L42.569 22.7747Z" fill="white"/>
</mask>
<g mask="url(#mask8_194_570)">
<mask id="mask9_194_570" style="mask-type:luminance" maskUnits="userSpaceOnUse" x="12" y="22" width="66" height="66">
<path d="M47.9185 87.2699L12.9017 52.2553L42.4891 22.668L77.5036 57.6825L47.9185 87.2699Z" fill="white"/>
</mask>
<g mask="url(#mask9_194_570)">
<path d="M55.1155 79.3623L41.9939 79.349C40.0398 79.3468 38.452 77.759 38.4498 75.8049L38.4165 45.2183L55.0777 45.236C55.7817 45.2382 56.3523 45.8089 56.3546 46.5129L56.3879 78.0899C56.3901 78.7938 55.8194 79.3645 55.1155 79.3623Z" fill="#807D7D"/>
</g>
</g>
</g>
<mask id="mask10_194_570" style="mask-type:luminance" maskUnits="userSpaceOnUse" x="50" y="45" width="7" height="35">
<path d="M50.168 45.1938H56.4212V79.8708H50.168V45.1938Z" fill="white"/>
</mask>
<g mask="url(#mask10_194_570)">
<mask id="mask11_194_570" style="mask-type:luminance" maskUnits="userSpaceOnUse" x="12" y="22" width="66" height="66">
<path d="M42.569 22.7747L77.5858 57.7892L47.9984 87.3766L12.9839 52.3598L42.569 22.7747Z" fill="white"/>
</mask>
<g mask="url(#mask11_194_570)">
<mask id="mask12_194_570" style="mask-type:luminance" maskUnits="userSpaceOnUse" x="12" y="22" width="66" height="66">
<path d="M47.9185 87.2699L12.9017 52.2553L42.4891 22.668L77.5036 57.6825L47.9185 87.2699Z" fill="white"/>
</mask>
<g mask="url(#mask12_194_570)">
<path d="M55.1155 79.3622L50.47 79.3577L50.4323 45.2314L55.0778 45.2359C55.7817 45.2381 56.3524 45.8088 56.3546 46.5127L56.3879 78.0898C56.3901 78.7937 55.8194 79.3644 55.1155 79.3622Z" fill="#B4B3B3"/>
</g>
</g>
</g>
<mask id="mask13_194_570" style="mask-type:luminance" maskUnits="userSpaceOnUse" x="39" y="27" width="5" height="4">
<path d="M39.9354 27.571H43.9148V30.9819H39.9354V27.571Z" fill="white"/>
</mask>
<g mask="url(#mask13_194_570)">
<mask id="mask14_194_570" style="mask-type:luminance" maskUnits="userSpaceOnUse" x="12" y="22" width="66" height="66">
<path d="M42.569 22.7744L77.5858 57.789L47.9984 87.3763L12.9839 52.3596L42.569 22.7744Z" fill="white"/>
</mask>
<g mask="url(#mask14_194_570)">
<mask id="mask15_194_570" style="mask-type:luminance" maskUnits="userSpaceOnUse" x="12" y="22" width="66" height="66">
<path d="M47.9185 87.2696L12.9017 52.2551L42.4891 22.6677L77.5036 57.6823L47.9185 87.2696Z" fill="white"/>
</mask>
<g mask="url(#mask15_194_570)">
<path d="M40.8437 28.1615C40.9902 28.0172 41.159 27.9039 41.35 27.824C41.5409 27.7463 41.7408 27.7063 41.9473 27.7063C42.156 27.7063 42.3537 27.7463 42.5469 27.8262C42.7378 27.9062 42.9066 28.0194 43.0532 28.166C43.1997 28.3125 43.313 28.4813 43.3929 28.6723C43.4729 28.8632 43.5128 29.0631 43.5128 29.2696C43.5128 29.4761 43.4729 29.676 43.3929 29.8669C43.3152 30.0579 43.2019 30.2289 43.0554 30.3732C42.9088 30.5198 42.7401 30.6331 42.5491 30.713C42.3581 30.7907 42.1583 30.8307 41.9517 30.8307C41.7452 30.8307 41.5454 30.7907 41.3544 30.7108C41.1612 30.6308 40.9924 30.5176 40.8459 30.371C40.6993 30.2245 40.5861 30.0557 40.5083 29.8647C40.4284 29.6738 40.3884 29.4739 40.3884 29.2674C40.3884 29.0586 40.4262 28.861 40.5061 28.6678C40.5861 28.4768 40.6971 28.3081 40.8437 28.1615Z" fill="#807D7D"/>
</g>
</g>
</g>
<mask id="mask16_194_570" style="mask-type:luminance" maskUnits="userSpaceOnUse" x="39" y="40" width="5" height="5">
<path d="M39.9354 40.0776H43.9148V44.057H39.9354V40.0776Z" fill="white"/>
</mask>
<g mask="url(#mask16_194_570)">
<mask id="mask17_194_570" style="mask-type:luminance" maskUnits="userSpaceOnUse" x="12" y="22" width="66" height="66">
<path d="M42.569 22.7747L77.5858 57.7892L47.9984 87.3766L12.9839 52.3598L42.569 22.7747Z" fill="white"/>
</mask>
<g mask="url(#mask17_194_570)">
<mask id="mask18_194_570" style="mask-type:luminance" maskUnits="userSpaceOnUse" x="12" y="22" width="66" height="66">
<path d="M47.9185 87.2699L12.9017 52.2553L42.4891 22.668L77.5036 57.6825L47.9185 87.2699Z" fill="white"/>
</mask>
<g mask="url(#mask18_194_570)">
<path d="M40.857 41.1012C41.0035 40.9547 41.1723 40.8414 41.3655 40.7615C41.5564 40.6838 41.7541 40.6438 41.9628 40.6438C42.1693 40.6438 42.3692 40.6838 42.5602 40.7637C42.7511 40.8437 42.9199 40.9569 43.0665 41.1035C43.213 41.25 43.3263 41.4188 43.4062 41.6098C43.4862 41.8007 43.5261 42.0006 43.5261 42.2071C43.5261 42.4158 43.4862 42.6135 43.4084 42.8067C43.3285 42.9976 43.2152 43.1664 43.0687 43.313C42.9243 43.4595 42.7556 43.5706 42.5624 43.6505C42.3714 43.7282 42.1738 43.7682 41.965 43.7682C41.7585 43.7682 41.5587 43.7282 41.3677 43.6483C41.1767 43.5683 41.008 43.4573 40.8614 43.3107C40.7148 43.162 40.6016 42.9932 40.5216 42.8022C40.4417 42.6113 40.4017 42.4114 40.4017 42.2049C40.4017 41.9984 40.4417 41.7985 40.5194 41.6075C40.5994 41.4166 40.7126 41.2478 40.857 41.1012Z" fill="#807D7D"/>
</g>
</g>
</g>
<mask id="mask19_194_570" style="mask-type:luminance" maskUnits="userSpaceOnUse" x="58" y="29" width="24" height="51">
<path d="M58.5175 29.1543H81.7472V79.4422H58.5175V29.1543Z" fill="white"/>
</mask>
<g mask="url(#mask19_194_570)">
<path d="M45.7134 54.7158C45.6223 54.6847 45.5335 54.6536 45.4425 54.6225C44.5853 54.3094 43.7059 53.9341 42.7666 53.3057C42.6512 53.2302 42.529 53.1369 42.4136 53.0525C42.3003 52.9659 42.2115 52.886 42.1093 52.8016C41.9161 52.6328 41.7274 52.4618 41.552 52.2797C41.1944 51.92 40.8702 51.5381 40.5771 51.1384C39.9931 50.3345 39.529 49.4574 39.2114 48.5225C38.8939 47.5876 38.7207 46.5906 38.7385 45.5802C38.7473 45.0783 38.8006 44.572 38.9094 44.0768C38.9627 43.8237 39.0271 43.5994 39.0982 43.3707C39.1715 43.142 39.2536 42.9177 39.3425 42.6956C39.7089 41.8074 40.2374 41.0102 40.8192 40.3573C41.4032 39.6978 42.0316 39.1715 42.6445 38.7074C43.8703 37.7858 45.0494 37.0908 46.022 36.2381C47.9851 34.5238 49.4529 32.0411 49.9103 29.2409C49.917 29.1988 49.9525 29.1654 49.9969 29.1632C50.048 29.1588 50.0946 29.1965 50.0969 29.2498C50.3078 32.1233 49.4573 35.1633 47.6675 37.6926C46.7615 38.9717 45.6756 40.0131 44.8429 41.0368C44.4254 41.5453 44.0679 42.045 43.817 42.5357C43.5638 43.0243 43.4173 43.495 43.3573 43.9591C43.344 44.0768 43.3329 44.1945 43.3284 44.3122C43.3262 44.4277 43.324 44.5543 43.3329 44.652C43.3462 44.8585 43.384 45.065 43.4395 45.2693C43.5483 45.6734 43.7415 46.0687 43.9902 46.4329C44.2389 46.7949 44.552 47.1235 44.894 47.3922C45.0672 47.5254 45.2471 47.6431 45.4291 47.7453C45.5202 47.7963 45.6135 47.8408 45.7045 47.8829C45.7489 47.9007 45.8022 47.9251 45.8355 47.9385L45.9332 47.9673C46.2175 48.0562 46.686 48.1672 47.1923 48.2316C47.703 48.3004 48.2649 48.3337 48.8333 48.3315C49.0199 48.3315 49.2086 48.3271 49.3951 48.3182C52.393 46.5461 56.0281 45.5646 59.0992 45.4891C62.1947 45.4136 65.6211 46.4795 68.5257 48.2271C68.5301 48.2271 68.5323 48.2294 68.5346 48.2294C69.0897 48.2982 69.6715 48.3315 70.24 48.3315C70.8085 48.3315 71.3725 48.3004 71.881 48.2316C72.3873 48.1672 72.8559 48.0562 73.1401 47.9673L73.2378 47.9385C73.2733 47.9251 73.3244 47.9007 73.3688 47.8829C73.4621 47.8408 73.5531 47.7963 73.6442 47.7453C73.8263 47.6431 74.0061 47.5254 74.1793 47.3922C74.5213 47.1235 74.8344 46.7949 75.0831 46.4329C75.3318 46.0687 75.525 45.6734 75.6338 45.2693C75.6894 45.065 75.7271 44.8585 75.7404 44.652C75.7493 44.552 75.7471 44.4277 75.7449 44.3122C75.7382 44.1945 75.7293 44.0768 75.716 43.9591C75.656 43.495 75.5095 43.0243 75.2563 42.5357C75.0054 42.0472 74.6501 41.5453 74.2304 41.0368C73.3977 40.0131 72.3118 38.9717 71.4058 37.6926C69.616 35.1633 68.7655 32.1233 68.9765 29.2498C68.9809 29.2076 69.012 29.1699 69.0564 29.1632C69.1075 29.1543 69.1563 29.1899 69.163 29.2409C69.6204 32.0411 71.0883 34.5238 73.0513 36.2381C74.0239 37.0908 75.203 37.7858 76.4288 38.7074C77.0417 39.1715 77.6701 39.6978 78.2542 40.3573C78.836 41.0102 79.3645 41.8096 79.7309 42.6956C79.8197 42.9177 79.9018 43.142 79.9751 43.3707C80.0462 43.5994 80.1106 43.8215 80.1639 44.0768C80.2727 44.572 80.326 45.0761 80.3349 45.5802C80.3526 46.5906 80.1794 47.5854 79.8619 48.5225C79.5421 49.4574 79.0802 50.3345 78.4962 51.1384C78.2031 51.5381 77.8789 51.92 77.5214 52.2797C77.3437 52.4618 77.1572 52.6328 76.964 52.8016C76.8641 52.886 76.773 52.9659 76.6598 53.0525C76.5443 53.1369 76.4222 53.2302 76.3067 53.3057C75.3674 53.9341 74.488 54.3094 73.6309 54.6225C73.5398 54.6536 73.451 54.6847 73.3599 54.7158H81.7227C80.7124 57.0185 78.232 58.6485 75.3274 58.6485C73.8796 58.6485 72.5383 58.2443 71.4302 57.5537C68.1282 66.1141 64.2754 67.6397 64.2532 75.8648C64.3065 76.8086 64.0334 77.6502 63.4138 78.1099C62.4123 78.8515 60.7913 79.38 58.9771 79.4111C57.1628 79.4422 55.5684 78.9626 54.5825 78.2342C53.9696 77.7812 53.6987 76.9307 53.7342 75.9714C53.4833 68.0039 50.39 66.032 46.9924 57.6536C45.9177 58.2843 44.6364 58.6507 43.2596 58.6507C40.3551 58.6507 37.8724 57.0207 36.8643 54.7158H45.7134Z" fill="#8D0404"/>
</g>
<path d="M62.4967 75.1432C61.8883 75.2165 61.3687 75.4674 60.9423 75.8205C60.5137 76.1713 60.2206 76.6421 60.0541 77.1262C60.0408 77.164 60.0607 77.2017 60.0963 77.215C60.1274 77.2261 60.1607 77.2128 60.1784 77.1884C60.4493 76.7754 60.8113 76.4467 61.2288 76.2535C61.6352 76.0603 62.1037 75.9826 62.4967 76.0426C62.7455 76.0781 62.9786 75.9071 63.0141 75.6606C63.0519 75.4119 62.8809 75.1787 62.6322 75.1432C62.5922 75.1365 62.5523 75.1343 62.5123 75.141L62.4967 75.1432Z" fill="white"/>
<path d="M66.234 63.2184C65.4146 63.698 64.7351 64.3642 64.1622 65.1103C63.6026 65.8653 63.1074 66.6781 62.7299 67.5441C62.3457 68.4079 62.0726 69.3117 61.8905 70.2266L61.7706 70.915L61.6862 71.6078C61.6396 72.0675 61.6018 72.5294 61.5885 72.9913C61.5885 73.0379 61.624 73.0779 61.6729 73.0801C61.7151 73.0801 61.7528 73.0512 61.7617 73.0113L62.0526 71.67C62.1614 71.2259 62.2791 70.7862 62.4012 70.351C62.6566 69.4827 62.9719 68.6411 63.365 67.8372C63.7603 67.0378 64.2244 66.2739 64.7662 65.5611C65.2947 64.8372 65.8543 64.1422 66.3539 63.3427C66.3806 63.3005 66.3672 63.245 66.3273 63.2206C66.2984 63.2006 66.2607 63.2006 66.234 63.2184Z" fill="white"/>
<mask id="mask20_194_570" style="mask-type:luminance" maskUnits="userSpaceOnUse" x="4" y="50" width="20" height="8">
<path d="M4.72327 50.5144H23.1499V57.8069H4.72327V50.5144Z" fill="white"/>
</mask>
<g mask="url(#mask20_194_570)">
<path d="M23.101 50.5344C21.7153 50.7364 18.3134 52.5285 15.3 54.1695L13.9366 54.9112L12.5731 54.1695C9.55974 52.5285 6.15777 50.7364 4.77211 50.5344C4.75434 50.5321 4.74102 50.5388 4.72992 50.5543C4.72104 50.5699 4.72104 50.5832 4.73214 50.5987C5.18292 51.2272 7.32137 53.259 11.3407 55.6262C11.3806 55.6506 11.4139 55.644 11.4428 55.6084L12.3111 54.5625C12.32 54.5514 12.3288 54.5492 12.3422 54.5559C12.3533 54.5603 12.3577 54.5692 12.3577 54.5825L12.2955 55.0133C12.2889 55.0533 12.3044 55.0799 12.3399 55.0955C12.5664 55.1998 12.7863 55.3087 12.9995 55.4197C11.8825 56.0281 10.9587 56.5344 10.428 56.8364C10.4102 56.8453 10.3947 56.8542 10.3791 56.8631C10.3281 56.8942 10.2948 56.9364 10.2814 56.9941C10.2681 57.0518 10.277 57.1051 10.3103 57.154C10.4435 57.3472 10.6123 57.5004 10.821 57.6114C11.0298 57.7225 11.2518 57.7824 11.4894 57.7846C11.5561 57.7891 11.6182 57.7735 11.676 57.7424C11.7182 57.718 11.7537 57.6847 11.7826 57.6447C12.0468 57.2584 12.8596 56.5944 13.9366 55.9438C15.0135 56.5944 15.8241 57.2584 16.0905 57.6447C16.1172 57.6847 16.1527 57.718 16.1971 57.7424C16.2549 57.7735 16.317 57.7891 16.3837 57.7846C16.6213 57.7824 16.8433 57.7225 17.0521 57.6114C17.2586 57.5004 17.4296 57.3472 17.5628 57.154C17.5939 57.1051 17.605 57.0518 17.5917 56.9941C17.5784 56.9364 17.545 56.8942 17.494 56.8631C17.4762 56.8542 17.4607 56.8453 17.4429 56.8364C16.9122 56.5344 15.9884 56.0281 14.8714 55.4197C15.0868 55.3087 15.3067 55.1998 15.531 55.0955C15.5665 55.0799 15.582 55.0533 15.5754 55.0133L15.5154 54.5825C15.5132 54.5692 15.5176 54.5603 15.531 54.5559C15.5421 54.5492 15.5532 54.5514 15.5598 54.5625L16.4281 55.6084C16.4569 55.644 16.4903 55.6506 16.5302 55.6262C20.5495 53.259 22.6902 51.2272 23.1388 50.5987C23.1499 50.5854 23.1499 50.5699 23.141 50.5543C23.1321 50.541 23.1188 50.5321 23.101 50.5344ZM12.1867 52.6306C12.2089 52.6772 12.2467 52.7017 12.3 52.7017H15.5754C15.6264 52.7017 15.6642 52.6772 15.6886 52.6306L16.3903 51.3737C16.417 51.3227 16.4103 51.2783 16.3703 51.2383C16.3348 51.1961 16.2904 51.1828 16.2371 51.2028L14.9958 51.6224L14.0276 50.6076C14.0032 50.581 13.9721 50.5699 13.9366 50.5699C13.901 50.5699 13.8699 50.581 13.8455 50.6076L12.8795 51.6224L11.6382 51.2028C11.5849 51.1828 11.5383 51.1961 11.5028 51.2383C11.4628 51.2783 11.4561 51.3227 11.4828 51.3737L12.1867 52.6306Z" fill="black"/>
</g>
<mask id="mask21_194_570" style="mask-type:luminance" maskUnits="userSpaceOnUse" x="87" y="50" width="19" height="8">
<path d="M87.0167 50.5144H105.441V57.8069H87.0167V50.5144Z" fill="white"/>
</mask>
<g mask="url(#mask21_194_570)">
<path d="M105.394 50.5344C104.007 50.7364 100.605 52.5285 97.5912 54.1695L96.2278 54.9112L94.8643 54.1695C91.8509 52.5285 88.449 50.7364 87.0633 50.5344C87.0455 50.5321 87.0322 50.5388 87.0233 50.5543C87.0122 50.5699 87.0122 50.5832 87.0233 50.5987C87.4741 51.2272 89.6126 53.259 93.6319 55.6262C93.6718 55.6506 93.7051 55.644 93.7362 55.6084L94.6023 54.5625C94.6112 54.5514 94.6223 54.5492 94.6334 54.5559C94.6445 54.5603 94.6511 54.5692 94.6489 54.5825L94.5867 55.0133C94.5801 55.0533 94.5956 55.0799 94.6311 55.0955C94.8576 55.1998 95.0775 55.3087 95.2907 55.4197C94.1737 56.0281 93.2499 56.5344 92.7192 56.8364C92.7037 56.8453 92.6881 56.8542 92.6703 56.8631C92.6193 56.8942 92.586 56.9364 92.5726 56.9941C92.5593 57.0518 92.5704 57.1051 92.6037 57.154C92.7347 57.3472 92.9057 57.5004 93.1122 57.6114C93.321 57.7225 93.543 57.7824 93.7807 57.7846C93.8473 57.7891 93.9094 57.7735 93.9672 57.7424C94.0116 57.718 94.0471 57.6847 94.0738 57.6447C94.338 57.2584 95.1508 56.5944 96.2278 55.9438C97.3048 56.5944 98.1153 57.2584 98.3817 57.6447C98.4084 57.6847 98.4439 57.718 98.4883 57.7424C98.5461 57.7735 98.6083 57.7891 98.6749 57.7846C98.9125 57.7824 99.1345 57.7225 99.3433 57.6114C99.552 57.5004 99.7208 57.3472 99.854 57.154C99.8873 57.1051 99.8962 57.0518 99.8829 56.9941C99.8696 56.9364 99.8362 56.8942 99.7852 56.8631C99.7674 56.8542 99.7519 56.8453 99.7363 56.8364C99.2034 56.5344 98.2818 56.0281 97.1649 55.4197C97.378 55.3087 97.5979 55.1998 97.8222 55.0955C97.8599 55.0799 97.8732 55.0533 97.8688 55.0133L97.8066 54.5825C97.8044 54.5692 97.8088 54.5603 97.8222 54.5559C97.8333 54.5492 97.8444 54.5514 97.851 54.5625L98.7193 55.6084C98.7481 55.644 98.7837 55.6506 98.8214 55.6262C102.843 53.259 104.981 51.2272 105.432 50.5987C105.441 50.5854 105.441 50.5699 105.432 50.5543C105.423 50.541 105.41 50.5321 105.394 50.5344ZM94.4779 52.6306C94.5001 52.6772 94.5379 52.7017 94.5912 52.7017H97.8666C97.9176 52.7017 97.9576 52.6772 97.9798 52.6306L98.6838 51.3737C98.7082 51.3227 98.7015 51.2783 98.6638 51.2383C98.626 51.1961 98.5816 51.1828 98.5283 51.2028L97.287 51.6224L96.3188 50.6076C96.2944 50.581 96.2655 50.5699 96.2278 50.5699C96.1922 50.5699 96.1611 50.581 96.1367 50.6076L95.1708 51.6224L93.9294 51.2028C93.8761 51.1828 93.8317 51.1961 93.794 51.2383C93.754 51.2783 93.7473 51.3227 93.774 51.3737L94.4779 52.6306Z" fill="black"/>
</g>
<path d="M17.9968 64.4478L18.9028 67.0325C19.2337 67.9741 19.2248 68.8379 18.8762 69.6262C18.5253 70.4123 17.9035 70.963 17.0109 71.2783C16.1271 71.5848 15.301 71.5359 14.5327 71.1273C13.7621 70.7232 13.2047 70.0392 12.8628 69.0755L11.9834 66.5529L17.9968 64.4478ZM17.304 66.4019L13.7332 67.6543L14.1152 68.738C14.2795 69.211 14.5793 69.5396 15.0123 69.7239C15.4431 69.906 15.9228 69.9038 16.4513 69.715C16.9842 69.5307 17.3595 69.2221 17.5793 68.7913C17.8036 68.3649 17.8303 67.9075 17.6593 67.4234L17.304 66.4019Z" fill="#8D0404"/>
<path d="M21.9314 76.221L20.2704 73.2987L19.1778 73.9294L20.6789 76.5675L19.5686 77.1892L18.0675 74.5511L16.9483 75.1907L18.6626 78.2018L17.5612 78.8325L15.0475 74.4179L20.5812 71.2646L23.0417 75.5904L21.9314 76.221Z" fill="#8D0404"/>
<path d="M21.0511 81.2302L22.7387 83.3442L21.6817 84.1969L18.9814 80.8216L23.9556 76.8423L24.9682 78.1036L21.0511 81.2302Z" fill="#8D0404"/>
<path d="M24.2772 86.7838L23.1224 85.6468L27.5903 81.1079L28.745 82.2449L24.2772 86.7838Z" fill="#8D0404"/>
<path d="M32.4109 85.223C32.784 85.5028 33.0949 85.8581 33.3436 86.2889C33.5923 86.7219 33.7477 87.166 33.8143 87.6212L32.402 87.9499C32.3887 87.619 32.3132 87.3081 32.1711 87.0172C32.029 86.7285 31.8447 86.4976 31.6204 86.3244C31.2162 86.0224 30.7721 85.9114 30.288 85.9869C29.8084 86.0646 29.4087 86.3155 29.0889 86.7419C28.7691 87.1638 28.6381 87.619 28.6981 88.1098C28.7558 88.5938 28.9867 88.9891 29.3909 89.2911C29.6041 89.451 29.8639 89.562 30.1725 89.6286C30.479 89.693 30.7965 89.7019 31.123 89.6553L31.2651 91.0321C30.7788 91.1076 30.2836 91.0876 29.7817 90.9699C29.2776 90.85 28.8402 90.6523 28.4671 90.3748C27.7032 89.7996 27.2524 89.0713 27.117 88.1897C26.986 87.3148 27.1992 86.502 27.7565 85.7559C28.3072 85.0231 29.0267 84.6056 29.915 84.5035C30.8032 84.4036 31.6337 84.6434 32.4109 85.223Z" fill="#8D0404"/>
<path d="M33.835 93.6882L32.4227 92.8977L35.5405 87.3462L36.9528 88.1367L33.835 93.6882Z" fill="#8D0404"/>
<path d="M40.511 95.3754L37.9085 94.3716L37.0558 95.2954L35.5013 94.6914L40.36 89.7439L41.9233 90.3479L42.1188 97.2584L40.511 96.6278V95.3754ZM40.5199 94.0608V91.5293L38.8056 93.3946L40.5199 94.0608Z" fill="#8D0404"/>
<path d="M47.7554 91.859C48.6903 92.0433 49.4653 92.4363 50.0826 93.0403L49.2477 94.1595C48.9568 93.9064 48.6348 93.6843 48.2795 93.4933C47.9286 93.2979 47.6266 93.1736 47.3735 93.1203C46.9116 93.0314 46.6495 93.1425 46.5918 93.4489C46.5563 93.6399 46.6384 93.8175 46.8405 93.9819C47.047 94.1417 47.3024 94.2994 47.6044 94.4526C47.9109 94.6014 48.2173 94.7702 48.5193 94.9589C48.8213 95.1432 49.0567 95.3942 49.2299 95.7139C49.4009 96.0293 49.4475 96.3957 49.372 96.8154C49.2521 97.4149 48.9234 97.8324 48.3861 98.0767C47.8531 98.3254 47.2247 98.3787 46.503 98.2365C45.9811 98.1344 45.4837 97.9456 45.0107 97.6681C44.5422 97.3972 44.1514 97.0641 43.8383 96.6732L44.691 95.5807C44.9508 95.9138 45.2794 96.2091 45.6769 96.4689C46.0722 96.731 46.4364 96.8931 46.7695 96.9575C47.0226 97.0108 47.2313 97.0063 47.3912 96.9397C47.5511 96.8686 47.6488 96.7443 47.6843 96.5666C47.7132 96.3957 47.6577 96.2358 47.5156 96.087C47.3779 95.9404 47.1914 95.8116 46.956 95.705C46.725 95.5985 46.4763 95.4719 46.2099 95.3231C45.9434 95.1765 45.6991 95.0211 45.4815 94.8612C45.2617 94.7013 45.0929 94.4837 44.9752 94.2039C44.8553 93.9197 44.8286 93.6066 44.8953 93.2624C45.0063 92.6939 45.3238 92.2831 45.8457 92.0277C46.3653 91.7746 47.0026 91.7168 47.7554 91.859Z" fill="#8D0404"/>
<path d="M54.2181 92.7064L56.945 92.5465C57.9443 92.4888 58.777 92.7375 59.441 93.2926C60.1027 93.8433 60.4625 94.5939 60.5158 95.5399C60.5691 96.4703 60.2937 97.2497 59.6897 97.8759C59.0902 98.5044 58.2796 98.8486 57.2559 98.9063L54.5912 99.0662L54.2181 92.7064ZM55.9147 93.9055L56.1367 97.6805L57.2826 97.6184C57.78 97.5895 58.1753 97.3919 58.4728 97.0232C58.7682 96.6568 58.8992 96.1949 58.8636 95.6376C58.8326 95.0824 58.6416 94.6383 58.2863 94.3052C57.9354 93.9677 57.5046 93.8145 56.9895 93.8433L55.9147 93.9055Z" fill="#8D0404"/>
<path d="M66.8353 96.1324L64.135 96.8164L63.9752 98.0688L62.3674 98.4774L63.46 91.6291L65.0766 91.2205L69.2513 96.7276L67.5725 97.1539L66.8353 96.1324ZM66.0892 95.0577L64.6147 92.9969L64.3038 95.5107L66.0892 95.0577Z" fill="#8D0404"/>
<path d="M73.6578 87.5871C74.0664 87.3628 74.515 87.2273 75.0079 87.1785C75.5053 87.1252 75.9717 87.1651 76.4114 87.2939L76.1271 88.7062C75.8296 88.5885 75.5187 88.5353 75.1945 88.5464C74.868 88.553 74.5816 88.6241 74.3329 88.7595C73.8887 89.0038 73.6045 89.3613 73.4802 89.8343C73.3558 90.3095 73.4224 90.7758 73.6756 91.2377C73.9354 91.7063 74.2996 92.0149 74.7681 92.1615C75.2344 92.3036 75.6919 92.2548 76.136 92.0105C76.3669 91.8862 76.5735 91.6974 76.7578 91.442C76.9465 91.1889 77.082 90.9002 77.1664 90.5804L78.481 91.0068C78.3499 91.4864 78.1279 91.935 77.8148 92.348C77.5061 92.7566 77.1486 93.0742 76.74 93.2985C75.9051 93.7603 75.0568 93.8736 74.1996 93.636C73.3425 93.3939 72.6874 92.8677 72.2366 92.0549C71.7925 91.2511 71.7081 90.4205 71.979 89.5678C72.2522 88.7151 72.8118 88.0556 73.6578 87.5871Z" fill="#8D0404"/>
<path d="M83.3649 87.1143L81.2065 88.8908L81.5973 90.0899L80.3094 91.138L78.3907 84.4762L79.6787 83.4192L85.7987 86.6346L84.4574 87.7361L83.3649 87.1143ZM82.228 86.4659L80.0162 85.2223L80.8068 87.6295L82.228 86.4659Z" fill="#8D0404"/>
<path d="M89.6874 82.1728L87.6978 81.7464L87.6711 81.782L86.8806 82.7146L88.2573 83.8693L87.2181 85.1129L82.3328 81.027L84.1625 78.8508C84.7088 78.2001 85.2773 77.8204 85.868 77.7138C86.4542 77.6072 87.0182 77.7827 87.5645 78.2379C88.3151 78.873 88.5904 79.6058 88.3906 80.4407L90.8688 80.7605L89.6874 82.1728ZM85.9124 81.8974L86.7029 80.9648C86.9272 80.6939 87.0338 80.4296 87.0227 80.1743C87.0094 79.9144 86.8761 79.6746 86.623 79.4548C86.3698 79.2483 86.1167 79.1661 85.868 79.2061C85.6148 79.2416 85.375 79.397 85.1485 79.668L84.358 80.6006L85.9124 81.8974Z" fill="#8D0404"/>
<path d="M95.0929 73.6447L94.3912 74.8972L89.5502 75.5367L92.97 77.4464L92.2239 78.7699L86.6635 75.661L87.3563 74.4175L92.2327 73.778L88.7952 71.8594L89.5325 70.5359L95.0929 73.6447Z" fill="#8D0404"/>
<path d="M92.9423 64.7609L91.8676 67.9408L93.0667 68.3494L94.0349 65.4804L95.234 65.8801L94.2658 68.7491L95.4916 69.1666L96.6019 65.889L97.801 66.2975L96.1667 71.1118L90.1355 69.0689L91.7343 64.3523L92.9423 64.7609Z" fill="#8D0404"/>
</g>
<defs>
<clipPath id="clip0_194_570">
<rect width="110" height="110" fill="white"/>
</clipPath>
</defs>
</svg>
